<?xml version="1.0" standalone="no"?>
<!DOCTYPE svg PUBLIC "-//W3C//DTD SVG 1.1//EN" "http://www.w3.org/Graphics/SVG/1.1/DTD/svg11.dtd" >
<svg>
<metadata>
Created by FontForge 20110222 at Mon Oct 21 23:06:59 2013
 By Orthosie Webhosting
 1988, 1990, 1991, 1992, 1993 The Font Bureau, Inc.
</metadata>
<defs>
<font id="BelizioRegular" horiz-adv-x="714" >
  <font-face 
    font-family="BelizioRegular"
    font-weight="700"
    font-stretch="normal"
    units-per-em="1000"
    panose-1="2 0 8 7 6 0 0 2 0 4"
    ascent="830"
    descent="-170"
    x-height="512"
    cap-height="811"
    bbox="-192 -230 1538 1097"
    underline-thickness="27"
    underline-position="-107"
    unicode-range="U+0020-2122"
  />
<missing-glyph horiz-adv-x="500" 
 />
    <glyph glyph-name=".notdef" horiz-adv-x="500" 
 />
    <glyph glyph-name=".null" horiz-adv-x="0" 
 />
    <glyph glyph-name="nonmarkingreturn" horiz-adv-x="190" 
 />
    <glyph glyph-name="space" unicode=" " horiz-adv-x="190" 
 />
    <glyph glyph-name="exclam" unicode="!" horiz-adv-x="411" 
d="M313 683q0 -28 -3 -51t-7.5 -44.5t-9.5 -44.5t-10 -50l-12 -60q-3 -19 -4 -34t-3 -35q-2 -27 -2.5 -47t-0.5 -48h-95q0 28 -0.5 48t-2.5 47q-2 20 -3 35t-5 34l-11 60q-5 27 -10.5 50t-10 44.5t-7.5 44.5t-3 51q0 31 6 57.5t18.5 46t31 30.5t44.5 11t45 -11t31 -30.5
t18 -46t6 -57.5zM329 102q0 -24 -9.5 -45t-25 -36.5t-37 -24.5t-45.5 -9q-25 0 -47 9.5t-38.5 26t-26 38.5t-9.5 47q0 24 10 44.5t27 35.5t39 23.5t46 8.5q23 0 44 -9.5t37 -25.5t25.5 -37.5t9.5 -45.5z" />
    <glyph glyph-name="quotedbl" unicode="&#x22;" horiz-adv-x="570" 
d="M489 716q0 -39 -5.5 -68t-13.5 -66l-11 -44q-3 -14 -4.5 -24t-3.5 -24q-1 -20 -1.5 -34t-0.5 -34h-92q0 20 -0.5 34t-2.5 34q-2 14 -3.5 24t-3.5 24l-11 44q-8 37 -14 66t-6 68q0 18 6 36.5t17.5 33t27.5 24t36 9.5q19 0 35 -9.5t27.5 -24t17.5 -33t6 -36.5zM249 716
q0 -39 -5.5 -68t-13.5 -66l-11 -44q-3 -14 -4.5 -24t-3.5 -24q-1 -20 -1.5 -34t-0.5 -34h-92q0 20 -0.5 34t-2.5 34q-2 14 -3.5 24t-3.5 24l-11 44q-8 37 -14 66t-6 68q0 18 6 36.5t17.5 33t27.5 24t36 9.5q19 0 35 -9.5t27.5 -24t17.5 -33t6 -36.5z" />
    <glyph glyph-name="numbersign" unicode="#" horiz-adv-x="964" 
d="M672 460l-48 -106h206v-93h-248l-119 -261h-93l120 261h-155l-118 -261h-91l118 261h-173v93h216l47 106h-196v94h239l116 257h93l-116 -257h152l117 257h94l-118 -257h181v-94h-224zM427 460l-49 -106h153l49 106h-153z" />
    <glyph glyph-name="dollar" unicode="$" horiz-adv-x="785" 
d="M727 261q-1 -60 -26.5 -107t-65 -80t-87.5 -51.5t-94 -20.5l-18 -1v-131h-100v131l-16 1q-48 3 -94 19t-82 44t-57.5 65t-21.5 82q0 27 9.5 49t25.5 37.5t37.5 24t46.5 8.5q19 0 36.5 -6.5t31 -18.5t21.5 -28t8 -35t-5.5 -32t-12.5 -21t-14.5 -12t-11.5 -6l-16 -8
q5 -13 15.5 -28.5t27.5 -26.5q14 -10 27.5 -13.5t30.5 -3.5h14v236l-51 14q-43 12 -80 32t-64.5 48.5t-43.5 65t-17 81.5q-1 49 17.5 89t50 70.5t74.5 50.5t92 29l26 4v45h98v-44l30 -2q45 -3 88.5 -18t78 -40t55.5 -58.5t21 -72.5q0 -24 -8 -46t-23 -38.5t-35.5 -26.5
t-45.5 -10q-20 0 -38 6.5t-31.5 18.5t-22 28.5t-8.5 36.5q0 50 44 71l11 6l-4 10q-7 15 -18 23t-25 13q-16 7 -36 10t-26 3h-6v-227l37 -8q55 -11 102 -30t80.5 -47.5t51.5 -66.5t17 -87zM341 725l-22 -4q-12 -2 -26.5 -11t-27.5 -22.5t-21.5 -30.5t-8.5 -36q0 -38 26 -62.5
t64 -32.5l16 -4v203zM561 206q1 40 -27.5 63.5t-68.5 34.5l-26 6v-217l15 1q22 1 41.5 10.5t34 24.5t23 34.5t8.5 42.5z" />
    <glyph glyph-name="percent" unicode="%" horiz-adv-x="1128" 
d="M1087 251q0 -53 -17 -100t-47 -81.5t-70.5 -54.5t-88.5 -20t-88 20t-69 54t-45.5 78.5t-16.5 93.5q0 55 17.5 101.5t48.5 79.5t71.5 51.5t87.5 18.5t86.5 -20t68.5 -53t45.5 -76.5t16.5 -91.5zM430 0h-95l368 811h97zM489 570q0 -54 -17 -100.5t-47 -81.5t-70.5 -55
t-88.5 -20t-88 20t-69 54t-45.5 78.5t-16.5 93.5q0 55 17.5 101.5t48 79.5t71.5 51.5t87 18.5q47 0 87 -20t69 -53t45.5 -76.5t16.5 -90.5zM936 243q0 39 -2.5 69.5t-10.5 51.5t-22 32.5t-36 11.5q-21 0 -34.5 -12.5t-21.5 -34.5t-11 -52.5t-3 -65.5q0 -78 14.5 -121.5
t55.5 -43.5q22 0 36 13t22 35t10.5 52t2.5 65zM338 561q0 39 -2.5 69.5t-10.5 51.5t-22 32.5t-36 11.5q-21 0 -34.5 -12.5t-21.5 -34.5t-11 -52.5t-3 -65.5q0 -78 14 -121.5t56 -43.5q22 0 36 13t22 35.5t10.5 52.5t2.5 64z" />
    <glyph glyph-name="ampersand" unicode="&#x26;" horiz-adv-x="1071" 
d="M1044 237q0 -56 -16 -101.5t-46.5 -78t-76 -50.5t-103.5 -18q-25 0 -45.5 2t-39.5 6.5t-38 12.5t-40 20l-25 15q-54 -33 -120 -44.5t-128 -11.5q-69 0 -130 18t-107 52.5t-72.5 83t-26.5 110.5q0 51 18 92.5t49 73.5t73.5 54.5t91.5 36.5l29 9q-5 23 -6 40.5t-1 41.5
q0 46 15.5 87.5t45 72.5t71 49t94.5 18q42 0 77.5 -11t62 -31.5t41 -50t14.5 -66.5q0 -34 -14 -62t-37 -49.5t-51.5 -36t-56.5 -21.5l-42 -10q8 -20 15.5 -36t16 -31t17.5 -29.5t20 -32.5q14 -20 26 -36.5t25 -31.5t27 -30t32 -32l16 18q17 18 24 41t7 40q0 20 -10.5 31.5
t-24.5 11.5h-46v109h291v-111h-60q-21 0 -32 -18q-6 -8 -8 -16t-4 -18l-6 -26q-2 -12 -9.5 -29.5t-16.5 -34.5q-11 -20 -20.5 -33.5t-23.5 -30.5q11 -14 38.5 -26.5t58.5 -12.5q21 0 39 9.5t31 25t20 36t7 41.5v23h90v-24v0zM570 679q0 24 -16.5 40.5t-40.5 16.5
q-27 0 -47 -20.5t-20 -47.5q0 -14 2.5 -29.5t6.5 -28.5t7 -22.5t5 -11.5l24 10q35 13 57 35t22 58zM518 122q-29 26 -60 62.5t-62 81.5q-29 42 -46 79t-31 75q-37 -22 -60 -50t-23 -71q0 -41 16 -76.5t43.5 -61.5t63.5 -41t77 -15q21 0 35.5 3.5t35.5 9.5l11 4v0z" />
    <glyph glyph-name="quotesingle" unicode="'" horiz-adv-x="319" 
d="M253 710q0 -20 -1.5 -36.5t-4 -32t-6.5 -31.5t-9 -35l-11 -44q-3 -14 -4.5 -24t-3.5 -24q-2 -20 -2.5 -34t-0.5 -34h-96q0 20 -0.5 34t-2.5 34q-1 14 -2.5 24t-4.5 24l-12 44q-5 19 -9 35t-7 31.5t-4.5 32t-1.5 36.5q0 18 7 36t19.5 32.5t29.5 24t37 9.5t36.5 -9.5
t28.5 -24t18.5 -32.5t6.5 -36z" />
    <glyph glyph-name="parenleft" unicode="(" horiz-adv-x="526" 
d="M413 741q-35 -26 -60.5 -67.5t-42.5 -93t-25.5 -111t-8.5 -119.5q0 -58 5 -110.5t19.5 -99.5t41 -87.5t69.5 -73.5l38 -29l-45 -66l-44 26q-69 42 -125 88t-95.5 101t-61 120t-21.5 145q0 79 26.5 147t70 124t100 100t116.5 75l36 19l44 -61z" />
    <glyph glyph-name="parenright" unicode=")" horiz-adv-x="526" 
d="M469 364q0 -80 -21.5 -145t-61 -120t-95.5 -101t-125 -88l-44 -26l-45 66l37 29q43 34 70 74.5t41.5 87t19.5 99t5 110.5q0 60 -8 119t-24.5 110.5t-43 93t-62.5 68.5l-36 27l44 61l36 -19q60 -31 116 -75t100 -100t70.5 -124t26.5 -147z" />
    <glyph glyph-name="asterisk" unicode="*" horiz-adv-x="570" 
d="M521 505q-4 -12 -11.5 -22t-18 -16.5t-24.5 -8t-30 3.5q-17 5 -31.5 17t-22.5 18l-17 13q-8 4 -13.5 7t-12.5 7q-6 4 -15.5 8.5t-14.5 6.5q1 -5 2 -15.5t3 -16.5q2 -13 7 -29l6 -20q3 -11 10 -28.5t7 -34.5q0 -34 -20.5 -50t-46.5 -16q-24 0 -45.5 16t-21.5 50
q0 17 7 34.5t11 28.5l5 20q4 16 7 29q2 6 3 16t2 15q-5 -2 -14.5 -6.5t-14.5 -8.5q-7 -4 -13 -7.5t-13 -6.5l-18 -13q-8 -6 -22.5 -18t-31.5 -17q-32 -11 -54 3.5t-30 39.5q-7 23 2 47.5t41 35.5q17 5 35.5 4t29.5 -1h21q16 0 30 3q7 1 17 3t16 4q-4 4 -10.5 11t-11.5 12
t-11 9.5t-13 9.5l-16 12q-10 8 -25 17.5t-26 23.5q-20 27 -13 53t28 41q20 14 46.5 13t46.5 -29q10 -14 14.5 -31.5t8.5 -29.5l7 -19q3 -7 5.5 -13.5t6.5 -13.5q2 -6 6.5 -15t7.5 -14q2 5 7.5 14t7.5 16q3 6 6 12.5t6 13.5l6 20q4 11 8.5 29t15.5 32q20 27 46 28.5t47 -13.5
q10 -7 17 -17.5t10 -23t0.5 -26t-12.5 -27.5t-26 -23.5t-26 -16.5l-16 -13q-6 -5 -11.5 -9.5t-10.5 -9.5l-23 -23q9 -2 18 -3.5t16 -2.5t13.5 -1.5t14.5 -0.5l21 -1q12 0 30 1.5t35 -3.5q32 -11 41.5 -35.5t1.5 -48.5z" />
    <glyph glyph-name="plus" unicode="+" horiz-adv-x="760" 
d="M440 316v-245h-114v245h-235v113h235v243h114v-243h233v-113h-233z" />
    <glyph glyph-name="comma" unicode="," horiz-adv-x="392" 
d="M325 69q0 -51 -20 -93t-52 -71t-73.5 -45t-83.5 -16h-37v82h23q10 0 25 4.5t28.5 13t23 19.5t9.5 24q0 10 -5.5 17t-13.5 11l-17 9q-26 14 -41 32t-15 54q0 22 9.5 41.5t25 33t36.5 21.5t44 8q29 0 53.5 -10.5t42.5 -30t28 -46t10 -58.5z" />
    <glyph glyph-name="hyphen" unicode="-" horiz-adv-x="511" 
d="M82 249v171h342v-171h-342z" />
    <glyph glyph-name="period" unicode="." horiz-adv-x="392" 
d="M317 102q0 -24 -9 -45t-25 -36.5t-37 -24.5t-45 -9q-25 0 -47 9.5t-38.5 26t-26 38.5t-9.5 47q0 24 10 44.5t26.5 35.5t39 23.5t46.5 8.5q23 0 44 -9.5t36.5 -25.5t25 -37.5t9.5 -45.5z" />
    <glyph glyph-name="slash" unicode="/" horiz-adv-x="554" 
d="M135 0h-106l388 811h107z" />
    <glyph glyph-name="zero" unicode="0" horiz-adv-x="785" 
d="M735 396q0 -86 -25 -160.5t-71 -129t-111.5 -85.5t-146.5 -31q-77 0 -138.5 31.5t-104.5 86t-66.5 128t-23.5 156.5q0 88 25 167t71.5 138t112.5 93.5t147 34.5q79 0 140.5 -33t104 -91t64.5 -136.5t22 -168.5zM507 398q0 63 -3 121.5t-14.5 104.5t-35 73.5t-64.5 27.5
q-44 0 -67.5 -27.5t-34 -73.5t-12.5 -104.5t-2 -121.5q0 -57 1.5 -112.5t12.5 -99t34.5 -70.5t67.5 -27q45 0 68.5 27t34.5 70.5t12.5 99t1.5 112.5z" />
    <glyph glyph-name="one" unicode="1" horiz-adv-x="651" 
d="M111 0v93h119q23 0 37 17q7 10 7.5 28t0.5 38v367q-22 -17 -40.5 -28t-45.5 -20q-35 -11 -61.5 -15t-62.5 -2v93q52 7 89.5 25t75.5 54q20 18 34.5 35.5t25.5 36.5t18 41t12 48h161v-635q0 -20 0.5 -37.5t8.5 -27.5q12 -18 39 -18h81v-93h-499z" />
    <glyph glyph-name="two" unicode="2" horiz-adv-x="785" 
d="M714 189q-2 -90 -45 -144.5t-126 -55.5q-35 0 -57 5.5t-50 18.5l-101 46q-18 8 -33.5 13.5t-34.5 1.5q-21 -3 -33.5 -16.5t-18.5 -32.5l-7 -25h-123v84v44t3 39t9.5 37.5t20.5 39.5q32 50 72 80.5t77 52.5l78 48q27 16 49 33t38 38t24.5 47.5t8.5 62.5q0 58 -27.5 91.5
t-88.5 33.5q-36 0 -65.5 -15.5t-37.5 -50.5l-4 -16h11q35 0 58.5 -25t23.5 -60q0 -26 -9.5 -45.5t-25.5 -32.5t-36.5 -19t-42.5 -6q-64 0 -101.5 37.5t-37.5 112.5q0 48 23.5 87.5t64 68t96 44t119.5 15.5q57 0 113 -16t100.5 -47t71.5 -76t27 -102q0 -49 -20.5 -84.5
t-53.5 -62.5t-76 -47.5t-88 -38.5l-105 -42q-36 -15 -63 -32.5t-50 -43.5q-19 -20 -32.5 -46t-13.5 -59v-19l15 27q8 16 21 32.5t31.5 29t42 21t53.5 9.5q33 1 55 -8t50 -23l33 -17q19 -9 33.5 -15t36.5 -6q27 0 36 22t9 47v45h103v-85v0z" />
    <glyph glyph-name="three" unicode="3" horiz-adv-x="785" 
d="M717 219q0 -54 -25 -97t-70.5 -72.5t-109.5 -45.5t-142 -16q-72 0 -127 17t-92 46.5t-56 68t-19 80.5q0 71 32 104t86 33q46 0 76 -26t30 -71q0 -34 -15.5 -50t-43.5 -24l-12 -4l8 -17q11 -23 39.5 -39.5t82.5 -16.5q71 0 99 32t28 104q0 66 -27.5 102.5t-79.5 36.5h-41
v97l32 2q50 0 81 28t31 99q0 40 -9 67.5t-25 44.5t-39 24t-51 7q-31 0 -52 -5.5t-34.5 -15t-21.5 -22.5t-12 -29h7q29 0 48 -19t19 -53q0 -47 -29 -68.5t-68 -21.5q-25 0 -47.5 6.5t-40 21.5t-27.5 39t-10 59q0 43 22.5 80t63 64.5t96.5 43t122 15.5q65 0 121 -13t97.5 -40
t65 -68.5t23.5 -98.5q0 -84 -53 -129.5t-149 -60.5q53 -1 94 -17t68.5 -43t41.5 -63t14 -76z" />
    <glyph glyph-name="four" unicode="4" horiz-adv-x="785" 
d="M594 229v-53q0 -20 0.5 -37.5t8.5 -27.5q12 -18 39 -18h69v-93h-479v93h110q24 0 37 17q8 10 8.5 28t0.5 38v53h-343v128l382 454h167v-485h118v-97h-118zM392 614l-234 -288h234v288z" />
    <glyph glyph-name="five" unicode="5" horiz-adv-x="785" 
d="M707 267q0 -71 -30 -123.5t-79 -87t-110 -51.5t-124 -17q-60 0 -110.5 15.5t-86.5 43.5t-56 65.5t-20 81.5q0 36 11 61.5t28 42t38.5 24.5t44.5 8q20 0 40 -7t35.5 -19.5t25.5 -31t10 -41.5q0 -34 -16 -53t-38 -24l-11 -3l2 -16q3 -27 28.5 -41t64.5 -14q65 0 96.5 53.5
t31.5 147.5q0 171 -122 169q-28 -1 -50.5 -10t-36.5 -30l-9 -13h-127l47 421h55l18 -8q41 -16 91.5 -23t110.5 -7q29 0 53 1.5t46.5 5t46 9.5t52.5 14l10 3q7 2 14 3.5t12 -5.5q8 -8 0.5 -22t-16.5 -24l-28 -32q-39 -43 -111.5 -75t-173.5 -32q-23 0 -38.5 2t-37.5 7l-16 4
l-19 -161l28 22q53 41 136 41q60 0 112.5 -18.5t92 -54t62.5 -86t23 -115.5z" />
    <glyph glyph-name="six" unicode="6" horiz-adv-x="785" 
d="M727 262q0 -60 -25.5 -110.5t-69 -87t-100.5 -57t-121 -20.5q-75 0 -136 31.5t-104 85.5t-66.5 126.5t-23.5 153.5q0 115 31 199t82.5 138.5t119.5 80.5t142 26q56 0 101 -15.5t77 -40.5t49.5 -57t17.5 -65q0 -31 -10 -54t-26.5 -38t-38 -22t-44.5 -7q-39 0 -69 23
t-30 63q0 26 7.5 39.5t23.5 23.5l9 6l-6 13q-5 11 -14 18t-20.5 10.5t-23.5 4.5t-22 1q-28 0 -53 -15t-43.5 -45t-29 -75.5t-10.5 -107.5v-19.5t1 -18.5l2 -19l29 29q23 22 56.5 35t75.5 13q54 0 101.5 -19t83.5 -52t56.5 -78t20.5 -97zM522 242q0 35 -6 65t-18.5 51.5
t-33 34t-48.5 12.5q-57 0 -81.5 -42t-24.5 -117q0 -36 4.5 -66t16 -52t32 -34.5t53.5 -12.5q29 0 49 12.5t33 34t18.5 51t5.5 63.5z" />
    <glyph glyph-name="seven" unicode="7" horiz-adv-x="785" 
d="M705 669q0 -29 -2 -50.5t-11 -49.5q-4 -13 -7.5 -22.5t-8 -18.5t-9.5 -18t-11 -19l-45 -71q-15 -24 -27.5 -42.5t-26.5 -43.5q-10 -17 -17 -32t-11.5 -29.5t-7 -30t-3.5 -34.5l-3 -54q-2 -37 -7 -67.5t-18 -52.5t-36.5 -34t-63.5 -12q-53 0 -85 33.5t-32 103.5
q0 74 31 127.5t79 98.5l80 75q18 16 33 31t28.5 30t25 30.5t22.5 34.5q17 29 24.5 52.5t9.5 56.5l2 42l-17 -32q-13 -26 -28.5 -48.5t-34.5 -39.5t-42 -26.5t-52 -9.5q-20 0 -36.5 4.5t-31.5 12t-29.5 18t-30.5 22.5l-28 20q-13 9 -27.5 10.5t-26.5 -4.5q-31 -18 -31 -64
v-85h-97v108q0 53 9.5 97t30 75.5t51 49t72.5 17.5q20 0 34.5 -2.5t27.5 -7t25 -12t26 -16.5l44 -31q20 -14 37.5 -23t42.5 -9q29 0 52 18.5t29 49.5l3 25h122l3 -151v0z" />
    <glyph glyph-name="eight" unicode="8" horiz-adv-x="785" 
d="M716 230q0 -59 -25.5 -104.5t-69.5 -76.5t-103 -46.5t-125 -15.5q-69 0 -126.5 14t-99 42t-65 70.5t-23.5 98.5q0 33 11.5 58.5t31.5 46.5t46 38t56 33l25 13l-22 11q-59 30 -89.5 77.5t-30.5 107.5q0 55 23 98t63.5 72.5t95.5 45t120 15.5q64 0 118.5 -13.5t94.5 -39.5
t63 -64t23 -87q0 -32 -8 -56.5t-22 -44t-34 -35.5t-45 -31l-29 -18l30 -19q56 -36 86 -81t30 -109zM540 617q0 49 -29 81t-96 32q-24 0 -46.5 -6t-40 -18t-28 -29.5t-10.5 -40.5q0 -35 24.5 -56.5t56.5 -36.5l100 -48l21 15q29 19 38.5 45.5t9.5 61.5zM522 183
q0 32 -15.5 55t-43.5 39l-90 52q-14 6 -29 6q-19 0 -37.5 -11.5t-33 -30t-23.5 -42.5t-9 -48q0 -57 43 -88t109 -31q58 0 93.5 25.5t35.5 73.5z" />
    <glyph glyph-name="nine" unicode="9" horiz-adv-x="785" 
d="M715 433q0 -120 -34.5 -204.5t-90.5 -138.5t-127 -78.5t-144 -24.5q-54 0 -98 15t-76 39.5t-49.5 56.5t-17.5 65q0 29 9.5 50.5t25 35.5t36 21t41.5 7q19 0 36.5 -7t31 -19.5t21 -29.5t7.5 -37q0 -22 -7.5 -35t-20.5 -24l-8 -8l7 -13q8 -12 25.5 -20.5t49.5 -8.5
q89 0 126 59t37 184q0 11 -0.5 19t-0.5 19v36l-29 -33q-22 -24 -60.5 -41.5t-84.5 -17.5q-57 0 -105.5 19.5t-83.5 53.5t-54.5 80.5t-19.5 99.5q0 60 27.5 110.5t73 87t105 57t123.5 20.5q70 0 130.5 -26.5t104.5 -77t69 -124t25 -167.5zM494 564q0 35 -8.5 65t-24 52
t-37.5 34.5t-49 12.5q-29 0 -52 -12.5t-38.5 -34.5t-24 -51.5t-8.5 -63.5q0 -35 8 -65.5t23 -53t37 -35.5t51 -13q62 0 92.5 45t30.5 120z" />
    <glyph glyph-name="colon" unicode=":" horiz-adv-x="411" 
d="M329 424q0 -24 -9.5 -45t-25 -36.5t-37 -24.5t-45.5 -9q-25 0 -47 9.5t-38.5 26t-26 38.5t-9.5 47q0 24 10 44.5t27 35.5t39 23.5t46 8.5q23 0 44 -9.5t37 -25.5t25.5 -37.5t9.5 -45.5zM329 102q0 -24 -9.5 -45t-25 -36.5t-37 -24.5t-45.5 -9q-25 0 -47 9.5t-38.5 26
t-26 38.5t-9.5 47q0 24 10 44.5t27 35.5t39 23.5t46 8.5q23 0 44 -9.5t37 -25.5t25.5 -37.5t9.5 -45.5z" />
    <glyph glyph-name="semicolon" unicode=";" horiz-adv-x="392" 
d="M321 424q0 -24 -9 -45t-25 -36.5t-37 -24.5t-45 -9q-25 0 -47 9.5t-38.5 26t-26 38.5t-9.5 47q0 24 10 44.5t26.5 35.5t39 23.5t46.5 8.5q23 0 44 -9.5t36.5 -25.5t25 -37.5t9.5 -45.5zM325 68q0 -51 -20 -93t-52 -71t-73.5 -45t-83.5 -16h-37v82h23q10 0 25 4.5t28.5 13
t23 19.5t9.5 24q0 10 -5.5 17t-13.5 11l-17 9q-26 14 -41 32t-15 54q0 23 9.5 42t25 33t36.5 21.5t44 7.5q29 0 53.5 -10.5t42.5 -30t28 -46t10 -58.5z" />
    <glyph glyph-name="less" unicode="&#x3c;" horiz-adv-x="760" 
d="M521 70l-351 256v64l347 268l58 -82l-283 -217l294 -208z" />
    <glyph glyph-name="equal" unicode="=" horiz-adv-x="760" 
d="M118 398v107h530v-107h-530zM118 208v106h530v-106h-530z" />
    <glyph glyph-name="greater" unicode="&#x3e;" horiz-adv-x="760" 
d="M270 70l-65 81l293 208l-283 217l58 82l348 -268v-64z" />
    <glyph glyph-name="question" unicode="?" horiz-adv-x="638" 
d="M578 621q0 -60 -21 -98t-67 -66l-42 -27q-24 -14 -40 -26.5t-38 -34.5q-20 -21 -28.5 -40t-8.5 -46v-28h-95v47q0 31 8 53.5t24 45.5q14 22 28 35t29 34l35 47q19 26 22.5 56t3.5 55q0 52 -21 82t-70 30q-30 0 -53.5 -15.5t-29.5 -45.5l-3 -14h10q32 0 57 -19.5t25 -55.5
q0 -24 -10 -41.5t-25 -29.5t-33.5 -18t-36.5 -6q-26 0 -49 8.5t-40.5 26t-28 43t-10.5 59.5q0 43 19 79t52.5 62t78 40.5t95.5 14.5q52 0 99.5 -14t84 -41t58 -65.5t21.5 -86.5zM401 99q0 -24 -9 -44.5t-25 -35.5t-37 -23.5t-45 -8.5q-25 0 -47 9t-38.5 24.5t-26 37
t-9.5 46.5q0 24 10 44t27 35t39 23t46 8q23 0 44 -9t36.5 -24.5t25 -36.5t9.5 -45z" />
    <glyph glyph-name="at" unicode="@" horiz-adv-x="1082" 
d="M1030 462q0 -74 -22.5 -137t-61.5 -109t-91.5 -72.5t-113.5 -27.5q-20 0 -34.5 5t-24 12.5t-15 17t-8.5 18.5l-8 25l-17 -21q-25 -30 -59 -46.5t-85 -16.5q-107 0 -163.5 57t-56.5 162q0 66 18.5 120t51.5 93t79.5 60.5t102.5 21.5q20 0 35 -2.5t28 -8t25.5 -13
l27.5 -16.5l21 -14l31 49h108l-67 -332q-2 -14 -3 -29t2.5 -28.5t12 -22t25.5 -8.5q32 0 61.5 23t52 60t36.5 81.5t15 88.5q1 76 -28.5 131t-78.5 89.5t-110.5 51t-123.5 16.5q-75 0 -151.5 -25.5t-138.5 -75.5t-101 -124t-39 -170q0 -72 28 -137t77.5 -114t116 -78
t144.5 -29q115 0 209.5 33t187.5 104l43 -64q-56 -40 -103 -68.5t-97 -46.5t-107.5 -26.5t-132.5 -8.5q-103 0 -188 32.5t-146 90.5t-95 138.5t-34 176.5q0 103 43.5 191t116.5 152.5t168 100.5t199 36q75 0 152.5 -17.5t141 -60t104 -113t40.5 -175.5zM611 509
q-14 14 -26 23.5t-35 9.5q-30 0 -53 -20t-38.5 -51.5t-23.5 -69.5t-8 -74q0 -26 1.5 -52t9.5 -47t25 -34t49 -13q34 0 49 23.5t20 52.5l42 240z" />
    <glyph glyph-name="A" unicode="A" horiz-adv-x="963" 
d="M497 0v109h55q11 0 20 1.5t17 7.5q11 9 15.5 23t-0.5 29l-22 59h-299l-20 -54q-5 -13 -5.5 -25.5t7.5 -23.5q8 -12 19.5 -14.5t25.5 -2.5h56v-109h-356v109h31q18 0 27 3t17 10q19 16 27 42l246 647h242l242 -632q4 -10 11 -24.5t20 -24.5q13 -11 24.5 -16t28.5 -5h26
v-109h-455zM434 636l-111 -297h220z" />
    <glyph glyph-name="B" unicode="B" horiz-adv-x="929" 
d="M878 217q0 -56 -27 -97t-70 -67.5t-97 -39.5t-108 -13h-531v109h47q31 0 51 25q8 11 10 26.5t2 33.5v423q0 18 -2 33.5t-10 26.5q-10 12 -22 19t-29 7h-47v108h474q58 0 118 -10t109.5 -33t81 -62.5t31.5 -97.5q0 -42 -14.5 -76t-40 -59t-59.5 -40.5t-73 -21.5
q39 -1 76.5 -15t66 -39.5t46 -61t17.5 -78.5zM612 585q0 27 -10.5 48.5t-28 36.5t-40 23t-47.5 8h-40q-17 0 -29 -7t-22 -19q-8 -11 -10 -26.5t-2 -33.5v-156h88q28 0 53.5 7.5t45 23t31 39.5t11.5 56zM624 242q0 30 -11 52t-30 37t-45 22t-55 7h-100v-162q0 -20 2 -38
t10 -29q20 -25 51 -25h40q63 0 100.5 33.5t37.5 102.5z" />
    <glyph glyph-name="C" unicode="C" horiz-adv-x="909" 
d="M827 288q0 -44 -17.5 -96t-59 -98t-109.5 -76.5t-169 -30.5q-102 0 -181.5 32t-134 88.5t-82.5 133.5t-28 166q0 88 32.5 164.5t90 133.5t136.5 90t171 33q56 0 93.5 -13t55.5 -19l28 -9q23 -8 40 2q22 12 19 39h94v-314h-129l-1 18q-9 182 -179 182q-48 0 -84.5 -22
t-61 -62t-37.5 -96t-13 -123q0 -149 46 -230.5t147 -81.5q54 0 92 18t61 45.5t33.5 60.5t10.5 64v43h136v-42v0z" />
    <glyph glyph-name="D" unicode="D" horiz-adv-x="1011" 
d="M966 415q0 -99 -34.5 -176t-95 -130t-144 -81t-181.5 -28h-466v109h47q31 0 51 25q8 11 10 26.5t2 33.5v423q0 18 -2 33.5t-10 26.5q-10 12 -22 19t-29 7h-47v108h466q94 0 177 -24t145 -73t97.5 -123.5t35.5 -175.5zM707 416q0 58 -13 110.5t-40.5 92t-70 63
t-100.5 23.5q-25 0 -46.5 -4t-36.5 -24q-8 -11 -10 -26.5t-2 -33.5v-423q0 -20 3 -40t13 -30q10 -11 31.5 -14t44.5 -3q67 0 110.5 22.5t69.5 63t36.5 97.5t10.5 126z" />
    <glyph glyph-name="E" unicode="E" horiz-adv-x="949" 
d="M733 493v61q0 39 -11 65.5t-31 45.5q-17 17 -45.5 27.5t-61.5 10.5h-137q-17 0 -29 -7t-22 -19q-8 -11 -10 -26.5t-2 -33.5v-156h71q16 0 25.5 4t19.5 14q9 9 12.5 23t3.5 31v52h103v-353h-103v52q0 15 -2 28t-11 23q-11 11 -21.5 17t-28.5 6h-69v-164q0 -18 1 -35.5
t9 -28.5q10 -12 23 -16.5t30 -4.5h150q29 0 54.5 9t41.5 23q17 14 29.5 36.5t12.5 51.5v101h126v-330h-816v109h47q31 0 51 25q8 11 10 26.5t2 33.5v423q0 18 -2 33.5t-10 26.5q-10 12 -22 19t-29 7h-47v108h817v-318h-129z" />
    <glyph glyph-name="F" unicode="F" horiz-adv-x="869" 
d="M712 476v78q0 35 -7 62t-33 51q-23 22 -49 29t-60 7h-114q-32 0 -51 -26q-8 -11 -10 -26.5t-2 -33.5v-152h64q13 0 21.5 4.5t18.5 12.5q12 11 16 24.5t4 30.5v52h103v-353h-103v52q0 15 -2 26.5t-11 22.5q-10 13 -21 19t-28 6h-62v-168q0 -18 1 -35.5t9 -28.5
q10 -12 23 -16.5t30 -4.5h91v-109h-495v109h47q31 0 51 25q8 11 10 26.5t2 33.5v423q0 18 -2 33.5t-10 26.5q-10 12 -22 19t-29 7h-47v108h796v-335h-129z" />
    <glyph glyph-name="G" unicode="G" horiz-adv-x="954" 
d="M889 306q-14 0 -22 -6t-16 -16q-10 -13 -11.5 -26t-1.5 -30v-228h-94l-34 112l-15 -20q-17 -23 -37.5 -42t-49 -33t-67 -22t-91.5 -8q-92 0 -166.5 33.5t-127.5 91t-81.5 134t-28.5 162.5q0 88 33 164.5t90.5 133.5t136 89.5t170.5 32.5q22 0 40 -2t35.5 -6t35.5 -10
t39 -14l27 -10q23 -8 40 2q11 6 15 16.5t4 23.5h95l-1 -319h-129l-1 23q-2 39 -14 72t-35.5 57.5t-58.5 38.5t-82 14q-97 0 -143 -74t-46 -223q0 -74 8.5 -133t29 -100t55.5 -63t89 -22q68 0 107 33.5t39 90.5v32q0 11 -2 19.5t-10 15.5q-8 8 -17 10.5t-20 2.5h-95v108h449
v-105h-41z" />
    <glyph glyph-name="H" unicode="H" horiz-adv-x="1063" 
d="M572 0v109h40q18 0 29.5 6t21.5 19q8 11 10 25.5t2 34.5v162h-287v-162q0 -20 2 -34.5t10 -25.5q10 -13 21.5 -19t28.5 -6h40v-109h-445v109h47q18 0 29.5 6t21.5 19q8 11 10 25.5t2 34.5v423q0 21 -2 35t-10 25q-10 13 -21.5 19.5t-29.5 6.5h-47v108h445v-108h-40
q-17 0 -28.5 -6.5t-21.5 -19.5q-8 -11 -10 -25t-2 -35v-147h287v147q0 21 -2 35t-10 25q-10 13 -21.5 19.5t-29.5 6.5h-40v108h446v-108h-48q-17 0 -28.5 -6.5t-21.5 -19.5q-8 -11 -10 -25t-2 -35v-423q0 -20 2 -34.5t10 -25.5q10 -13 21.5 -19t28.5 -6h48v-109h-446z" />
    <glyph glyph-name="I" unicode="I" horiz-adv-x="545" 
d="M45 0v109h47q18 0 29.5 6t21.5 19q8 11 10 25.5t2 34.5v423q0 21 -2 35t-10 25q-10 13 -21.5 19.5t-29.5 6.5h-47v108h457v-108h-48q-18 0 -29 -6.5t-21 -19.5q-9 -11 -11 -25t-2 -35v-423q0 -20 2 -34.5t11 -25.5q10 -13 21 -19t29 -6h48v-109h-457z" />
    <glyph glyph-name="J" unicode="J" horiz-adv-x="730" 
d="M662 703q-18 0 -29.5 -7t-21.5 -19q-8 -11 -10 -25t-2 -35v-369q0 -57 -21.5 -105t-61.5 -82.5t-97.5 -54t-128.5 -19.5q-55 0 -104.5 12.5t-87 38.5t-59.5 66t-22 94q0 33 10 60.5t27.5 47.5t42 31t53.5 11q51 0 85.5 -29t34.5 -80q0 -27 -13.5 -47.5t-41.5 -28.5
l-12 -4q-5 -2 -7.5 -6t-2.5 -8q0 -9 6.5 -17t17 -13.5t24 -9t26.5 -3.5q29 0 48 11t30 29t15.5 42t4.5 50v383q0 21 -2 35t-11 25q-9 12 -20.5 19t-29.5 7h-78v108h486v-108h-48z" />
    <glyph glyph-name="K" unicode="K" horiz-adv-x="1050" 
d="M578 0v106h32q28 0 39 20q7 14 2 27t-14 26l-128 189l-123 -106v-68q0 -18 2 -34.5t10 -27.5q18 -23 51 -23h41v-109h-445v109h47q31 0 51 25q8 11 10 26.5t2 33.5v423q0 18 -2 33.5t-10 26.5q-10 12 -22 19t-29 7h-47v108h445v-108h-41q-32 0 -52 -25q-8 -11 -9.5 -27
t-1.5 -34v-206l250 227q11 9 18.5 20.5t1.5 24.5q-3 7 -10 13t-16 6h-32v109h395v-109h-52q-15 0 -26.5 -3.5t-23.5 -8.5q-11 -6 -23 -14.5t-24 -18.5l-174 -146l235 -332q24 -37 52 -55q14 -11 27 -14t30 -3h18v-107h-454z" />
    <glyph glyph-name="L" unicode="L" horiz-adv-x="826" 
d="M45 0v109h47q18 0 29.5 6t21.5 19q8 11 10 25.5t2 34.5v423q0 21 -2 35t-10 25q-10 13 -21.5 19.5t-29.5 6.5h-47v108h493v-108h-88q-17 0 -28.5 -6.5t-21.5 -19.5q-8 -11 -10 -25t-2 -35v-423q0 -20 1 -36.5t9 -27.5q12 -15 30 -18t36 -3h83q25 0 55.5 8t48.5 24
q10 8 17.5 21t13 28t8.5 30.5t3 28.5v121h126v-370h-774z" />
    <glyph glyph-name="M" unicode="M" horiz-adv-x="1276" 
d="M776 0v109h54q17 0 28.5 6t21.5 19q8 11 10 25.5t2 34.5v456l-258 -650h-99l-258 646v-452q0 -20 2 -34.5t11 -25.5q10 -13 21 -19t29 -6h59v-109h-354v109h47q18 0 29.5 6t21.5 19q8 11 10 25.5t2 34.5v423q0 21 -2 35t-10 25q-10 13 -21.5 19.5t-29.5 6.5h-47v108h418
l183 -480l175 480h412v-108h-51q-18 0 -29 -6.5t-22 -19.5q-8 -11 -10 -25t-2 -35v-423q0 -20 2 -34.5t10 -25.5q11 -13 22 -19t29 -6h51v-109h-457z" />
    <glyph glyph-name="N" unicode="N" horiz-adv-x="1048" 
d="M980 703q-18 0 -29 -6.5t-21 -19.5q-9 -11 -11 -25t-2 -35l-1 -617h-261l-359 543v-349q0 -20 2 -34.5t11 -25.5q10 -13 21 -19t29 -6h71v-109h-385v109h47q18 0 29.5 6t21.5 19q8 11 10 25.5t2 34.5v423q0 21 -2 35t-10 25q-10 13 -21.5 19.5t-29.5 6.5h-47v108h351
l380 -571v377q0 21 -2 35t-10 25q-11 13 -22 19.5t-29 6.5h-70v108h385v-108h-48z" />
    <glyph glyph-name="O" unicode="O" horiz-adv-x="952" 
d="M907 408q0 -89 -29.5 -166.5t-85.5 -135t-137 -90.5t-183 -33q-104 0 -183.5 33.5t-133.5 91t-81.5 135t-27.5 165.5t30 164.5t86 133.5t135.5 89.5t178.5 32.5q105 0 185.5 -32.5t135 -89.5t82.5 -133.5t28 -164.5zM652 408q0 69 -9.5 126t-30.5 97.5t-55 63t-85 22.5
q-53 0 -86.5 -25.5t-52.5 -68.5t-25.5 -98.5t-6.5 -116.5q0 -74 8.5 -132.5t28.5 -98.5t54.5 -61t85.5 -21q52 0 85.5 22t53.5 63t27.5 98.5t7.5 129.5z" />
    <glyph glyph-name="P" unicode="P" horiz-adv-x="898" 
d="M867 577q0 -247 -300 -247h-184v-136q0 -18 2.5 -33.5t10.5 -26.5q20 -25 51 -25h93v-109h-495v109h47q31 0 51 25q8 11 10 26.5t2 33.5v423q0 18 -2 33.5t-10 26.5q-10 12 -22 19t-29 7h-47v108h474q167 0 257.5 -55.5t90.5 -178.5zM614 577q0 60 -32.5 95t-95.5 35h-40
q-17 0 -29 -7t-22 -19q-8 -11 -10 -26.5t-2 -33.5v-185h88q74 0 108.5 37.5t34.5 103.5z" />
    <glyph glyph-name="Q" unicode="Q" horiz-adv-x="962" 
d="M915 35q0 -39 -16.5 -71.5t-44 -56.5t-63 -37t-74.5 -13q-75 0 -122 25t-58 88l-4 26q-17 -2 -32 -3.5t-29 -1.5q-104 0 -183.5 32t-133.5 88.5t-81.5 132.5t-27.5 164q0 87 30 163.5t86 133.5t135.5 90t178.5 33q105 0 186 -34t135.5 -92.5t82 -137t27.5 -166.5
q-1 -124 -55 -211t-161 -148q4 -28 25 -48.5t50 -20.5q30 0 51.5 21.5t21.5 51.5v12h76v-20v0zM652 410q0 69 -9.5 125.5t-30.5 96.5t-55 62t-85 22q-53 0 -86.5 -23.5t-52.5 -64t-25.5 -94.5t-6.5 -115q0 -50 2 -75t7 -47q20 52 61.5 79.5t97.5 27.5q66 0 112.5 -38.5
t53.5 -116.5l6 21q4 16 6.5 31t3.5 31t1 35v43zM521 126q1 30 -5.5 60t-20 55t-32.5 40.5t-43 15.5q-35 0 -59.5 -21.5t-33.5 -55.5q13 -54 53.5 -87t96.5 -34q23 0 43 4l1 23v0z" />
    <glyph glyph-name="R" unicode="R" horiz-adv-x="979" 
d="M958 164q0 -39 -12.5 -73t-36 -60t-58 -41t-78.5 -15q-81 0 -131 39t-56 110l-5 49q-4 42 -8 74t-19 54q-17 23 -38.5 33.5t-53.5 10.5h-79v-151q0 -18 1.5 -34.5t9.5 -27.5q19 -23 53 -23h43v-109h-445v109h47q31 0 51 25q8 11 10 26.5t2 33.5v423q0 18 -2 33.5
t-10 26.5q-10 12 -22 19t-29 7h-47v108h531q60 0 114.5 -14.5t96.5 -41.5t66.5 -66t24.5 -89q0 -55 -15 -92.5t-42 -61.5t-63.5 -37t-78.5 -19l-33 -5l27 -7q31 -7 51 -17t41 -32q25 -28 32 -56.5t7 -66.5v-52q0 -11 1.5 -22t5.5 -20t11 -15t18 -6q25 0 34.5 24t9.5 56v29
h74v-36v0zM626 585q0 32 -12 55t-31.5 38t-44.5 22t-52 7h-40q-17 0 -29 -7t-22 -19q-8 -11 -10 -26.5t-2 -33.5v-170h88q30 0 57.5 7.5t49.5 24t35 41.5t13 61z" />
    <glyph glyph-name="S" unicode="S" horiz-adv-x="823" 
d="M777 269q0 -74 -29.5 -127t-78 -87t-110 -49.5t-125.5 -15.5q-52 0 -91.5 9t-65.5 18l-32 12q-10 2 -18 4.5t-17 2.5q-15 0 -25.5 -11t-13.5 -25h-87v310h117v-22q0 -39 18 -72.5t49 -59t72 -40t88 -14.5q27 0 53 6t47 19t33.5 32t12.5 45q0 28 -15.5 46t-39.5 29t-53 18
t-57 13l-142 32q-44 10 -81.5 28.5t-65.5 46.5t-43.5 66t-15.5 86q0 61 25 109t69.5 81.5t104.5 51t130 17.5q43 0 74.5 -4.5t72.5 -17.5l31 -11q9 -3 17 -6t18 -1q30 3 40 34h89v-300h-117l-5 34q-10 76 -63 119.5t-139 43.5q-25 0 -49.5 -5.5t-44.5 -17t-32.5 -29.5
t-12.5 -42q0 -25 13 -40.5t33 -26t45 -16.5t49 -11l149 -33q45 -10 85 -27.5t70 -45t47 -66t17 -90.5z" />
    <glyph glyph-name="T" unicode="T" horiz-adv-x="939" 
d="M766 463v113q0 26 -9.5 56t-28.5 47q-19 16 -43.5 22t-54.5 6h-43v-513q0 -20 2 -34.5t10 -25.5q10 -13 21.5 -19t29.5 -6h91v-109h-543v109h92q17 0 28.5 6t21.5 19q8 11 10 25.5t2 34.5v513h-42q-30 0 -55 -6t-44 -22q-19 -17 -28.5 -47t-9.5 -56v-113h-125v348h843
v-348h-125z" />
    <glyph glyph-name="U" unicode="U" horiz-adv-x="992" 
d="M937 703q-18 0 -29.5 -6t-20.5 -20q-8 -11 -10 -25t-2 -35v-290q0 -92 -25.5 -156.5t-71 -105.5t-109.5 -59.5t-141 -18.5q-90 0 -160.5 16t-120 54t-75.5 99.5t-26 153.5v306q0 21 -2 35.5t-11 24.5q-10 12 -21 19t-29 7h-36v109h447v-108h-53q-18 0 -29.5 -6t-21.5 -20
q-8 -11 -10 -25t-2 -35v-306q0 -65 14.5 -105.5t38.5 -63.5t56.5 -31t68.5 -8q39 0 71 14.5t55.5 42.5t36.5 67t13 88v302q0 21 -2 35.5t-10 24.5q-10 12 -21.5 18.5t-28.5 6.5h-50v109h362v-108h-45z" />
    <glyph glyph-name="V" unicode="V" horiz-adv-x="929" 
d="M885 703q-11 0 -18 -3t-15 -9q-20 -14 -28 -38l-252 -653h-237l-210 607q-7 19 -14.5 37.5t-16.5 29.5q-11 14 -23 21.5t-30 7.5h-35v108h440v-108h-43q-17 0 -30.5 -5.5t-21.5 -19.5q-8 -16 -3 -29.5t10 -30.5l141 -410l165 422q5 14 8 24.5t-2 23.5q-5 11 -14.5 18
t-23.5 7h-61v108h352v-108h-38z" />
    <glyph glyph-name="W" unicode="W" horiz-adv-x="1410" 
d="M1365 703q-11 0 -20 -4.5t-17 -10.5q-10 -8 -15 -15.5t-9 -19.5l-229 -653h-252l-121 343l-116 -343h-249l-210 607q-7 19 -14.5 37.5t-16.5 29.5q-11 14 -23 21.5t-30 7.5h-35v108h440v-108h-43q-17 0 -30.5 -5.5t-21.5 -19.5q-8 -16 -3 -29.5t10 -30.5l149 -435
l128 388l-23 55q-5 15 -10.5 27t-16.5 24q-12 13 -24 19.5t-29 6.5h-19v108h430v-106h-59q-21 0 -33 -17q-12 -20 -5 -40l152 -455l144 437q5 14 8 24.5t-2 23.5q-5 11 -14.5 18t-23.5 7h-61v108h352v-108h-38z" />
    <glyph glyph-name="X" unicode="X" horiz-adv-x="958" 
d="M483 0v109h46q19 0 25 15q5 8 2.5 17.5t-7.5 17.5l-126 161l-129 -153q-7 -10 -13 -19.5t-1 -20.5t14.5 -14.5t20.5 -3.5h36v-109h-338v109h29q20 0 38 7q15 6 25 13t21 20l225 262l-191 239l-16.5 22t-21.5 18q-15 8 -28 10.5t-31 2.5h-25v108h461v-108h-35
q-11 0 -19.5 -6t-11.5 -14q-7 -24 7 -41l109 -131l107 140q6 8 10 15.5t2 17.5q-3 9 -11.5 14t-18.5 5h-39v108h337v-108h-44q-13 0 -22.5 -3.5t-20.5 -9.5q-14 -6 -23 -14.5t-17 -19.5l-185 -236l207 -254q10 -12 19 -22.5t22 -18.5q14 -9 24 -12.5t25 -3.5h31v-109h-469z
" />
    <glyph glyph-name="Y" unicode="Y" horiz-adv-x="929" 
d="M872 703q-12 0 -22 -4.5t-18 -9.5q-15 -12 -28 -36l-229 -363v-96q0 -20 2 -34.5t11 -25.5q10 -13 21 -19t29 -6h92v-109h-543v109h91q18 0 29 6t22 19q8 11 10 25.5t2 34.5v99l-228 361q-11 17 -17 22.5t-15 12.5q-9 6 -19 10t-28 4h-25v108h451v-108h-49q-11 0 -21 -4
t-15 -13q-6 -12 -3 -24t11 -23l128 -205l134 213q5 9 7.5 19t-2.5 21q-5 9 -13.5 12.5t-19.5 3.5h-41v108h344v-108h-48z" />
    <glyph glyph-name="Z" unicode="Z" horiz-adv-x="880" 
d="M57 0v150l497 553h-195q-12 0 -29.5 -3t-35 -9t-34 -14t-27.5 -18q-25 -23 -35 -52t-10 -55v-64h-126v323h767v-144l-501 -558h221q25 0 55 8t56 33q24 23 31.5 52.5t7.5 55.5v62h131v-320h-773z" />
    <glyph glyph-name="bracketleft" unicode="[" horiz-adv-x="560" 
d="M112 -157v967h339v-92h-98q-24 0 -38 -17q-8 -10 -9.5 -25.5t-1.5 -32.5v-633q0 -17 1.5 -32t9.5 -26q14 -17 38 -17h98v-92h-339z" />
    <glyph glyph-name="backslash" unicode="\" horiz-adv-x="554" 
d="M417 0l-388 811h106l389 -811h-107z" />
    <glyph glyph-name="bracketright" unicode="]" horiz-adv-x="560" 
d="M109 -157v92h98q24 0 38 17q8 11 9.5 26t1.5 32v633q0 17 -1.5 32.5t-9.5 25.5q-14 17 -38 17h-98v92h339v-967h-339z" />
    <glyph glyph-name="asciicircum" unicode="^" horiz-adv-x="657" 
d="M533 541l-203 177l-211 -177h-92l242 270h122l242 -270h-100z" />
    <glyph glyph-name="underscore" unicode="_" horiz-adv-x="785" 
d="M0 -222v135h785v-135h-785z" />
    <glyph glyph-name="grave" unicode="`" horiz-adv-x="669" 
d="M415 561l-207 176h141l147 -176h-81z" />
    <glyph glyph-name="a" unicode="a" horiz-adv-x="693" 
d="M684 127q0 -65 -42.5 -102.5t-111.5 -37.5q-42 0 -73 13t-54 48l-13 20l-17 -18q-35 -38 -76.5 -50.5t-84.5 -12.5q-36 0 -69 11t-58 30.5t-40 47t-15 61.5q0 44 22.5 69.5t53 38.5t63 17.5t52.5 7.5l56 8q21 3 41.5 7t36.5 13.5t25.5 26t9.5 45.5q0 37 -20.5 64.5
t-65.5 27.5q-35 0 -50.5 -12.5t-23.5 -23.5q16 -9 26.5 -19t10.5 -33q0 -18 -8.5 -32.5t-22.5 -25t-31 -16t-35 -5.5q-42 0 -71 25t-30 73q0 36 21 63t56.5 46t82 28.5t97.5 9.5q40 0 81.5 -9t75.5 -27.5t56 -48t22 -70.5v-252q0 -14 4 -26t24 -12t24.5 14t4.5 29l2 52h64
v-63v0zM386 250q-11 -6 -18.5 -10.5t-18.5 -9.5q-12 -5 -20.5 -8t-21.5 -6l-22 -6q-32 -8 -49.5 -21.5t-17.5 -39.5t19 -43.5t45 -17.5q22 0 41 9t33 24t22 35t8 42v52z" />
    <glyph glyph-name="b" unicode="b" horiz-adv-x="706" 
d="M672 265q0 -65 -22.5 -116.5t-60 -87.5t-85 -55t-97.5 -19q-42 0 -73 7.5t-54.5 20t-41.5 29t-34 34.5l-20 -78h-90v673q0 11 -2 19.5t-8 16.5q-13 13 -31 13h-36v89h252v-343q7 7 18.5 19t31 23.5t48 20t69.5 8.5q57 0 101 -21t74 -58t45.5 -87t15.5 -108zM470 268
q0 86 -26 125.5t-70 39.5q-31 0 -52 -14t-33.5 -34t-18 -42t-5.5 -39v-79q0 -141 103 -141q30 0 49.5 12.5t31 36.5t16.5 58t5 77z" />
    <glyph glyph-name="c" unicode="c" horiz-adv-x="590" 
d="M557 172q0 -38 -19 -72t-51.5 -59t-76.5 -39.5t-93 -14.5q-69 0 -122.5 21.5t-89.5 58.5t-55 87.5t-19 108.5q0 64 19.5 115t57 87t92 55.5t123.5 19.5q47 0 88 -12.5t71 -35t47.5 -53.5t17.5 -68q0 -24 -7.5 -46t-22 -38.5t-36.5 -26.5t-51 -10q-45 0 -70 25.5t-26 62.5
q0 24 12.5 41.5t34.5 28.5l-4 9q-2 6 -13 18t-40 12q-26 0 -43 -12.5t-27.5 -35t-15 -53t-4.5 -66.5q0 -38 3 -73t14 -61.5t32.5 -42.5t58.5 -16q25 0 42 8t27.5 22t16 32.5t7.5 39.5l122 3v-20v0z" />
    <glyph glyph-name="d" unicode="d" horiz-adv-x="707" 
d="M436 0v70l-21 -23q-31 -35 -64.5 -47.5t-81.5 -12.5q-50 0 -93.5 20.5t-75.5 56.5t-50.5 86t-18.5 109t18.5 110t51.5 88.5t78.5 58.5t100.5 21q42 0 76 -11.5t55 -33.5l19 -18v199q0 11 -2 19.5t-9 16.5q-13 13 -30 13h-77v89h289v-642q0 -17 1.5 -32.5t9.5 -26.5
q14 -17 38 -17h37v-93h-251zM430 301q0 63 -28 92t-76 29q-44 0 -70 -38.5t-26 -127.5q0 -47 5.5 -78t17.5 -49.5t30 -26.5t43 -8q23 0 42 9.5t33 26t21.5 37t7.5 43.5v91z" />
    <glyph glyph-name="e" unicode="e" horiz-adv-x="620" 
d="M592 288q0 -8 0.5 -12.5t0.5 -9t-0.5 -11.5t-1.5 -19h-360l1 -44q1 -48 28 -79.5t82 -31.5q101 0 111 96h134l-2 -20q-2 -21 -19 -50.5t-50 -56t-82.5 -45t-116.5 -18.5q-64 0 -116.5 21.5t-90 58.5t-58.5 87.5t-21 108.5t21.5 108.5t60 88t92 59t118.5 21.5
q59 0 108.5 -17.5t85 -50.5t55.5 -79.5t20 -104.5zM412 344q0 47 -21.5 79t-67.5 32q-42 0 -67 -30.5t-25 -79.5v-23h181v22z" />
    <glyph glyph-name="f" unicode="f" horiz-adv-x="472" 
d="M574 684q0 -28 -8.5 -49t-22.5 -35.5t-32 -21.5t-36 -7q-36 0 -60.5 20.5t-25.5 58.5q0 39 38 60q-3 10 -10 18q-6 7 -17.5 12.5t-28.5 5.5q-31 0 -51.5 -19.5t-20.5 -61.5v-153h129v-91h-130v-245q0 -20 0.5 -38t8.5 -28q13 -17 37 -17h80v-93h-400v93h58q20 0 30 13
q7 7 9.5 16t2.5 20v279h-95v91h62q9 0 16.5 3.5t11.5 7.5t6 11t2 15v31q0 126 62 187t182 61q46 0 84 -10.5t64 -30t40.5 -46t14.5 -57.5z" />
    <glyph glyph-name="g" unicode="g" horiz-adv-x="621" 
d="M614 16q0 -52 -29.5 -85t-75 -52.5t-101.5 -27t-108 -7.5q-45 0 -94 5.5t-90 19.5t-68 37.5t-27 60.5q0 18 6.5 30.5t17.5 21t25.5 14t29.5 10.5l25 7l-17 10q-26 14 -39.5 33t-14.5 46q-1 35 21.5 56.5t54.5 38.5l20 12l-17 9q-18 10 -32.5 19.5t-24.5 22t-15.5 30.5
t-5.5 45q0 42 23.5 72t59.5 49t78.5 28t80.5 9q34 0 59.5 -2.5t58.5 -14.5l22 -7l-10 15q-13 19 -17 33t-4 40q0 23 8.5 41t23 30t33.5 18t39 6q42 0 65 -23t22 -56q0 -31 -20.5 -46t-46.5 -15q-10 0 -17 3t-15 9l-11 9q-5 -10 -8 -19t-3 -20q2 -34 29 -55l14 -11
q21 -17 31.5 -37t10.5 -49q0 -42 -21.5 -72.5t-57 -50t-79.5 -28.5t-89 -9h-29.5t-29.5 2l-16 2q-10 1 -19.5 -0.5t-11.5 -12.5q-2 -8 2.5 -14.5t12.5 -11t18.5 -7t19.5 -3.5l34 -3q52 -4 108 -8t103 -18t77.5 -43.5t30.5 -85.5zM371 375q0 35 -17.5 52t-48.5 17
q-66 0 -66 -69q0 -34 15.5 -50.5t50.5 -16.5q66 0 66 67zM438 -15q0 15 -9.5 23t-24.5 11t-32.5 3t-32.5 1l-41 2q-15 0 -26.5 1t-25.5 3q-9 1 -16.5 1.5t-16.5 2.5l-9 -7q-19 -16 -19 -40q1 -16 13 -26.5t30 -17t39.5 -9t41.5 -2.5t42.5 2t41.5 8t32 16.5t13 27.5z" />
    <glyph glyph-name="h" unicode="h" horiz-adv-x="747" 
d="M411 0v93h29q7 0 11.5 2.5t9.5 6.5q8 6 8.5 15t0.5 20v173q0 90 -71 90q-49 0 -77 -46t-28 -124v-80q0 -12 1.5 -22t9.5 -19q7 -10 15.5 -13t19.5 -3h19v-93h-326v93h45q19 0 31 13q6 7 8.5 16t2.5 20v531q0 11 -2 19.5t-8 16.5q-13 13 -31 13h-45v89h261v-388
q10 22 27 41.5t40 34t51 23t58 8.5t60.5 -10.5t55 -30t40 -48.5t15.5 -65v-227q0 -26 15 -42q8 -10 14.5 -12t19.5 -2h37v-93h-317z" />
    <glyph glyph-name="i" unicode="i" horiz-adv-x="410" 
d="M334 715q0 -24 -9 -45.5t-25 -37.5t-37.5 -25t-45.5 -9t-45.5 9t-37.5 25t-25 37.5t-9 45.5t9 45.5t25 37.5t37.5 25t45.5 9t45.5 -9t37.5 -25t25 -37.5t9 -45.5zM39 0v93h45q20 0 30 13q7 7 9.5 16t2.5 20v232q0 11 -2 19.5t-9 16.5q-11 13 -30 13h-45v89h260v-357
q0 -14 1 -24.5t9 -20.5q13 -17 36 -17h37v-93h-344z" />
    <glyph glyph-name="j" unicode="j" horiz-adv-x="378" 
d="M333 715q0 -24 -9.5 -45.5t-25 -37t-37 -25t-45.5 -9.5t-45.5 9.5t-37 25t-25 37t-9.5 45.5t9.5 45.5t25 37t37 25t45.5 9.5t45.5 -9.5t37 -25t25 -37t9.5 -45.5zM313 49q0 -38 -9 -75t-29.5 -66t-54.5 -47t-84 -18q-38 0 -68 10t-51 26.5t-32.5 39t-11.5 47.5
q0 42 25 64.5t62 22.5q26 0 47.5 -17t21.5 -46q0 -15 -8.5 -25.5t-21.5 -16.5q2 -7 7 -12t12.5 -8.5t21.5 -3.5q23 0 33 20.5t10 44.5q0 20 -4.5 35.5t-13.5 34.5l-20 38q-6 11 -9 20.5t-6 23.5q-2 13 -1.5 27t0.5 31v175q0 11 -2 19.5t-9 16.5q-13 13 -30 13h-59v89h274
v-291q0 -26 1.5 -46.5t3.5 -40t3.5 -40t1.5 -45.5z" />
    <glyph glyph-name="k" unicode="k" horiz-adv-x="755" 
d="M410 0v93h23q16 0 21 12q5 8 3 16t-7 15l-74 113l-58 -33q-6 -4 -11 -8t-10 -11q-6 -9 -6 -22v-32q0 -12 3 -22t12 -17q8 -8 15 -9.5t16 -1.5h24v-93h-328v93h45q19 0 31 13q6 7 8.5 16t2.5 20v531q0 11 -2 19.5t-8 16.5q-13 13 -31 13h-45v89h258v-511l143 89q6 2 9.5 9
t0.5 14q-3 9 -9 10t-12 1h-20v89h316v-89h-33q-12 0 -20.5 -1t-19.5 -3q-13 -3 -21.5 -8t-19.5 -12l-92 -59l131 -188q9 -14 19 -26.5t23 -18.5q12 -7 21 -10.5t23 -3.5h13v-93h-334z" />
    <glyph glyph-name="l" unicode="l" horiz-adv-x="401" 
d="M33 0v93h45q19 0 31 13q6 7 8.5 16t2.5 20v531q0 11 -2 19.5t-8 16.5q-13 13 -31 13h-45v89h260v-650q0 -15 1 -28t9 -23q13 -17 36 -17h37v-93h-344z" />
    <glyph glyph-name="m" unicode="m" horiz-adv-x="1091" 
d="M759 0v93h29q10 0 21 9q8 6 8.5 15t0.5 20v173q0 90 -71 90q-49 0 -77.5 -46t-28.5 -124v-80q0 -12 1.5 -22t8.5 -19q8 -10 16 -13t20 -3h19v-93h-292v93h29q10 0 21 9q8 6 8.5 15t0.5 20v173q0 90 -70 90q-49 0 -78 -46t-29 -124v-80q0 -12 1.5 -22t9.5 -19
q7 -10 15.5 -13t19.5 -3h19v-93h-322v93h45q20 0 30 13q7 7 9.5 16t2.5 20v232q0 11 -2 19.5t-9 16.5q-11 13 -30 13h-45v89h253v-111q8 29 26.5 52.5t43 40.5t54.5 26.5t60 9.5q61 0 94.5 -23.5t50.5 -71.5l7 -18l15 25q29 48 69 68t101 20q30 0 60.5 -10.5t55 -30
t40 -48.5t15.5 -65v-207q0 -17 1.5 -32.5t9.5 -26.5q14 -17 38 -17h36v-93h-311z" />
    <glyph glyph-name="n" unicode="n" horiz-adv-x="754" 
d="M417 0v93h29q10 0 21 9q8 6 8.5 15t0.5 20v173q0 90 -71 90q-49 0 -78 -46t-29 -124v-80q0 -12 1.5 -22t9.5 -19q7 -10 15.5 -13t19.5 -3h19v-93h-324v93h45q20 0 30 13q7 7 9.5 16t2.5 20v232q0 11 -2 19.5t-9 16.5q-11 13 -30 13h-46v89h254v-111q8 28 26.5 52t43.5 41
t54.5 26.5t59.5 9.5t60.5 -10.5t55 -30t40 -48.5t15.5 -65v-207q0 -17 1.5 -32.5t9.5 -26.5q14 -17 38 -17h36v-93h-316z" />
    <glyph glyph-name="o" unicode="o" horiz-adv-x="653" 
d="M622 271q0 -59 -22.5 -111t-62.5 -90.5t-94.5 -60.5t-117.5 -22q-64 0 -118 22t-93 59.5t-61 87t-22 104.5q0 61 24 112.5t65 89t95.5 58t116.5 20.5q63 0 116 -20.5t92 -56.5t60.5 -85t21.5 -107zM422 262q0 43 -4 77t-14.5 58t-29 36.5t-47.5 12.5t-47.5 -14t-29 -38.5
t-15 -58.5t-4.5 -73q0 -87 19.5 -135t76.5 -48q29 0 47.5 14.5t29 39t14.5 58t4 71.5z" />
    <glyph glyph-name="p" unicode="p" horiz-adv-x="703" 
d="M671 267q0 -70 -17.5 -121.5t-48.5 -85.5t-73 -51t-91 -17q-51 0 -91.5 17t-63.5 64v-67q0 -20 2 -38.5t9 -27.5q14 -17 37 -17h68v-80h-386v80h56q19 0 31 12q11 14 11 36v403q0 11 -2 19.5t-8 16.5q-13 13 -31 13h-58v89h266v-68q28 42 70 66.5t99 24.5
q47 0 87.5 -18.5t70 -53.5t46.5 -84.5t17 -111.5zM472 261q0 24 -5 49.5t-15.5 46t-27.5 33.5t-42 14q-26 1 -44.5 -11t-30.5 -32t-17.5 -47t-5.5 -56q0 -77 25 -109.5t74 -32.5q27 0 44 12t27 32.5t14 46.5t4 54z" />
    <glyph glyph-name="q" unicode="q" horiz-adv-x="685" 
d="M301 -157v80h68q23 0 37 17q7 9 8.5 27.5t1.5 38.5v73q-26 -36 -64.5 -61.5t-91.5 -25.5t-95.5 21.5t-72 59t-45.5 87.5t-16 107q0 63 19 113t54 84.5t84 53t109 18.5q35 0 62.5 -8.5t48.5 -22.5t37 -32.5t29 -39.5l33 97h82v-559q0 -11 2 -19.5t9 -16.5q12 -12 30 -12
h57v-80h-386zM418 260q0 34 -4.5 64.5t-16 53t-30 36t-46.5 13.5q-27 0 -45.5 -15.5t-29 -39.5t-15 -53t-4.5 -56q0 -28 4.5 -54t15.5 -46.5t28.5 -32.5t44.5 -12q41 0 69.5 32.5t28.5 109.5z" />
    <glyph glyph-name="r" unicode="r" horiz-adv-x="609" 
d="M605 398q0 -26 -8 -47t-22.5 -37t-34.5 -24.5t-43 -8.5q-35 0 -58.5 19t-23.5 48q0 32 24 52q-1 5 -5 9t-11.5 7t-21.5 3q-20 0 -38.5 -13t-32.5 -34t-22 -47.5t-8 -52.5v-96q0 -20 0.5 -38t8.5 -28q13 -17 37 -17h80v-93h-387v93h45q20 0 30 13q7 7 9.5 16t2.5 20v232
q0 11 -2 19.5t-9 16.5q-11 13 -30 13h-45v89h252v-78l18 23q30 38 63.5 55.5t85.5 17.5q31 0 57.5 -9t46 -26.5t31 -42t11.5 -54.5z" />
    <glyph glyph-name="s" unicode="s" horiz-adv-x="554" 
d="M528 173q0 -45 -20 -79t-52.5 -57.5t-74 -36t-84.5 -12.5q-66 0 -116 22l-17 8q-10 4 -14.5 6.5t-12.5 0.5q-20 -5 -22 -25h-67v189h93l2 -16q2 -16 11.5 -33t26.5 -31t40 -22.5t52 -7.5q14 0 28.5 3t26 9t18.5 15.5t7 23.5t-7.5 23t-18.5 15t-25 10t-27 7l-95 21
q-32 7 -59 19t-46.5 30.5t-30.5 44.5t-11 61q0 40 15.5 72.5t43.5 55.5t66.5 36t82.5 13q32 0 55.5 -4t53.5 -15l25 -10q8 -3 14 -6t14 -1q11 2 17.5 9.5t6.5 18.5h65v-179h-96l-3 18q-2 16 -13 30.5t-28 25t-38.5 16.5t-43.5 6q-32 0 -53 -11.5t-21 -36.5q0 -12 6 -20
t15 -14t20.5 -9.5t23.5 -5.5l131 -29q29 -6 54 -19t43.5 -31.5t28.5 -43t10 -54.5z" />
    <glyph glyph-name="t" unicode="t" horiz-adv-x="490" 
d="M452 143q0 -72 -48.5 -113.5t-140.5 -41.5q-44 0 -75.5 14t-52 38t-30 55.5t-9.5 66.5v259h-89v91h53q23 0 39.5 7t33.5 28q8 11 12.5 36.5t6.5 52.5q3 32 3 69h116v-193h158v-91h-159v-267q0 -37 15 -52t35 -15q10 0 20 4t17.5 13t12.5 24.5t5 39.5v81h77v-106v0z" />
    <glyph glyph-name="u" unicode="u" horiz-adv-x="727" 
d="M461 0v94l-15 -24q-22 -35 -68 -58.5t-101 -23.5q-35 0 -66 7.5t-54.5 25t-37.5 45.5t-14 69v209q0 17 -2 33t-10 25q-14 17 -38 17h-36v93h259v-316q0 -16 5 -30.5t14.5 -26t23 -18.5t29.5 -7q45 0 75 36t30 108v78q0 20 -0.5 38.5t-7.5 27.5q-15 16 -37 16h-47v94h266
v-374q0 -11 1.5 -19.5t8.5 -15.5q12 -13 31 -13h37v-90h-246z" />
    <glyph glyph-name="v" unicode="v" horiz-adv-x="631" 
d="M624 423q-15 0 -28.5 -3.5t-21.5 -13.5q-10 -14 -14.5 -26.5t-9.5 -28.5l-141 -351h-203l-130 350q-5 14 -8.5 25t-13.5 23q-8 10 -19.5 17.5t-26.5 7.5h-8v89h313v-89h-14q-11 0 -21 -1t-15 -10q-5 -8 -3.5 -16t4.5 -17l87 -250l95 250q3 9 4.5 17t-3.5 16
q-5 9 -15.5 10t-21.5 1h-14v89h235v-89h-7z" />
    <glyph glyph-name="w" unicode="w" horiz-adv-x="995" 
d="M992 423q-15 0 -28 -3.5t-21 -13.5q-10 -14 -14.5 -26.5t-10.5 -28.5l-141 -351h-186l-94 256l-97 -256h-184l-141 350q-5 15 -10 25t-15 23q-8 10 -20 17.5t-27 7.5h-13v89h319v-89h-15q-11 0 -21.5 -1.5t-15.5 -11.5q-4 -8 -2.5 -15.5t4.5 -15.5l91 -250l85 250
q2 8 4 15.5t-2 15.5q-5 10 -15.5 11.5t-21.5 1.5h-20v89h317v-89h-29q-11 0 -21.5 -1t-15.5 -10q-5 -8 -3.5 -16t4.5 -17l91 -230l91 230q4 9 5 17t-4 16q-5 9 -15 10t-21 1h-14v89h241v-89h-14z" />
    <glyph glyph-name="x" unicode="x" horiz-adv-x="689" 
d="M328 0v90h20q6 0 12 2t8 9q3 13 -7 25l-71 77l-62 -80q-9 -12 -5 -22q4 -11 19 -11h23v-90h-237v90h26q12 0 19.5 4.5t16.5 13.5q11 9 18.5 17.5t17.5 20.5l103 124l-90 99q-8 10 -15.5 18t-17.5 19q-19 17 -50 17h-15v89h327v-89h-15q-7 0 -13.5 -2t-9.5 -10
q-2 -6 0 -14t7 -13l57 -64l56 70q3 5 5 11.5t0 11.5q-2 7 -7.5 8.5t-12.5 1.5h-14v89h228v-89h-21q-9 0 -14 -1.5t-16 -8.5q-7 -4 -12.5 -9.5t-10.5 -12.5l-119 -140l96 -107q9 -11 16.5 -18t18.5 -16q9 -8 23 -14t31 -6h19v-90h-332z" />
    <glyph glyph-name="y" unicode="y" horiz-adv-x="604" 
d="M596 423q-15 0 -28 -3.5t-21 -13.5q-11 -14 -15 -26.5t-10 -28.5l-132 -345q-12 -33 -32 -62.5t-46.5 -52t-57.5 -36t-64 -13.5q-37 0 -69 9t-55.5 25.5t-37 41t-13.5 56.5q0 16 6 31t16 27t24 19.5t31 7.5q26 0 46 -16.5t20 -42.5q0 -15 -6.5 -27.5t-22.5 -19.5l-9 -3
l8 -9q9 -11 20.5 -12.5t25.5 -1.5q32 0 52 22.5t31 54.5l8 21h-62l-127 325q-5 14 -8.5 25t-13.5 23q-8 10 -19.5 17.5t-26.5 7.5h-8v89h309v-89h-20q-11 0 -21.5 -1t-15.5 -10q-5 -8 -3 -16t4 -17l88 -250l77 250q3 9 4.5 17t-3.5 16t-13.5 9.5t-17.5 1.5h-15v89h231v-89
h-8z" />
    <glyph glyph-name="z" unicode="z" horiz-adv-x="595" 
d="M38 0v105l290 324h-110q-25 0 -37.5 -9.5t-20.5 -17.5q-8 -9 -13.5 -22t-5.5 -39v-35h-94v206h510v-102l-303 -328h99q26 0 49.5 6t35.5 20q7 8 11.5 14t6.5 13t3 15.5t1 21.5v38h101v-210h-523z" />
    <glyph glyph-name="braceleft" unicode="{" horiz-adv-x="560" 
d="M350 -157q-40 0 -68.5 12.5t-56.5 39.5q-29 28 -36.5 61t-7.5 75v179q0 34 -25 56q-13 11 -26.5 14t-30.5 3h-49v96h49q17 0 30.5 3t26.5 14q25 21 25 56v170q0 42 8 76t38 63q28 27 56 38.5t67 11.5h170v-83h-66q-11 0 -29.5 -5.5t-31.5 -18.5q-16 -16 -18.5 -32
t-2.5 -38v-96v-48.5t-3 -45t-11.5 -40t-24.5 -32.5q-25 -20 -53.5 -24t-63.5 -4l-50 -1v-14l50 -1q20 0 39 -1t36 -5t31.5 -13t26.5 -25q9 -13 13.5 -31.5t7 -40.5t2.5 -46v-49v-98q0 -22 2.5 -38t18.5 -31q13 -14 31 -18.5t30 -4.5h66v-84h-170z" />
    <glyph glyph-name="bar" unicode="|" horiz-adv-x="474" 
d="M180 -213v1070h117v-1070h-117z" />
    <glyph glyph-name="braceright" unicode="}" horiz-adv-x="560" 
d="M474 283q-17 0 -30.5 -3.5t-26.5 -13.5q-25 -21 -25 -56v-179q0 -42 -8 -74t-37 -60q-28 -27 -56.5 -40.5t-67.5 -13.5h-170v84h66q12 0 30 4.5t31 18.5q16 15 18.5 31t2.5 38v98v48.5t1.5 45t6.5 40t16 33.5q11 16 25.5 25t31.5 13t36 5t39 1l51 1v14l-51 1
q-35 0 -63.5 4t-53.5 24q-17 14 -25 32.5t-11 40t-3 45v48.5v96q0 22 -2.5 38t-18.5 32q-13 13 -31.5 18.5t-29.5 5.5h-66v83h170q39 0 67.5 -12.5t56.5 -39.5q30 -29 37.5 -62t7.5 -75v-170q0 -17 5.5 -31t19.5 -25q13 -10 26.5 -13.5t30.5 -3.5h50v-96h-50z" />
    <glyph glyph-name="asciitilde" unicode="~" horiz-adv-x="469" 
d="M411 710q0 -20 -5 -40t-15 -36t-25.5 -26t-35.5 -10q-17 0 -29 3t-22 8t-20 11.5t-22 14.5l-47 32q-14 9 -26 16.5t-29 7.5t-22.5 -15t-5.5 -32v-27h-52v59q0 20 5 40.5t15.5 36.5t26 26t35.5 10q17 0 29 -3t22 -8t20 -12t22 -15l46 -31q14 -9 26 -17t29 -8t23 15.5
t6 32.5v27h51v-60v0z" />
    <glyph glyph-name="Zcaron" horiz-adv-x="880" 
d="M57 0v150l497 553h-195q-12 0 -29.5 -3t-35 -9t-34 -14t-27.5 -18q-25 -23 -35 -52t-10 -55v-64h-126v323h767v-144l-501 -558h221q25 0 55 8t56 33q24 23 31.5 52.5t7.5 55.5v62h131v-320h-773zM482 842h-87l-170 167h80l134 -83l134 83h80z" />
    <glyph glyph-name="zcaron" horiz-adv-x="595" 
d="M38 0v105l290 324h-110q-25 0 -37.5 -9.5t-20.5 -17.5q-8 -9 -13.5 -22t-5.5 -39v-35h-94v206h510v-102l-303 -328h99q26 0 49.5 6t35.5 20q7 8 11.5 14t6.5 13t3 15.5t1 21.5v38h101v-210h-523zM345 554h-87l-170 167h80l134 -83l134 83h80z" />
    <glyph glyph-name="nonbreakingspace" unicode="&#xa0;" horiz-adv-x="95" 
 />
    <glyph glyph-name="exclamdown" unicode="&#xa1;" horiz-adv-x="366" 
d="M302 495q0 -24 -9.5 -45.5t-25 -37.5t-36.5 -25.5t-44 -9.5q-24 0 -46.5 8.5t-39 23.5t-26.5 36t-10 45q0 25 9.5 46.5t26 38t38.5 26t47 9.5q24 0 45 -9t37 -24.5t25 -36.5t9 -45zM281 -86q0 -71 -24 -107.5t-76 -36.5t-76 34.5t-24 109.5q0 28 3 51t7.5 44.5t9.5 44
t10 49.5l12 60q4 20 5 35t2 34q2 28 2.5 47.5t0.5 48.5h96q0 -29 0.5 -48.5t1.5 -47.5q2 -19 3 -34t5 -35l11 -60q5 -27 10.5 -49.5t10 -44t7.5 -44.5t3 -51z" />
    <glyph glyph-name="cent" unicode="&#xa2;" horiz-adv-x="594" 
d="M570 266q0 -83 -75 -138q-32 -25 -61 -33t-64 -11l-12 -1v-92h-89v97l-8 2q-109 27 -163 96t-54 170q0 58 18.5 103.5t48.5 78t67.5 52.5t75.5 28l15 3v69h89v-63l10 -1q36 -4 70.5 -16t61.5 -32t43 -48.5t16 -64.5q0 -25 -7.5 -47t-22 -38.5t-36 -26t-50.5 -9.5
q-19 0 -36.5 6.5t-30.5 18.5t-21 28t-8 34q0 25 12.5 42.5t33.5 27.5l-3 9q-2 6 -13.5 18t-40.5 12q-27 0 -44.5 -12.5t-27.5 -34.5t-13.5 -53t-3.5 -67q0 -38 4 -73t15 -61.5t32 -42.5t56 -16q25 0 42 8.5t28 22.5t16.5 32.5t7.5 38.5h122v-16v0z" />
    <glyph glyph-name="sterling" unicode="&#xa3;" horiz-adv-x="764" 
d="M714 223q0 -41 -6.5 -83t-23.5 -75.5t-47 -54.5t-77 -21q-36 0 -64.5 6.5t-51 19t-42 30.5t-37.5 40l-11 12l-13 -23q-25 -43 -60 -64.5t-83 -21.5q-33 0 -63.5 11t-54 31t-37.5 48t-14 61q0 28 11.5 54t32 45t47.5 30.5t59 11.5q25 0 39 -4t35 -12l14 -5q0 8 -0.5 13
t-1.5 12q-2 9 -3.5 16.5t-3.5 16.5h-172v89h91l-25 26q-32 36 -49.5 70.5t-17.5 82.5q0 57 26.5 102t70 76t99 47.5t114.5 16.5q62 0 117 -15.5t96 -45t65 -72t24 -96.5q0 -33 -12 -60t-32 -46.5t-46.5 -30.5t-55.5 -11q-23 0 -44.5 8t-38 22.5t-26.5 34.5t-10 44
q0 14 4.5 29t14.5 27t25 19.5t36 7.5h15l-3 21q-5 33 -33 48t-61 15q-57 0 -93 -36.5t-36 -110.5q0 -42 7 -72t22 -69l13 -32h183v-89h-149l3.5 -24.5t2.5 -25.5q0 -13 -0.5 -22.5t-1.5 -21.5l14 -9q8 -5 25 -14t39 -18.5t47 -16.5t48 -7q18 0 29 6t17 15.5t8 22t2 25.5v48
h104v-52v0zM252 176q-17 10 -29.5 13.5t-31.5 3.5q-25 -1 -45.5 -16.5t-19.5 -41.5q1 -23 19 -38t42 -15q34 0 56 18.5t26 49.5l1 16z" />
    <glyph glyph-name="currency" unicode="&#xa4;" 
d="M621 310q0 -55 -21.5 -103t-58 -84t-85.5 -56.5t-104 -20.5t-103 21.5t-84 58t-56.5 85t-20.5 103.5t21.5 103.5t58 84.5t85 56.5t103.5 20.5t103.5 -21.5t84.5 -58t56.5 -85.5t20.5 -104zM472 417l-95 -55l80 139h-223l71 -175l-139 13l32 -128l130 37l-61 -117l186 2
l-66 118l123 -19z" />
    <glyph glyph-name="yen" unicode="&#xa5;" horiz-adv-x="857" 
d="M792 722q-11 0 -20.5 -4.5t-15.5 -9.5q-12 -12 -25 -36l-61 -112h132v-93h-181l-65 -120h246v-96h-274v-72q0 -21 2 -35t9 -25q8 -12 19 -19t26 -7h81v-93h-483v93h81q28 0 46 26q7 11 8.5 25t1.5 35v72h-266v96h238l-64 120h-174v93h126l-62 113q-9 18 -15 23t-14 12
q-8 6 -16 10t-25 4h-23v89h380v-89h-43q-23 0 -32 -17q-8 -11 -3.5 -23t9.5 -24l130 -260l142 268q5 10 7.5 19.5t-3.5 20.5q-9 16 -29 16h-36v89h288v-89h-42z" />
    <glyph glyph-name="brokenbar" unicode="&#xa6;" 
d="M621 310q0 -55 -21.5 -103t-58 -84t-85.5 -56.5t-104 -20.5t-103 21.5t-84 58t-56.5 85t-20.5 103.5t21.5 103.5t58 84.5t85 56.5t103.5 20.5t103.5 -21.5t84.5 -58t56.5 -85.5t20.5 -104zM472 417l-95 -55l80 139h-223l71 -175l-139 13l32 -128l130 37l-61 -117l186 2
l-66 118l123 -19z" />
    <glyph glyph-name="section" unicode="&#xa7;" horiz-adv-x="630" 
d="M568 354q0 -28 -7.5 -50t-19 -38.5t-26 -27t-27.5 -14.5l-33 -12l21 -14q31 -21 46 -52.5t15 -87.5q0 -38 -19 -71.5t-51.5 -59t-76.5 -40.5t-94 -15q-38 0 -77.5 9.5t-72 28t-53.5 46t-21 62.5q0 19 7 36.5t19 30.5t28.5 21t35.5 8q31 0 56.5 -15.5t25.5 -50.5
q0 -29 -9 -44t-23 -18l-18 -6q20 -26 46 -35t57 -8q35 1 62 18t28 57q0 19 -4.5 32t-12.5 22.5t-19.5 16.5t-24.5 13l-111 53q-22 10 -51 21t-55.5 30.5t-44.5 50t-18 79.5q0 94 76 138l25 14l-21 18q-30 26 -38 55t-8 74q0 38 17.5 71.5t48.5 58.5t74 39.5t93 14.5
q38 0 77 -9.5t71 -28t52 -46t20 -62.5q0 -19 -7 -36.5t-19 -31t-28.5 -21.5t-34.5 -8q-31 0 -56.5 16t-25.5 51q0 28 8.5 43t22.5 19l18 5q-16 26 -42 35.5t-57 9.5q-33 0 -58.5 -17.5t-26.5 -59.5q0 -19 4 -32t12 -22t19.5 -16t25.5 -13l110 -53q22 -10 51.5 -21.5
t55.5 -30.5t44.5 -50t18.5 -80zM442 298q0 13 -10.5 26t-27.5 25t-37.5 22.5t-39.5 18.5l-69 31q-7 3 -13 6.5t-13 5.5q-6 3 -12 6.5t-12 7.5l-16 -8q-14 -7 -23 -16.5t-9 -27.5q0 -14 9 -25t23.5 -21t31.5 -18.5t34 -16.5l86 -42q6 -2 12.5 -5.5t13.5 -6.5q6 -3 12 -6.5
t12 -6.5l16 7q14 8 23 17t9 27z" />
    <glyph glyph-name="dieresis" unicode="&#xa8;" horiz-adv-x="669" 
d="M536 656q0 -34 -23.5 -57.5t-57.5 -23.5t-57.5 23.5t-23.5 57.5t23.5 57.5t57.5 23.5t57.5 -23.5t23.5 -57.5zM291 656q0 -34 -23.5 -57.5t-57.5 -23.5q-33 0 -56.5 23.5t-23.5 57.5t23.5 57.5t56.5 23.5q34 0 57.5 -23.5t23.5 -57.5z" />
    <glyph glyph-name="copyright" unicode="&#xa9;" horiz-adv-x="1051" 
d="M997 369q0 -97 -37 -182.5t-100.5 -149.5t-149 -101t-182.5 -37t-182.5 37t-149.5 101t-101 149.5t-37 182.5t37 182.5t101 149t149.5 100.5t182.5 37t182.5 -37t149 -100.5t100.5 -149t37 -182.5zM927 367q0 82 -31.5 155t-85.5 127t-127 85.5t-155 31.5
q-83 0 -155.5 -31.5t-126.5 -85.5t-85.5 -127t-31.5 -155q0 -83 31.5 -155.5t85.5 -126.5t126.5 -85.5t155.5 -31.5q82 0 155 31.5t127 85.5t85.5 126.5t31.5 155.5zM759 281q0 -26 -11.5 -60.5t-38.5 -65.5t-71 -52.5t-109 -21.5q-63 0 -114 22.5t-87.5 61t-56.5 90
t-20 109.5t21 110t58.5 91t89 61.5t111.5 22.5q15 0 29.5 -3t28 -7t23.5 -8t16 -5l19 -6q8 -2 13.5 -2.5t11.5 3.5q16 10 13 28h60l1 -216h-84l-1 16q-1 21 -9 43t-23.5 39.5t-40 28.5t-59.5 11q-62 0 -87 -55t-25 -146q0 -101 30 -157.5t96 -56.5q35 0 59 13t39 31.5
t21.5 40.5t6.5 40v28h90v-28v0z" />
    <glyph glyph-name="ordfeminine" unicode="&#xaa;" horiz-adv-x="693" 
d="M639 496q0 -54 -36 -82.5t-95 -28.5q-35 0 -62.5 9.5t-47.5 38.5l-11 17l-15 -15q-30 -30 -66 -40t-72 -10q-79 0 -118 32.5t-39 87.5q0 35 19 55.5t45.5 31t54.5 13.5t45 5l49 6q18 2 35 5t31 10.5t22.5 21t8.5 37.5q0 38 -15.5 58.5t-59.5 20.5q-33 0 -45 -11.5
t-18 -21.5q14 -5 23 -14.5t9 -27.5q0 -14 -7.5 -26t-19.5 -20t-27 -12.5t-30 -4.5q-35 0 -61 20.5t-26 58.5q0 28 18 50t49 37t70.5 23t83.5 8q34 0 70 -6.5t65.5 -21.5t48 -39t18.5 -58v-201q0 -11 3.5 -21t20.5 -10t21.5 11t4.5 24l2 41h54v-51v0zM99 270v73h488v-73h-488
zM383 595q-9 -4 -16 -8t-16 -7q-9 -4 -17 -6.5t-19 -4.5l-19 -5q-26 -7 -39.5 -17.5t-13.5 -32.5q0 -20 15 -34.5t35 -14.5q19 0 35.5 7t28.5 19t19 28t7 34v42z" />
    <glyph glyph-name="guillemotleft" unicode="&#xab;" horiz-adv-x="802" 
d="M353 231v62l398 238v-77l-221 -191l221 -193v-76zM50 231v62l399 238v-77l-221 -191l221 -193v-76z" />
    <glyph glyph-name="logicalnot" unicode="&#xac;" 
d="M621 310q0 -55 -21.5 -103t-58 -84t-85.5 -56.5t-104 -20.5t-103 21.5t-84 58t-56.5 85t-20.5 103.5t21.5 103.5t58 84.5t85 56.5t103.5 20.5t103.5 -21.5t84.5 -58t56.5 -85.5t20.5 -104zM472 417l-95 -55l80 139h-223l71 -175l-139 13l32 -128l130 37l-61 -117l186 2
l-66 118l123 -19z" />
    <glyph glyph-name="registered" unicode="&#xae;" horiz-adv-x="1051" 
d="M997 369q0 -97 -37 -182.5t-100.5 -149.5t-149 -101t-182.5 -37t-182.5 37t-149.5 101t-101 149.5t-37 182.5t37 182.5t101 149t149.5 100.5t182.5 37t182.5 -37t149 -100.5t100.5 -149t37 -182.5zM927 367q0 82 -31.5 155t-85.5 127t-127 85.5t-155 31.5
q-83 0 -155.5 -31.5t-126.5 -85.5t-85.5 -127t-31.5 -155q0 -83 31.5 -155.5t85.5 -126.5t126.5 -85.5t155.5 -31.5q82 0 155 31.5t127 85.5t85.5 126.5t31.5 155.5zM833 233q0 -35 -8 -57t-23.5 -34t-38 -16.5t-50.5 -4.5q-53 0 -81.5 20t-32.5 69l-3 37q-2 23 -4.5 42
t-13.5 35t-23 21t-37 5h-51v-105q0 -25 8 -36q12 -16 34 -16h28v-58h-282v58h31q21 0 33 16q5 6 6.5 14.5t1.5 21.5v268q0 13 -1.5 21.5t-6.5 15.5q-12 15 -33 15h-31v58h337q86 0 137.5 -34.5t51.5 -93.5q0 -33 -12 -55.5t-30 -37.5t-39.5 -22.5t-39.5 -9.5l-22 -3l18 -5
q13 -4 25 -10t25 -20q17 -17 22 -33.5t5 -39.5v-31q0 -17 4.5 -27.5t18.5 -10.5q17 0 23 13t6 35v17h48v-22v0zM625 487q0 38 -27.5 59.5t-63.5 21.5h-26q-20 0 -33 -17q-8 -11 -8 -35v-109h58q54 0 77 18.5t23 61.5z" />
    <glyph glyph-name="macron" unicode="&#xaf;" horiz-adv-x="669" 
d="M158 607v86h346v-86h-346z" />
    <glyph glyph-name="degree" unicode="&#xb0;" horiz-adv-x="472" 
d="M427 642q0 -39 -15 -74t-41 -61t-61 -41t-74 -15t-74 15t-60.5 41t-40.5 61t-15 74t15 74t40.5 60.5t60.5 40.5t74 15t74 -15t61 -40.5t41 -60.5t15 -74zM331 642q0 19 -7.5 36.5t-20 30.5t-30 20.5t-37.5 7.5t-37 -7.5t-30 -20.5t-20.5 -30.5t-7.5 -36.5q0 -20 7.5 -37
t20.5 -30t30 -20.5t37 -7.5t37.5 7.5t30 20.5t20 30t7.5 37z" />
    <glyph glyph-name="plusminus" unicode="&#xb1;" horiz-adv-x="1247" 
d="M870 0v93h54q20 0 30 13q7 7 9.5 16t2.5 20v419l-15 8q-21 11 -31 31.5t-10 40.5q0 45 39 69q-8 11 -20 20q-11 8 -27.5 14.5t-39.5 6.5q-30 0 -55 -8t-44 -26t-29.5 -46t-10.5 -67v-92h128v-91h-129v-245q0 -20 0.5 -38t7.5 -28q14 -17 38 -17h80v-93h-397v93h55
q18 0 30 13q8 8 10 16.5t2 19.5v279h-250v-245q0 -20 0.5 -38t8.5 -28q13 -17 37 -17h53v-93h-373v93h58q18 0 30 13q8 8 10 16.5t2 19.5v279h-95v91h62q9 0 16.5 3.5t11.5 7.5t6 11t2 15v31q0 125 80 186.5t225 61.5q60 0 114.5 -7t89.5 -35q28 16 79 29t135 13
q56 0 102.5 -6.5t74.5 -14.5l113 4v-635q0 -20 1 -38t9 -28q13 -17 36 -17h37v-93h-353zM550 562q-26 8 -42.5 29.5t-16.5 52.5q0 20 11.5 38t28.5 28q-14 20 -36 30t-57 10q-39 0 -65.5 -13t-43 -33t-23.5 -43t-7 -44v-105h216q9 0 16.5 3.5t11.5 7.5t5.5 11t1.5 15v13z
" />
    <glyph glyph-name="twosuperior" unicode="&#xb2;" 
d="M621 310q0 -55 -21.5 -103t-58 -84t-85.5 -56.5t-104 -20.5t-103 21.5t-84 58t-56.5 85t-20.5 103.5t21.5 103.5t58 84.5t85 56.5t103.5 20.5t103.5 -21.5t84.5 -58t56.5 -85.5t20.5 -104zM472 417l-95 -55l80 139h-223l71 -175l-139 13l32 -128l130 37l-61 -117l186 2
l-66 118l123 -19z" />
    <glyph glyph-name="threesuperior" unicode="&#xb3;" 
d="M621 310q0 -55 -21.5 -103t-58 -84t-85.5 -56.5t-104 -20.5t-103 21.5t-84 58t-56.5 85t-20.5 103.5t21.5 103.5t58 84.5t85 56.5t103.5 20.5t103.5 -21.5t84.5 -58t56.5 -85.5t20.5 -104zM472 417l-95 -55l80 139h-223l71 -175l-139 13l32 -128l130 37l-61 -117l186 2
l-66 118l123 -19z" />
    <glyph glyph-name="acute" unicode="&#xb4;" horiz-adv-x="669" 
d="M291 561h-81l148 176h141z" />
    <glyph glyph-name="mu" unicode="&#xb5;" 
d="M621 310q0 -55 -21.5 -103t-58 -84t-85.5 -56.5t-104 -20.5t-103 21.5t-84 58t-56.5 85t-20.5 103.5t21.5 103.5t58 84.5t85 56.5t103.5 20.5t103.5 -21.5t84.5 -58t56.5 -85.5t20.5 -104zM472 417l-95 -55l80 139h-223l71 -175l-139 13l32 -128l130 37l-61 -117l186 2
l-66 118l123 -19z" />
    <glyph glyph-name="paragraph" unicode="&#xb6;" horiz-adv-x="898" 
d="M772 724q-17 0 -28.5 -6.5t-21.5 -19.5q-9 -11 -10.5 -25t-1.5 -35v-651h-70v703q0 18 -9 32.5t-35 14.5t-36 -14t-10 -33v-703h-68v329h-129q-50 0 -98 19t-85.5 52t-60 78.5t-21.5 98.5q1 58 28.5 102t71.5 73.5t100 44t113 14.5h419v-74h-48zM482 629q0 20 -2 41
t-10 32q-11 14 -22 23.5t-29 9.5h-19q-29 0 -49.5 -15t-33 -38.5t-19 -53t-6.5 -58.5q-1 -31 2.5 -63.5t16.5 -59t37.5 -43.5t65.5 -17h68v242z" />
    <glyph glyph-name="periodcentered" unicode="&#xb7;" horiz-adv-x="392" 
d="M317 423q0 -24 -9 -45t-25 -36.5t-37 -24.5t-45 -9q-25 0 -47 9.5t-38.5 26t-26 38.5t-9.5 47q0 24 10 44.5t26.5 35.5t39 23.5t46.5 8.5q23 0 44 -9.5t36.5 -25.5t25 -37.5t9.5 -45.5z" />
    <glyph glyph-name="periodcentered" unicode="&#x2219;" horiz-adv-x="392" 
d="M317 423q0 -24 -9 -45t-25 -36.5t-37 -24.5t-45 -9q-25 0 -47 9.5t-38.5 26t-26 38.5t-9.5 47q0 24 10 44.5t26.5 35.5t39 23.5t46.5 8.5q23 0 44 -9.5t36.5 -25.5t25 -37.5t9.5 -45.5z" />
    <glyph glyph-name="cedilla" unicode="&#xb8;" horiz-adv-x="669" 
d="M459 -127q0 -23 -12.5 -39t-32 -26.5t-43.5 -15.5t-47 -5q-29 0 -49 5t-46 16l-33 14l17 48l29 -12q22 -9 39 -11.5t40 -2.5t32 9t9 20q0 13 -9 22t-24 8l-37 -2l24 89l40 -1l-8 -31l18 2q18 0 35 -4.5t29.5 -14.5t20.5 -26.5t8 -41.5z" />
    <glyph glyph-name="onesuperior" unicode="&#xb9;" 
d="M621 310q0 -55 -21.5 -103t-58 -84t-85.5 -56.5t-104 -20.5t-103 21.5t-84 58t-56.5 85t-20.5 103.5t21.5 103.5t58 84.5t85 56.5t103.5 20.5t103.5 -21.5t84.5 -58t56.5 -85.5t20.5 -104zM472 417l-95 -55l80 139h-223l71 -175l-139 13l32 -128l130 37l-61 -117l186 2
l-66 118l123 -19z" />
    <glyph glyph-name="ordmasculine" unicode="&#xba;" horiz-adv-x="651" 
d="M580 614q0 -52 -21 -94t-56.5 -72t-81.5 -46t-96 -16q-56 0 -102.5 15t-80 43.5t-52 69t-18.5 91.5q0 49 20.5 90t55.5 71t82.5 46.5t100.5 16.5q54 0 99.5 -15.5t79 -44t52 -68t18.5 -87.5zM99 270v73h455v-73h-455zM409 607q0 34 -3.5 61t-12.5 46t-25 29t-41 10
q-24 0 -40 -11t-25.5 -30.5t-13 -46.5t-3.5 -58q0 -70 16.5 -108.5t65.5 -38.5q25 0 41 11.5t25 31.5t12.5 47t3.5 57z" />
    <glyph glyph-name="guillemotright" unicode="&#xbb;" horiz-adv-x="802" 
d="M353 -6v76l221 193l-221 191v77l398 -238v-62zM50 -6v76l221 193l-221 191v77l399 -238v-62z" />
    <glyph glyph-name="onequarter" unicode="&#xbc;" 
d="M621 310q0 -55 -21.5 -103t-58 -84t-85.5 -56.5t-104 -20.5t-103 21.5t-84 58t-56.5 85t-20.5 103.5t21.5 103.5t58 84.5t85 56.5t103.5 20.5t103.5 -21.5t84.5 -58t56.5 -85.5t20.5 -104zM472 417l-95 -55l80 139h-223l71 -175l-139 13l32 -128l130 37l-61 -117l186 2
l-66 118l123 -19z" />
    <glyph glyph-name="onehalf" unicode="&#xbd;" 
d="M621 310q0 -55 -21.5 -103t-58 -84t-85.5 -56.5t-104 -20.5t-103 21.5t-84 58t-56.5 85t-20.5 103.5t21.5 103.5t58 84.5t85 56.5t103.5 20.5t103.5 -21.5t84.5 -58t56.5 -85.5t20.5 -104zM472 417l-95 -55l80 139h-223l71 -175l-139 13l32 -128l130 37l-61 -117l186 2
l-66 118l123 -19z" />
    <glyph glyph-name="threequarters" unicode="&#xbe;" 
d="M621 310q0 -55 -21.5 -103t-58 -84t-85.5 -56.5t-104 -20.5t-103 21.5t-84 58t-56.5 85t-20.5 103.5t21.5 103.5t58 84.5t85 56.5t103.5 20.5t103.5 -21.5t84.5 -58t56.5 -85.5t20.5 -104zM472 417l-95 -55l80 139h-223l71 -175l-139 13l32 -128l130 37l-61 -117l186 2
l-66 118l123 -19z" />
    <glyph glyph-name="questiondown" unicode="&#xbf;" horiz-adv-x="638" 
d="M487 493q0 -24 -10 -44t-27 -34.5t-39 -23t-46 -8.5q-23 0 -44 9t-37 24.5t-25 36.5t-9 45t9 44.5t25 35.5t37 23.5t45 8.5t46 -9t38.5 -25t26.5 -37t10 -46zM580 -35q0 -43 -19 -79t-52.5 -61.5t-78 -40t-95.5 -14.5q-52 0 -99.5 14t-84 40.5t-58 65t-21.5 86.5
q0 60 21 98t67 66l43 27q23 14 39 26.5t38 35.5q20 20 28.5 39t8.5 46v28h95v-47q0 -31 -7.5 -53t-23.5 -46q-14 -21 -28 -34.5t-29 -33.5l-35 -48q-10 -13 -15 -27.5t-7.5 -28.5t-3 -28t-0.5 -26q0 -53 21 -83t69 -30q30 0 54 15.5t29 45.5l3 14h-9q-32 0 -57 19.5
t-25 56.5q0 23 10 40.5t25 29.5t33.5 18t35.5 6q26 0 49 -9t40.5 -26t28 -42.5t10.5 -59.5z" />
    <glyph glyph-name="Agrave" unicode="&#xc0;" horiz-adv-x="963" 
d="M463 836l-230 158h156l162 -158h-88zM497 0v109h55q11 0 20 1.5t17 7.5q11 9 15.5 23t-0.5 29l-22 59h-299l-20 -54q-5 -13 -5.5 -25.5t7.5 -23.5q8 -12 19.5 -14.5t25.5 -2.5h56v-109h-356v109h31q18 0 27 3t17 10q19 16 27 42l246 647h242l242 -632q4 -10 11 -24.5
t20 -24.5q13 -11 24.5 -16t28.5 -5h26v-109h-455zM434 636l-111 -297h220z" />
    <glyph glyph-name="Aacute" unicode="&#xc1;" horiz-adv-x="963" 
d="M511 837h-88l163 157h155zM497 0v109h55q11 0 20 1.5t17 7.5q11 9 15.5 23t-0.5 29l-22 59h-299l-20 -54q-5 -13 -5.5 -25.5t7.5 -23.5q8 -12 19.5 -14.5t25.5 -2.5h56v-109h-356v109h31q18 0 27 3t17 10q19 16 27 42l246 647h242l242 -632q4 -10 11 -24.5t20 -24.5
q13 -11 24.5 -16t28.5 -5h26v-109h-455zM434 636l-111 -297h220z" />
    <glyph glyph-name="Acircumflex" unicode="&#xc2;" horiz-adv-x="963" 
d="M604 828l-134 82l-134 -82h-80l170 166h87l171 -166h-80zM497 0v109h55q11 0 20 1.5t17 7.5q11 9 15.5 23t-0.5 29l-22 59h-299l-20 -54q-5 -13 -5.5 -25.5t7.5 -23.5q8 -12 19.5 -14.5t25.5 -2.5h56v-109h-356v109h31q18 0 27 3t17 10q19 16 27 42l246 647h242l242 -632
q4 -10 11 -24.5t20 -24.5q13 -11 24.5 -16t28.5 -5h26v-109h-455zM434 636l-111 -297h220z" />
    <glyph glyph-name="Atilde" unicode="&#xc3;" horiz-adv-x="963" 
d="M657 916q-20 -31 -45 -49t-62 -18q-20 0 -32.5 2t-22.5 6t-19 9.5t-21 11.5q-19 9 -33.5 17.5t-34.5 8.5q-21 0 -34.5 -12t-24.5 -29l-11 -15l-67 30l32 45q21 30 45.5 48.5t61.5 18.5q19 0 32 -2.5t22.5 -6.5t19 -9.5t22.5 -11.5q16 -8 31 -16t36 -8t34 11.5t24 28.5
l11 15l68 -29zM497 0v109h55q11 0 20 1.5t17 7.5q11 9 15.5 23t-0.5 29l-22 59h-299l-20 -54q-5 -13 -5.5 -25.5t7.5 -23.5q8 -12 19.5 -14.5t25.5 -2.5h56v-109h-356v109h31q18 0 27 3t17 10q19 16 27 42l246 647h242l242 -632q4 -10 11 -24.5t20 -24.5q13 -11 24.5 -16
t28.5 -5h26v-109h-455zM434 636l-111 -297h220z" />
    <glyph glyph-name="Adieresis" unicode="&#xc4;" horiz-adv-x="963" 
d="M693 910q0 -18 -7.5 -32.5t-20 -25t-28.5 -16.5t-33 -6q-18 0 -34 6t-28 16.5t-19.5 25t-7.5 32.5q0 17 7.5 32t19.5 25.5t28 16.5t34 6q35 0 62 -22.5t27 -57.5zM424 910q0 -18 -7.5 -32.5t-19.5 -25t-28 -16.5t-34 -6q-17 0 -33 6t-28.5 16.5t-20 25t-7.5 32.5
q0 35 27 57.5t62 22.5q18 0 34 -6t28 -16.5t19.5 -25.5t7.5 -32zM497 0v109h55q11 0 20 1.5t17 7.5q11 9 15.5 23t-0.5 29l-22 59h-299l-20 -54q-5 -13 -5.5 -25.5t7.5 -23.5q8 -12 19.5 -14.5t25.5 -2.5h56v-109h-356v109h31q18 0 27 3t17 10q19 16 27 42l246 647h242
l242 -632q4 -10 11 -24.5t20 -24.5q13 -11 24.5 -16t28.5 -5h26v-109h-455zM434 636l-111 -297h220z" />
    <glyph glyph-name="Aring" unicode="&#xc5;" horiz-adv-x="963" 
d="M497 0v109h55q11 0 20 1.5t17 7.5q11 9 15.5 23t-0.5 29l-22 59h-299l-20 -54q-5 -13 -5.5 -25.5t7.5 -23.5q8 -12 19.5 -14.5t25.5 -2.5h56v-109h-356v109h31q18 0 27 3t17 10q19 16 27 42l232 611l-9 10q-20 23 -32.5 53.5t-12.5 68.5q0 39 15 73.5t40.5 60.5t60.5 41
t74 15t74 -15t60.5 -41t40.5 -60.5t15 -73.5q0 -38 -14 -71.5t-37 -56.5l-5 -5l228 -595q4 -10 11 -24.5t20 -24.5q13 -11 24.5 -16t28.5 -5h26v-109h-455zM575 907q0 19 -7.5 36.5t-20.5 30.5t-30.5 20.5t-36.5 7.5q-20 0 -37 -7.5t-30 -20.5t-20.5 -30.5t-7.5 -36.5
q0 -20 7.5 -37.5t20.5 -30.5t30 -20.5t37 -7.5q19 0 36.5 7.5t30.5 20.5t20.5 30.5t7.5 37.5zM434 636l-111 -297h220z" />
    <glyph glyph-name="AE" unicode="&#xc6;" horiz-adv-x="1370" 
d="M1156 493v61q0 35 -8.5 61.5t-33.5 49.5q-23 22 -49 30t-58 8h-115q-17 0 -28.5 -6.5t-21.5 -19.5q-9 -11 -10.5 -25t-1.5 -35v-156h56q13 0 21.5 4.5t18.5 12.5q12 11 16.5 24.5t4.5 30.5v52h99v-353h-99v52q0 15 -2.5 26.5t-11.5 22.5q-10 13 -21 19t-28 6h-54v-164
q0 -20 1 -36.5t9 -27.5q10 -13 22.5 -17t29.5 -4h128q25 0 50 6.5t46 25.5q42 37 42 88v101h122v-330h-778v109h42q18 0 29 6t21 19q9 11 11 25.5t2 34.5v59h-311l-53 -77q-18 -26 -3 -50q8 -12 20 -14.5t26 -2.5h55v-109h-355v109h30q18 0 27 3t17 10q9 8 19 17.5t17 21.5
l313 486q5 9 7 19t-3 21q-5 9 -13 12.5t-19 3.5h-41v108h941v-318h-125zM606 726l-252 -370h252v370z" />
    <glyph glyph-name="Ccedilla" unicode="&#xc7;" horiz-adv-x="909" 
d="M827 284q0 -63 -23.5 -115t-66 -90.5t-101.5 -61t-129 -27.5q-3 0 -6 -0.5t-6 -0.5h-7l-9 -31l18 2q37 0 65 -19t28 -68q0 -23 -12.5 -39t-32 -26.5t-43.5 -15.5t-47 -5q-29 0 -49 5t-46 16l-32 14l17 48l28 -12q23 -9 39.5 -11.5t39.5 -2.5t32 9t9 20q0 13 -9 22t-24 8
l-36 -2l24 89h-13q-84 7 -155 40t-123 87.5t-81.5 128.5t-29.5 162t32.5 164.5t90 133.5t136.5 90t171 33q22 0 40 -2.5t35 -7t35 -10.5l39 -13l28 -9q23 -8 40 2q22 12 19 40h95l-1 -315h-129l-1 18q-2 35 -14 67.5t-36 58t-62 41t-92 15.5q-48 0 -80.5 -21.5t-52.5 -60.5
t-29 -93.5t-9 -121.5q0 -149 46 -232.5t147 -83.5q54 0 91.5 17t60 43.5t32.5 58.5t10 63v43h139v-42v0z" />
    <glyph glyph-name="Egrave" unicode="&#xc8;" horiz-adv-x="949" 
d="M478 836l-229 158h155l163 -158h-89zM733 493v61q0 39 -11 65.5t-31 45.5q-17 17 -45.5 27.5t-61.5 10.5h-137q-17 0 -29 -7t-22 -19q-8 -11 -10 -26.5t-2 -33.5v-156h71q16 0 25.5 4t19.5 14q9 9 12.5 23t3.5 31v52h103v-353h-103v52q0 15 -2 28t-11 23q-11 11 -21.5 17
t-28.5 6h-69v-164q0 -18 1 -35.5t9 -28.5q10 -12 23 -16.5t30 -4.5h150q29 0 54.5 9t41.5 23q17 14 29.5 36.5t12.5 51.5v101h126v-330h-816v109h47q31 0 51 25q8 11 10 26.5t2 33.5v423q0 18 -2 33.5t-10 26.5q-10 12 -22 19t-29 7h-47v108h817v-318h-129z" />
    <glyph glyph-name="Eacute" unicode="&#xc9;" horiz-adv-x="949" 
d="M478 845h-107l163 149h156zM733 493v61q0 39 -11 65.5t-31 45.5q-17 17 -45.5 27.5t-61.5 10.5h-137q-17 0 -29 -7t-22 -19q-8 -11 -10 -26.5t-2 -33.5v-156h71q16 0 25.5 4t19.5 14q9 9 12.5 23t3.5 31v52h103v-353h-103v52q0 15 -2 28t-11 23q-11 11 -21.5 17t-28.5 6
h-69v-164q0 -18 1 -35.5t9 -28.5q10 -12 23 -16.5t30 -4.5h150q29 0 54.5 9t41.5 23q17 14 29.5 36.5t12.5 51.5v101h126v-330h-816v109h47q31 0 51 25q8 11 10 26.5t2 33.5v423q0 18 -2 33.5t-10 26.5q-10 12 -22 19t-29 7h-47v108h817v-318h-129z" />
    <glyph glyph-name="Ecircumflex" unicode="&#xca;" horiz-adv-x="949" 
d="M574 836l-128 74l-130 -74h-85l170 158h88l170 -158h-85zM733 493v61q0 39 -11 65.5t-31 45.5q-17 17 -45.5 27.5t-61.5 10.5h-137q-17 0 -29 -7t-22 -19q-8 -11 -10 -26.5t-2 -33.5v-156h71q16 0 25.5 4t19.5 14q9 9 12.5 23t3.5 31v52h103v-353h-103v52q0 15 -2 28
t-11 23q-11 11 -21.5 17t-28.5 6h-69v-164q0 -18 1 -35.5t9 -28.5q10 -12 23 -16.5t30 -4.5h150q29 0 54.5 9t41.5 23q17 14 29.5 36.5t12.5 51.5v101h126v-330h-816v109h47q31 0 51 25q8 11 10 26.5t2 33.5v423q0 18 -2 33.5t-10 26.5q-10 12 -22 19t-29 7h-47v108h817
v-318h-129z" />
    <glyph glyph-name="Edieresis" unicode="&#xcb;" horiz-adv-x="949" 
d="M688 908q0 -18 -7.5 -32.5t-20 -25t-28.5 -16.5t-34 -6q-35 0 -61.5 22.5t-26.5 57.5q0 17 7 32t19 25.5t28 16.5t34 6t34 -6t28.5 -16.5t20 -25.5t7.5 -32zM418 908q0 -18 -7.5 -32.5t-19.5 -25t-28 -16.5t-33 -6q-18 0 -34 6t-28.5 16.5t-20 25t-7.5 32.5q0 17 7.5 32
t20 25.5t28.5 16.5t34 6q35 0 61.5 -22.5t26.5 -57.5zM733 493v61q0 39 -11 65.5t-31 45.5q-17 17 -45.5 27.5t-61.5 10.5h-137q-17 0 -29 -7t-22 -19q-8 -11 -10 -26.5t-2 -33.5v-156h71q16 0 25.5 4t19.5 14q9 9 12.5 23t3.5 31v52h103v-353h-103v52q0 15 -2 28t-11 23
q-11 11 -21.5 17t-28.5 6h-69v-164q0 -18 1 -35.5t9 -28.5q10 -12 23 -16.5t30 -4.5h150q29 0 54.5 9t41.5 23q17 14 29.5 36.5t12.5 51.5v101h126v-330h-816v109h47q31 0 51 25q8 11 10 26.5t2 33.5v423q0 18 -2 33.5t-10 26.5q-10 12 -22 19t-29 7h-47v108h817v-318h-129z
" />
    <glyph glyph-name="Igrave" unicode="&#xcc;" horiz-adv-x="545" 
d="M263 836l-230 158h156l162 -158h-88zM45 0v109h47q18 0 29.5 6t21.5 19q8 11 10 25.5t2 34.5v423q0 21 -2 35t-10 25q-10 13 -21.5 19.5t-29.5 6.5h-47v108h457v-108h-48q-18 0 -29 -6.5t-21 -19.5q-9 -11 -11 -25t-2 -35v-423q0 -20 2 -34.5t11 -25.5q10 -13 21 -19
t29 -6h48v-109h-457z" />
    <glyph glyph-name="Iacute" unicode="&#xcd;" horiz-adv-x="545" 
d="M292 837h-88l163 157h155zM45 0v109h47q18 0 29.5 6t21.5 19q8 11 10 25.5t2 34.5v423q0 21 -2 35t-10 25q-10 13 -21.5 19.5t-29.5 6.5h-47v108h457v-108h-48q-18 0 -29 -6.5t-21 -19.5q-9 -11 -11 -25t-2 -35v-423q0 -20 2 -34.5t11 -25.5q10 -13 21 -19t29 -6h48v-109
h-457z" />
    <glyph glyph-name="Icircumflex" unicode="&#xce;" horiz-adv-x="545" 
d="M399 837l-127 73l-127 -73h-87l170 157h87l171 -157h-87zM45 0v109h47q18 0 29.5 6t21.5 19q8 11 10 25.5t2 34.5v423q0 21 -2 35t-10 25q-10 13 -21.5 19.5t-29.5 6.5h-47v108h457v-108h-48q-18 0 -29 -6.5t-21 -19.5q-9 -11 -11 -25t-2 -35v-423q0 -20 2 -34.5
t11 -25.5q10 -13 21 -19t29 -6h48v-109h-457z" />
    <glyph glyph-name="Idieresis" unicode="&#xcf;" horiz-adv-x="545" 
d="M499 908q0 -18 -7.5 -32.5t-20 -25t-28.5 -16.5t-33 -6q-18 0 -34 6t-28 16.5t-19.5 25t-7.5 32.5q0 17 7.5 32t19.5 25.5t28 16.5t34 6q35 0 62 -22.5t27 -57.5zM230 908q0 -18 -7.5 -32.5t-19.5 -25t-28 -16.5t-34 -6t-34 6t-28.5 16.5t-20 25t-7.5 32.5q0 17 7.5 32
t20 25.5t28.5 16.5t34 6t34 -6t28 -16.5t19.5 -25.5t7.5 -32zM45 0v109h47q18 0 29.5 6t21.5 19q8 11 10 25.5t2 34.5v423q0 21 -2 35t-10 25q-10 13 -21.5 19.5t-29.5 6.5h-47v108h457v-108h-48q-18 0 -29 -6.5t-21 -19.5q-9 -11 -11 -25t-2 -35v-423q0 -20 2 -34.5
t11 -25.5q10 -13 21 -19t29 -6h48v-109h-457z" />
    <glyph glyph-name="Eth" unicode="&#xd0;" horiz-adv-x="1011" 
d="M966 415q0 -99 -34.5 -176t-95 -130t-144 -81t-181.5 -28h-466v109h47q31 0 51 25q8 11 10 26.5t2 33.5v156h-110v113h110v154q0 18 -2 33.5t-10 26.5q-10 12 -22 19t-29 7h-47v108h466q94 0 177 -24t145 -73t97.5 -123.5t35.5 -175.5zM707 416q0 58 -13 110.5t-40.5 92
t-70 63t-100.5 23.5q-25 0 -46.5 -4t-36.5 -24q-8 -11 -10 -26.5t-2 -33.5v-154h133v-113h-133v-156q0 -20 3 -40t13 -30q10 -11 31.5 -14t44.5 -3q67 0 110.5 22.5t69.5 63t36.5 97.5t10.5 126z" />
    <glyph glyph-name="Ntilde" unicode="&#xd1;" horiz-adv-x="1048" 
d="M728 916q-21 -31 -45.5 -49t-62.5 -18q-20 0 -32.5 2t-22 6t-18.5 9.5t-21 11.5q-19 9 -33.5 17.5t-35.5 8.5q-20 0 -34 -12t-25 -29l-10 -15l-67 30l31 45q21 30 45.5 48.5t61.5 18.5q19 0 32 -2.5t22.5 -6.5t19 -9.5t22.5 -11.5q16 -8 31 -16t37 -8q20 0 33.5 11.5
t24.5 28.5l10 15l68 -29zM980 703q-18 0 -29 -6.5t-21 -19.5q-9 -11 -11 -25t-2 -35l-1 -617h-261l-359 543v-349q0 -20 2 -34.5t11 -25.5q10 -13 21 -19t29 -6h71v-109h-385v109h47q18 0 29.5 6t21.5 19q8 11 10 25.5t2 34.5v423q0 21 -2 35t-10 25q-10 13 -21.5 19.5
t-29.5 6.5h-47v108h351l380 -571v377q0 21 -2 35t-10 25q-11 13 -22 19.5t-29 6.5h-70v108h385v-108h-48z" />
    <glyph glyph-name="Ograve" unicode="&#xd2;" horiz-adv-x="952" 
d="M484 851l-209 143h155l146 -143h-92zM907 408q0 -89 -29.5 -166.5t-85.5 -135t-137 -90.5t-183 -33q-104 0 -183.5 33.5t-133.5 91t-81.5 135t-27.5 165.5t30 164.5t86 133.5t135.5 89.5t178.5 32.5q105 0 185.5 -32.5t135 -89.5t82.5 -133.5t28 -164.5zM652 408
q0 69 -9.5 126t-30.5 97.5t-55 63t-85 22.5q-53 0 -86.5 -25.5t-52.5 -68.5t-25.5 -98.5t-6.5 -116.5q0 -74 8.5 -132.5t28.5 -98.5t54.5 -61t85.5 -21q52 0 85.5 22t53.5 63t27.5 98.5t7.5 129.5z" />
    <glyph glyph-name="Oacute" unicode="&#xd3;" horiz-adv-x="952" 
d="M486 851h-95l146 143h155zM907 408q0 -89 -29.5 -166.5t-85.5 -135t-137 -90.5t-183 -33q-104 0 -183.5 33.5t-133.5 91t-81.5 135t-27.5 165.5t30 164.5t86 133.5t135.5 89.5t178.5 32.5q105 0 185.5 -32.5t135 -89.5t82.5 -133.5t28 -164.5zM652 408q0 69 -9.5 126
t-30.5 97.5t-55 63t-85 22.5q-53 0 -86.5 -25.5t-52.5 -68.5t-25.5 -98.5t-6.5 -116.5q0 -74 8.5 -132.5t28.5 -98.5t54.5 -61t85.5 -21q52 0 85.5 22t53.5 63t27.5 98.5t7.5 129.5z" />
    <glyph glyph-name="Ocircumflex" unicode="&#xd4;" horiz-adv-x="952" 
d="M602 831l-130 79l-130 -79h-84l170 163h87l171 -163h-84zM907 408q0 -89 -29.5 -166.5t-85.5 -135t-137 -90.5t-183 -33q-104 0 -183.5 33.5t-133.5 91t-81.5 135t-27.5 165.5t30 164.5t86 133.5t135.5 89.5t178.5 32.5q105 0 185.5 -32.5t135 -89.5t82.5 -133.5
t28 -164.5zM652 408q0 69 -9.5 126t-30.5 97.5t-55 63t-85 22.5q-53 0 -86.5 -25.5t-52.5 -68.5t-25.5 -98.5t-6.5 -116.5q0 -74 8.5 -132.5t28.5 -98.5t54.5 -61t85.5 -21q52 0 85.5 22t53.5 63t27.5 98.5t7.5 129.5z" />
    <glyph glyph-name="Otilde" unicode="&#xd5;" horiz-adv-x="952" 
d="M653 916q-20 -31 -45 -49t-62 -18q-20 0 -32.5 2t-22.5 6t-19 9.5t-21 11.5q-18 9 -33 17.5t-35 8.5q-21 0 -34.5 -12t-24.5 -29l-11 -15l-66 30l31 45q21 30 45.5 48.5t61.5 18.5q19 0 32 -2.5t22.5 -6.5t19 -9.5t22.5 -11.5q16 -8 31 -16t37 -8q20 0 33 11.5t25 28.5
l10 15l68 -29zM907 408q0 -89 -29.5 -166.5t-85.5 -135t-137 -90.5t-183 -33q-104 0 -183.5 33.5t-133.5 91t-81.5 135t-27.5 165.5t30 164.5t86 133.5t135.5 89.5t178.5 32.5q105 0 185.5 -32.5t135 -89.5t82.5 -133.5t28 -164.5zM652 408q0 69 -9.5 126t-30.5 97.5t-55 63
t-85 22.5q-53 0 -86.5 -25.5t-52.5 -68.5t-25.5 -98.5t-6.5 -116.5q0 -74 8.5 -132.5t28.5 -98.5t54.5 -61t85.5 -21q52 0 85.5 22t53.5 63t27.5 98.5t7.5 129.5z" />
    <glyph glyph-name="Odieresis" unicode="&#xd6;" horiz-adv-x="952" 
d="M699 910q0 -18 -7.5 -32.5t-20 -25t-28.5 -16.5t-33 -6q-18 0 -34 6t-28 16.5t-19.5 25t-7.5 32.5q0 17 7.5 32t19.5 25.5t28 16.5t34 6q35 0 62 -22.5t27 -57.5zM430 910q0 -18 -7.5 -32.5t-19.5 -25t-28 -16.5t-34 -6t-34 6t-28.5 16.5t-20 25t-7.5 32.5q0 17 7.5 32
t20 25.5t28.5 16.5t34 6t34 -6t28 -16.5t19.5 -25.5t7.5 -32zM907 408q0 -89 -29.5 -166.5t-85.5 -135t-137 -90.5t-183 -33q-104 0 -183.5 33.5t-133.5 91t-81.5 135t-27.5 165.5t30 164.5t86 133.5t135.5 89.5t178.5 32.5q105 0 185.5 -32.5t135 -89.5t82.5 -133.5
t28 -164.5zM652 408q0 69 -9.5 126t-30.5 97.5t-55 63t-85 22.5q-53 0 -86.5 -25.5t-52.5 -68.5t-25.5 -98.5t-6.5 -116.5q0 -74 8.5 -132.5t28.5 -98.5t54.5 -61t85.5 -21q52 0 85.5 22t53.5 63t27.5 98.5t7.5 129.5z" />
    <glyph glyph-name="multiply" unicode="&#xd7;" 
d="M621 310q0 -55 -21.5 -103t-58 -84t-85.5 -56.5t-104 -20.5t-103 21.5t-84 58t-56.5 85t-20.5 103.5t21.5 103.5t58 84.5t85 56.5t103.5 20.5t103.5 -21.5t84.5 -58t56.5 -85.5t20.5 -104zM472 417l-95 -55l80 139h-223l71 -175l-139 13l32 -128l130 37l-61 -117l186 2
l-66 118l123 -19z" />
    <glyph glyph-name="Oslash" unicode="&#xd8;" horiz-adv-x="952" 
d="M907 408q-2 -89 -32 -166.5t-85.5 -135t-135.5 -90.5t-182 -33q-72 0 -136.5 17.5t-130.5 64.5l-96 -101l-58 61l94 97q-26 31 -44.5 63.5t-30.5 67t-18 73t-6 82.5q0 87 30 164t86 134t135.5 90t178.5 33q75 0 139 -17t132 -63l89 93l57 -61l-84 -89q46 -57 73 -126.5
t25 -157.5zM620 617q-25 49 -58 75t-90 26q-53 0 -86.5 -25.5t-52.5 -68.5t-25.5 -99t-6.5 -117v-34.5v-27.5t1.5 -26t4.5 -30l313 327v0zM652 408q0 37 -1.5 65.5t-5.5 48.5l-315 -329q12 -45 47 -71.5t101 -26.5q52 0 85.5 22t53 63t27.5 98.5t8 129.5z" />
    <glyph glyph-name="Ugrave" unicode="&#xd9;" horiz-adv-x="992" 
d="M524 834l-230 160h156l162 -160h-88zM937 703q-18 0 -29.5 -6t-20.5 -20q-8 -11 -10 -25t-2 -35v-290q0 -92 -25.5 -156.5t-71 -105.5t-109.5 -59.5t-141 -18.5q-90 0 -160.5 16t-120 54t-75.5 99.5t-26 153.5v306q0 21 -2 35.5t-11 24.5q-10 12 -21 19t-29 7h-36v109
h447v-108h-53q-18 0 -29.5 -6t-21.5 -20q-8 -11 -10 -25t-2 -35v-306q0 -65 14.5 -105.5t38.5 -63.5t56.5 -31t68.5 -8q39 0 71 14.5t55.5 42.5t36.5 67t13 88v302q0 21 -2 35.5t-10 24.5q-10 12 -21.5 18.5t-28.5 6.5h-50v109h362v-108h-45z" />
    <glyph glyph-name="Uacute" unicode="&#xda;" horiz-adv-x="992" 
d="M566 834h-89l163 160h155zM937 703q-18 0 -29.5 -6t-20.5 -20q-8 -11 -10 -25t-2 -35v-290q0 -92 -25.5 -156.5t-71 -105.5t-109.5 -59.5t-141 -18.5q-90 0 -160.5 16t-120 54t-75.5 99.5t-26 153.5v306q0 21 -2 35.5t-11 24.5q-10 12 -21 19t-29 7h-36v109h447v-108h-53
q-18 0 -29.5 -6t-21.5 -20q-8 -11 -10 -25t-2 -35v-306q0 -65 14.5 -105.5t38.5 -63.5t56.5 -31t68.5 -8q39 0 71 14.5t55.5 42.5t36.5 67t13 88v302q0 21 -2 35.5t-10 24.5q-10 12 -21.5 18.5t-28.5 6.5h-50v109h362v-108h-45z" />
    <glyph glyph-name="Ucircumflex" unicode="&#xdb;" horiz-adv-x="992" 
d="M668 834l-129 76l-129 -76h-85l169 160h88l170 -160h-84zM937 703q-18 0 -29.5 -6t-20.5 -20q-8 -11 -10 -25t-2 -35v-290q0 -92 -25.5 -156.5t-71 -105.5t-109.5 -59.5t-141 -18.5q-90 0 -160.5 16t-120 54t-75.5 99.5t-26 153.5v306q0 21 -2 35.5t-11 24.5
q-10 12 -21 19t-29 7h-36v109h447v-108h-53q-18 0 -29.5 -6t-21.5 -20q-8 -11 -10 -25t-2 -35v-306q0 -65 14.5 -105.5t38.5 -63.5t56.5 -31t68.5 -8q39 0 71 14.5t55.5 42.5t36.5 67t13 88v302q0 21 -2 35.5t-10 24.5q-10 12 -21.5 18.5t-28.5 6.5h-50v109h362v-108h-45z
" />
    <glyph glyph-name="Udieresis" unicode="&#xdc;" horiz-adv-x="992" 
d="M770 910q0 -18 -7.5 -32.5t-20 -25t-28.5 -16.5t-34 -6t-34 6t-28 16.5t-19.5 25t-7.5 32.5q0 17 7.5 32t19.5 25.5t28 16.5t34 6t34 -6t28.5 -16.5t20 -25.5t7.5 -32zM500 910q0 -18 -7.5 -32.5t-19.5 -25t-28 -16.5t-34 -6q-17 0 -33 6t-28.5 16.5t-20 25t-7.5 32.5
q0 35 27 57.5t62 22.5q18 0 34 -6t28 -16.5t19.5 -25.5t7.5 -32zM937 703q-18 0 -29.5 -6t-20.5 -20q-8 -11 -10 -25t-2 -35v-290q0 -92 -25.5 -156.5t-71 -105.5t-109.5 -59.5t-141 -18.5q-90 0 -160.5 16t-120 54t-75.5 99.5t-26 153.5v306q0 21 -2 35.5t-11 24.5
q-10 12 -21 19t-29 7h-36v109h447v-108h-53q-18 0 -29.5 -6t-21.5 -20q-8 -11 -10 -25t-2 -35v-306q0 -65 14.5 -105.5t38.5 -63.5t56.5 -31t68.5 -8q39 0 71 14.5t55.5 42.5t36.5 67t13 88v302q0 21 -2 35.5t-10 24.5q-10 12 -21.5 18.5t-28.5 6.5h-50v109h362v-108h-45z
" />
    <glyph glyph-name="Yacute" unicode="&#xdd;" horiz-adv-x="929" 
d="M872 703q-12 0 -22 -4.5t-18 -9.5q-15 -12 -28 -36l-229 -363v-96q0 -20 2 -34.5t11 -25.5q10 -13 21 -19t29 -6h92v-109h-543v109h91q18 0 29 6t22 19q8 11 10 25.5t2 34.5v99l-228 361q-11 17 -17 22.5t-15 12.5q-9 6 -19 10t-28 4h-25v108h451v-108h-49q-11 0 -21 -4
t-15 -13q-6 -12 -3 -24t11 -23l128 -205l134 213q5 9 7.5 19t-2.5 21q-5 9 -13.5 12.5t-19.5 3.5h-41v108h344v-108h-48zM493 865h-81l148 176h141z" />
    <glyph glyph-name="Thorn" unicode="&#xde;" horiz-adv-x="898" 
d="M867 482q0 -248 -300 -248h-184v-40q0 -18 2.5 -33.5t10.5 -26.5q20 -25 51 -25h93v-109h-495v109h47q31 0 51 25q8 11 10 26.5t2 33.5v423q0 18 -2 33.5t-10 26.5q-10 12 -22 19t-29 7h-47v108h338v-95h136q167 0 257.5 -55.5t90.5 -178.5zM614 482q0 60 -32.5 94.5
t-95.5 34.5h-40q-31 0 -51 -25q-8 -11 -10 -26.5t-2 -33.5v-185h88q74 0 108.5 37t34.5 104z" />
    <glyph glyph-name="germandbls" unicode="&#xdf;" horiz-adv-x="833" 
d="M810 173q0 -45 -19 -79t-49.5 -57.5t-70 -36t-80.5 -12.5q-31 0 -52 5.5t-50 16.5l-24 8q-7 2 -13 4.5t-13 2.5q-9 0 -14.5 -8t-5.5 -17h-65v189h89l2 -16q2 -15 11 -32t25 -31t38 -23t50 -8q13 0 26.5 3t24.5 9t18 15.5t7 23.5q0 13 -6.5 22.5t-17.5 15.5t-24.5 10
t-26.5 7l-90 21q-30 7 -55.5 19t-44 30.5t-29 44.5t-10.5 61q0 39 15 71.5t41.5 56t62.5 36.5t78 13q6 0 10.5 -0.5t9.5 -1.5q9 13 19 32t10 54q0 68 -40 96t-111 28q-36 0 -61.5 -10t-42.5 -27t-25 -39t-8 -47v-623h-275v93h58q20 0 30 13q7 7 9.5 16t2.5 20v279h-95v91h62
q9 0 16.5 3.5t11.5 7.5t6 11t2 15v31q0 63 22.5 109.5t61 77t90.5 46t112 15.5q46 0 93.5 -12t85.5 -38t62 -66t24 -95q0 -32 1.5 -51.5t4.5 -31.5t7.5 -19t11.5 -13v-95h-81q-8 18 -17.5 29t-38.5 11q-31 0 -51 -11.5t-20 -36.5q0 -23 20 -33.5t42 -15.5l125 -29
q56 -12 92 -50t36 -98z" />
    <glyph glyph-name="agrave" unicode="&#xe0;" horiz-adv-x="693" 
d="M684 127q0 -65 -42.5 -102.5t-111.5 -37.5q-42 0 -73 13t-54 48l-13 20l-17 -18q-35 -38 -76.5 -50.5t-84.5 -12.5q-36 0 -69 11t-58 30.5t-40 47t-15 61.5q0 44 22.5 69.5t53 38.5t63 17.5t52.5 7.5l56 8q21 3 41.5 7t36.5 13.5t25.5 26t9.5 45.5q0 37 -20.5 64.5
t-65.5 27.5q-35 0 -50.5 -12.5t-23.5 -23.5q16 -9 26.5 -19t10.5 -33q0 -18 -8.5 -32.5t-22.5 -25t-31 -16t-35 -5.5q-42 0 -71 25t-30 73q0 36 21 63t56.5 46t82 28.5t97.5 9.5q40 0 81.5 -9t75.5 -27.5t56 -48t22 -70.5v-252q0 -14 4 -26t24 -12t24.5 14t4.5 29l2 52h64
v-63v0zM386 250q-11 -6 -18.5 -10.5t-18.5 -9.5q-12 -5 -20.5 -8t-21.5 -6l-22 -6q-32 -8 -49.5 -21.5t-17.5 -39.5t19 -43.5t45 -17.5q22 0 41 9t33 24t22 35t8 42v52zM333 561l-207 176h141l147 -176h-81z" />
    <glyph glyph-name="aacute" unicode="&#xe1;" horiz-adv-x="693" 
d="M684 127q0 -65 -42.5 -102.5t-111.5 -37.5q-42 0 -73 13t-54 48l-13 20l-17 -18q-35 -38 -76.5 -50.5t-84.5 -12.5q-36 0 -69 11t-58 30.5t-40 47t-15 61.5q0 44 22.5 69.5t53 38.5t63 17.5t52.5 7.5l56 8q21 3 41.5 7t36.5 13.5t25.5 26t9.5 45.5q0 37 -20.5 64.5
t-65.5 27.5q-35 0 -50.5 -12.5t-23.5 -23.5q16 -9 26.5 -19t10.5 -33q0 -18 -8.5 -32.5t-22.5 -25t-31 -16t-35 -5.5q-42 0 -71 25t-30 73q0 36 21 63t56.5 46t82 28.5t97.5 9.5q40 0 81.5 -9t75.5 -27.5t56 -48t22 -70.5v-252q0 -14 4 -26t24 -12t24.5 14t4.5 29l2 52h64
v-63v0zM386 250q-11 -6 -18.5 -10.5t-18.5 -9.5q-12 -5 -20.5 -8t-21.5 -6l-22 -6q-32 -8 -49.5 -21.5t-17.5 -39.5t19 -43.5t45 -17.5q22 0 41 9t33 24t22 35t8 42v52zM292 561h-81l148 176h141z" />
    <glyph glyph-name="acircumflex" unicode="&#xe2;" horiz-adv-x="693" 
d="M684 127q0 -65 -42.5 -102.5t-111.5 -37.5q-42 0 -73 13t-54 48l-13 20l-17 -18q-35 -38 -76.5 -50.5t-84.5 -12.5q-36 0 -69 11t-58 30.5t-40 47t-15 61.5q0 44 22.5 69.5t53 38.5t63 17.5t52.5 7.5l56 8q21 3 41.5 7t36.5 13.5t25.5 26t9.5 45.5q0 37 -20.5 64.5
t-65.5 27.5q-35 0 -50.5 -12.5t-23.5 -23.5q16 -9 26.5 -19t10.5 -33q0 -18 -8.5 -32.5t-22.5 -25t-31 -16t-35 -5.5q-42 0 -71 25t-30 73q0 36 21 63t56.5 46t82 28.5t97.5 9.5q40 0 81.5 -9t75.5 -27.5t56 -48t22 -70.5v-252q0 -14 4 -26t24 -12t24.5 14t4.5 29l2 52h64
v-63v0zM386 250q-11 -6 -18.5 -10.5t-18.5 -9.5q-12 -5 -20.5 -8t-21.5 -6l-22 -6q-32 -8 -49.5 -21.5t-17.5 -39.5t19 -43.5t45 -17.5q22 0 41 9t33 24t22 35t8 42v52zM442 552l-122 92l-122 -92h-72l154 185h79l156 -185h-73z" />
    <glyph glyph-name="atilde" unicode="&#xe3;" horiz-adv-x="693" 
d="M684 127q0 -65 -42.5 -102.5t-111.5 -37.5q-42 0 -73 13t-54 48l-13 20l-17 -18q-35 -38 -76.5 -50.5t-84.5 -12.5q-36 0 -69 11t-58 30.5t-40 47t-15 61.5q0 44 22.5 69.5t53 38.5t63 17.5t52.5 7.5l56 8q21 3 41.5 7t36.5 13.5t25.5 26t9.5 45.5q0 37 -20.5 64.5
t-65.5 27.5q-35 0 -50.5 -12.5t-23.5 -23.5q16 -9 26.5 -19t10.5 -33q0 -18 -8.5 -32.5t-22.5 -25t-31 -16t-35 -5.5q-42 0 -71 25t-30 73q0 36 21 63t56.5 46t82 28.5t97.5 9.5q40 0 81.5 -9t75.5 -27.5t56 -48t22 -70.5v-252q0 -14 4 -26t24 -12t24.5 14t4.5 29l2 52h64
v-63v0zM386 250q-11 -6 -18.5 -10.5t-18.5 -9.5q-12 -5 -20.5 -8t-21.5 -6l-22 -6q-32 -8 -49.5 -21.5t-17.5 -39.5t19 -43.5t45 -17.5q22 0 41 9t33 24t22 35t8 42v52zM498 650q-17 -31 -39.5 -53t-57.5 -22q-29 0 -46.5 9.5t-39.5 24.5q-17 11 -30 19t-33 8t-32 -13.5
t-21 -31.5l-10 -17l-61 34l29 50q17 32 39 53.5t58 21.5q25 0 44.5 -9.5t43.5 -24.5q14 -9 27.5 -18t33.5 -9t31.5 13.5t21.5 31.5l9 17l61 -33z" />
    <glyph glyph-name="adieresis" unicode="&#xe4;" horiz-adv-x="693" 
d="M684 127q0 -65 -42.5 -102.5t-111.5 -37.5q-42 0 -73 13t-54 48l-13 20l-17 -18q-35 -38 -76.5 -50.5t-84.5 -12.5q-36 0 -69 11t-58 30.5t-40 47t-15 61.5q0 44 22.5 69.5t53 38.5t63 17.5t52.5 7.5l56 8q21 3 41.5 7t36.5 13.5t25.5 26t9.5 45.5q0 37 -20.5 64.5
t-65.5 27.5q-35 0 -50.5 -12.5t-23.5 -23.5q16 -9 26.5 -19t10.5 -33q0 -18 -8.5 -32.5t-22.5 -25t-31 -16t-35 -5.5q-42 0 -71 25t-30 73q0 36 21 63t56.5 46t82 28.5t97.5 9.5q40 0 81.5 -9t75.5 -27.5t56 -48t22 -70.5v-252q0 -14 4 -26t24 -12t24.5 14t4.5 29l2 52h64
v-63v0zM386 250q-11 -6 -18.5 -10.5t-18.5 -9.5q-12 -5 -20.5 -8t-21.5 -6l-22 -6q-32 -8 -49.5 -21.5t-17.5 -39.5t19 -43.5t45 -17.5q22 0 41 9t33 24t22 35t8 42v52zM533 656q0 -34 -23.5 -57.5t-57.5 -23.5t-57.5 23.5t-23.5 57.5t23.5 57.5t57.5 23.5t57.5 -23.5
t23.5 -57.5zM288 656q0 -34 -23.5 -57.5t-57.5 -23.5q-33 0 -56.5 23.5t-23.5 57.5t23.5 57.5t56.5 23.5q34 0 57.5 -23.5t23.5 -57.5z" />
    <glyph glyph-name="aring" unicode="&#xe5;" horiz-adv-x="693" 
d="M684 127q0 -65 -42.5 -102.5t-111.5 -37.5q-42 0 -73 13t-54 48l-13 20l-17 -18q-35 -38 -76.5 -50.5t-84.5 -12.5q-36 0 -69 11t-58 30.5t-40 47t-15 61.5q0 44 22.5 69.5t53 38.5t63 17.5t52.5 7.5l56 8q21 3 41.5 7t36.5 13.5t25.5 26t9.5 45.5q0 37 -20.5 64.5
t-65.5 27.5q-35 0 -50.5 -12.5t-23.5 -23.5q16 -9 26.5 -19t10.5 -33q0 -18 -8.5 -32.5t-22.5 -25t-31 -16t-35 -5.5q-42 0 -71 25t-30 73q0 36 21 63t56.5 46t82 28.5t97.5 9.5q40 0 81.5 -9t75.5 -27.5t56 -48t22 -70.5v-252q0 -14 4 -26t24 -12t24.5 14t4.5 29l2 52h64
v-63v0zM386 250q-11 -6 -18.5 -10.5t-18.5 -9.5q-12 -5 -20.5 -8t-21.5 -6l-22 -6q-32 -8 -49.5 -21.5t-17.5 -39.5t19 -43.5t45 -17.5q22 0 41 9t33 24t22 35t8 42v52zM480 705q0 -32 -12 -59.5t-33 -48.5t-49 -33t-59 -12t-59 12t-49 33t-33 48.5t-12 59.5q0 31 12 59
t33 48.5t49 32.5t59 12t59 -12t49 -32.5t33 -48.5t12 -59zM404 705q0 32 -22.5 54t-54.5 22q-31 0 -53.5 -22t-22.5 -54t22.5 -54t53.5 -22q32 0 54.5 22t22.5 54z" />
    <glyph glyph-name="ae" unicode="&#xe6;" horiz-adv-x="941" 
d="M913 288q0 -8 0.5 -12.5t0.5 -9t-0.5 -11.5t-1.5 -19h-359l2 -49q2 -47 28 -77.5t80 -30.5q57 0 83.5 26.5t31.5 71.5h130l-2 -20q-2 -24 -17.5 -54t-47.5 -55.5t-82 -42.5t-121 -17q-34 0 -62 3t-53 12t-46.5 25t-41.5 41l-24 29l-18 -22q-16 -20 -32.5 -36t-38 -27
t-49.5 -17.5t-68 -6.5q-36 0 -68 10.5t-55.5 30t-37.5 46.5t-14 61q0 44 20.5 69.5t49.5 38.5t60.5 17.5l52.5 7.5l57 6q22 3 43.5 6.5t38 13t27 27t10.5 47.5q0 38 -24 65t-69 27q-35 0 -50.5 -12.5t-23.5 -23.5q17 -9 27 -19t10 -33q0 -18 -8.5 -32.5t-22 -25t-31 -16
t-35.5 -5.5q-39 0 -66 25t-27 73q0 36 16.5 63.5t46.5 46t71.5 27.5t92.5 9q62 0 104 -12t65 -31l17 -14l18 14q11 9 24 17t29.5 13.5t38.5 9t52 3.5q59 0 108.5 -17.5t85 -50t55.5 -79t20 -104.5zM741 344q0 47 -25.5 79t-71.5 32q-42 0 -67 -30.5t-25 -79.5v-23h189v22z
M384 250q-11 -5 -21 -10t-22 -10q-11 -5 -20 -8t-22 -6l-22 -6q-32 -8 -53.5 -21t-20.5 -42q1 -28 22.5 -43.5t48.5 -15.5q22 0 42 9t35 23.5t24 34.5t9 43v52z" />
    <glyph glyph-name="ccedilla" unicode="&#xe7;" horiz-adv-x="590" 
d="M557 172q0 -36 -17 -69t-48 -58.5t-73.5 -40.5t-93.5 -16h-14l-11 -39l24 1q42 4 64 -18.5t22 -56.5q0 -23 -12 -39t-30.5 -26t-41 -15t-43.5 -5q-26 0 -49 6t-54 20l-18 9l14 36l12 -6q20 -10 40 -14.5t49 -4.5q52 0 52 39q0 13 -9.5 24t-29.5 10l-35 -2l23 82l-6 1
q-62 10 -107.5 34.5t-75 60t-44 80.5t-14.5 98q0 67 20.5 119t59 86.5t92.5 52.5t120 18q47 0 88 -12.5t71 -35t47.5 -53t17.5 -67.5q0 -24 -7.5 -46t-22 -38.5t-36.5 -26.5t-51 -10q-38 0 -66.5 22t-29.5 66q0 24 12.5 41.5t34.5 28.5l-4 9q-2 6 -13 18t-40 12
q-26 0 -43 -12.5t-27.5 -35t-15 -53t-4.5 -66.5q0 -41 4 -76.5t15.5 -61.5t32.5 -40.5t56 -14.5q25 0 42 8t27.5 22t16 32.5t7.5 39.5l122 3v-20v0z" />
    <glyph glyph-name="egrave" unicode="&#xe8;" horiz-adv-x="620" 
d="M592 288q0 -8 0.5 -12.5t0.5 -9t-0.5 -11.5t-1.5 -19h-360l1 -44q1 -48 28 -79.5t82 -31.5q101 0 111 96h134l-2 -20q-2 -21 -19 -50.5t-50 -56t-82.5 -45t-116.5 -18.5q-64 0 -116.5 21.5t-90 58.5t-58.5 87.5t-21 108.5t21.5 108.5t60 88t92 59t118.5 21.5
q59 0 108.5 -17.5t85 -50.5t55.5 -79.5t20 -104.5zM412 344q0 47 -21.5 79t-67.5 32q-42 0 -67 -30.5t-25 -79.5v-23h181v22zM325 561l-207 176h141l147 -176h-81z" />
    <glyph glyph-name="eacute" unicode="&#xe9;" horiz-adv-x="620" 
d="M592 288q0 -8 0.5 -12.5t0.5 -9t-0.5 -11.5t-1.5 -19h-360l1 -44q1 -48 28 -79.5t82 -31.5q101 0 111 96h134l-2 -20q-2 -21 -19 -50.5t-50 -56t-82.5 -45t-116.5 -18.5q-64 0 -116.5 21.5t-90 58.5t-58.5 87.5t-21 108.5t21.5 108.5t60 88t92 59t118.5 21.5
q59 0 108.5 -17.5t85 -50.5t55.5 -79.5t20 -104.5zM412 344q0 47 -21.5 79t-67.5 32q-42 0 -67 -30.5t-25 -79.5v-23h181v22zM330 561h-81l148 176h141z" />
    <glyph glyph-name="ecircumflex" unicode="&#xea;" horiz-adv-x="620" 
d="M592 288q0 -8 0.5 -12.5t0.5 -9t-0.5 -11.5t-1.5 -19h-360l1 -44q1 -48 28 -79.5t82 -31.5q101 0 111 96h134l-2 -20q-2 -21 -19 -50.5t-50 -56t-82.5 -45t-116.5 -18.5q-64 0 -116.5 21.5t-90 58.5t-58.5 87.5t-21 108.5t21.5 108.5t60 88t92 59t118.5 21.5
q59 0 108.5 -17.5t85 -50.5t55.5 -79.5t20 -104.5zM412 344q0 47 -21.5 79t-67.5 32q-42 0 -67 -30.5t-25 -79.5v-23h181v22zM452 552l-122 92l-122 -92h-72l154 185h79l156 -185h-73z" />
    <glyph glyph-name="edieresis" unicode="&#xeb;" horiz-adv-x="620" 
d="M592 288q0 -8 0.5 -12.5t0.5 -9t-0.5 -11.5t-1.5 -19h-360l1 -44q1 -48 28 -79.5t82 -31.5q101 0 111 96h134l-2 -20q-2 -21 -19 -50.5t-50 -56t-82.5 -45t-116.5 -18.5q-64 0 -116.5 21.5t-90 58.5t-58.5 87.5t-21 108.5t21.5 108.5t60 88t92 59t118.5 21.5
q59 0 108.5 -17.5t85 -50.5t55.5 -79.5t20 -104.5zM412 344q0 47 -21.5 79t-67.5 32q-42 0 -67 -30.5t-25 -79.5v-23h181v22zM527 656q0 -34 -23.5 -57.5t-57.5 -23.5t-57.5 23.5t-23.5 57.5t23.5 57.5t57.5 23.5t57.5 -23.5t23.5 -57.5zM282 656q0 -34 -23.5 -57.5
t-57.5 -23.5q-33 0 -56.5 23.5t-23.5 57.5t23.5 57.5t56.5 23.5q34 0 57.5 -23.5t23.5 -57.5z" />
    <glyph glyph-name="igrave" unicode="&#xec;" horiz-adv-x="410" 
d="M187 552l-213 185h141l148 -185h-76zM39 0v93h45q20 0 30 13q7 7 9.5 16t2.5 20v232q0 11 -2 19.5t-9 16.5q-11 13 -30 13h-45v89h260v-357q0 -14 1 -24.5t9 -20.5q13 -17 36 -17h37v-93h-344z" />
    <glyph glyph-name="iacute" unicode="&#xed;" horiz-adv-x="410" 
d="M170 552h-77l148 185h141zM39 0v93h45q20 0 30 13q7 7 9.5 16t2.5 20v232q0 11 -2 19.5t-9 16.5q-11 13 -30 13h-45v89h260v-357q0 -14 1 -24.5t9 -20.5q13 -17 36 -17h37v-93h-344z" />
    <glyph glyph-name="icircumflex" unicode="&#xee;" horiz-adv-x="410" 
d="M39 0v93h45q20 0 30 13q7 7 9.5 16t2.5 20v232q0 11 -2 19.5t-9 16.5q-11 13 -30 13h-45v89h260v-357q0 -14 1 -24.5t9 -20.5q13 -17 36 -17h37v-93h-344zM308 552l-122 92l-122 -92h-72l154 185h79l156 -185h-73z" />
    <glyph glyph-name="idieresis" unicode="&#xef;" horiz-adv-x="410" 
d="M39 0v93h45q20 0 30 13q7 7 9.5 16t2.5 20v232q0 11 -2 19.5t-9 16.5q-11 13 -30 13h-45v89h260v-357q0 -14 1 -24.5t9 -20.5q13 -17 36 -17h37v-93h-344zM379 656q0 -34 -23.5 -57.5t-57.5 -23.5t-57.5 23.5t-23.5 57.5t23.5 57.5t57.5 23.5t57.5 -23.5t23.5 -57.5z
M134 656q0 -34 -23.5 -57.5t-57.5 -23.5q-33 0 -56.5 23.5t-23.5 57.5t23.5 57.5t56.5 23.5q34 0 57.5 -23.5t23.5 -57.5z" />
    <glyph glyph-name="eth" unicode="&#xf0;" horiz-adv-x="693" 
d="M644 418q0 -17 -0.5 -37t-1 -40.5t-2 -38.5t-3.5 -31q-10 -59 -37 -111t-67.5 -90.5t-93 -60.5t-114.5 -22q-69 0 -123.5 22t-92.5 59.5t-58 87t-20 104.5q0 67 24.5 118.5t66 86t96 52t114.5 17.5q32 0 54 -8t41 -16q-9 73 -29 124l-91 -53l-54 74l94 55q-27 21 -61 21
q-14 0 -32 -4.5l-38 -9.5t-40 -9.5t-36 -4.5q-17 0 -27 10.5t-10 20.5q0 16 7.5 32.5t26.5 30t50.5 22.5t79.5 9q51 0 99.5 -13.5t91.5 -39.5l75 44l52 -74l-54 -32q46 -50 75.5 -122.5t37.5 -172.5zM430 262q0 43 -4.5 77t-16 58t-30.5 36.5t-49 12.5q-28 0 -47 -14
t-30.5 -38.5t-16.5 -58.5t-5 -73q0 -86 21.5 -134.5t77.5 -48.5q30 0 49 14.5t30.5 39t16 58t4.5 71.5z" />
    <glyph glyph-name="ntilde" unicode="&#xf1;" horiz-adv-x="754" 
d="M417 0v93h29q10 0 21 9q8 6 8.5 15t0.5 20v173q0 90 -71 90q-49 0 -78 -46t-29 -124v-80q0 -12 1.5 -22t9.5 -19q7 -10 15.5 -13t19.5 -3h19v-93h-324v93h45q20 0 30 13q7 7 9.5 16t2.5 20v232q0 11 -2 19.5t-9 16.5q-11 13 -30 13h-46v89h254v-111q8 28 26.5 52t43.5 41
t54.5 26.5t59.5 9.5t60.5 -10.5t55 -30t40 -48.5t15.5 -65v-207q0 -17 1.5 -32.5t9.5 -26.5q14 -17 38 -17h36v-93h-316zM527 650q-17 -31 -39.5 -53t-57.5 -22q-29 0 -46.5 9.5t-39.5 24.5q-17 11 -30 19t-33 8t-32 -13.5t-21 -31.5l-10 -17l-61 34l29 50q17 32 39 53.5
t58 21.5q25 0 44.5 -9.5t43.5 -24.5q14 -9 27.5 -18t33.5 -9t31.5 13.5t21.5 31.5l9 17l61 -33z" />
    <glyph glyph-name="ograve" unicode="&#xf2;" horiz-adv-x="653" 
d="M622 271q0 -59 -22.5 -111t-62.5 -90.5t-94.5 -60.5t-117.5 -22q-64 0 -118 22t-93 59.5t-61 87t-22 104.5q0 61 24 112.5t65 89t95.5 58t116.5 20.5q63 0 116 -20.5t92 -56.5t60.5 -85t21.5 -107zM422 262q0 43 -4 77t-14.5 58t-29 36.5t-47.5 12.5t-47.5 -14t-29 -38.5
t-15 -58.5t-4.5 -73q0 -87 19.5 -135t76.5 -48q29 0 47.5 14.5t29 39t14.5 58t4 71.5zM325 561l-207 176h141l147 -176h-81z" />
    <glyph glyph-name="oacute" unicode="&#xf3;" horiz-adv-x="653" 
d="M622 271q0 -59 -22.5 -111t-62.5 -90.5t-94.5 -60.5t-117.5 -22q-64 0 -118 22t-93 59.5t-61 87t-22 104.5q0 61 24 112.5t65 89t95.5 58t116.5 20.5q63 0 116 -20.5t92 -56.5t60.5 -85t21.5 -107zM422 262q0 43 -4 77t-14.5 58t-29 36.5t-47.5 12.5t-47.5 -14t-29 -38.5
t-15 -58.5t-4.5 -73q0 -87 19.5 -135t76.5 -48q29 0 47.5 14.5t29 39t14.5 58t4 71.5zM346 561h-81l148 176h141z" />
    <glyph glyph-name="ocircumflex" unicode="&#xf4;" horiz-adv-x="653" 
d="M622 271q0 -59 -22.5 -111t-62.5 -90.5t-94.5 -60.5t-117.5 -22q-64 0 -118 22t-93 59.5t-61 87t-22 104.5q0 61 24 112.5t65 89t95.5 58t116.5 20.5q63 0 116 -20.5t92 -56.5t60.5 -85t21.5 -107zM422 262q0 43 -4 77t-14.5 58t-29 36.5t-47.5 12.5t-47.5 -14t-29 -38.5
t-15 -58.5t-4.5 -73q0 -87 19.5 -135t76.5 -48q29 0 47.5 14.5t29 39t14.5 58t4 71.5zM455 552l-122 92l-122 -92h-72l154 185h79l156 -185h-73z" />
    <glyph glyph-name="otilde" unicode="&#xf5;" horiz-adv-x="653" 
d="M622 271q0 -59 -22.5 -111t-62.5 -90.5t-94.5 -60.5t-117.5 -22q-64 0 -118 22t-93 59.5t-61 87t-22 104.5q0 61 24 112.5t65 89t95.5 58t116.5 20.5q63 0 116 -20.5t92 -56.5t60.5 -85t21.5 -107zM422 262q0 43 -4 77t-14.5 58t-29 36.5t-47.5 12.5t-47.5 -14t-29 -38.5
t-15 -58.5t-4.5 -73q0 -87 19.5 -135t76.5 -48q29 0 47.5 14.5t29 39t14.5 58t4 71.5zM494 650q-17 -31 -39.5 -53t-57.5 -22q-29 0 -46.5 9.5t-39.5 24.5q-17 11 -30 19t-33 8t-32 -13.5t-21 -31.5l-10 -17l-61 34l29 50q17 32 39 53.5t58 21.5q25 0 44.5 -9.5t43.5 -24.5
q14 -9 27.5 -18t33.5 -9t31.5 13.5t21.5 31.5l9 17l61 -33z" />
    <glyph glyph-name="odieresis" unicode="&#xf6;" horiz-adv-x="653" 
d="M622 271q0 -59 -22.5 -111t-62.5 -90.5t-94.5 -60.5t-117.5 -22q-64 0 -118 22t-93 59.5t-61 87t-22 104.5q0 61 24 112.5t65 89t95.5 58t116.5 20.5q63 0 116 -20.5t92 -56.5t60.5 -85t21.5 -107zM422 262q0 43 -4 77t-14.5 58t-29 36.5t-47.5 12.5t-47.5 -14t-29 -38.5
t-15 -58.5t-4.5 -73q0 -87 19.5 -135t76.5 -48q29 0 47.5 14.5t29 39t14.5 58t4 71.5zM536 656q0 -34 -23.5 -57.5t-57.5 -23.5t-57.5 23.5t-23.5 57.5t23.5 57.5t57.5 23.5t57.5 -23.5t23.5 -57.5zM291 656q0 -34 -23.5 -57.5t-57.5 -23.5q-33 0 -56.5 23.5t-23.5 57.5
t23.5 57.5t56.5 23.5q34 0 57.5 -23.5t23.5 -57.5z" />
    <glyph glyph-name="divide" unicode="&#xf7;" 
d="M621 310q0 -55 -21.5 -103t-58 -84t-85.5 -56.5t-104 -20.5t-103 21.5t-84 58t-56.5 85t-20.5 103.5t21.5 103.5t58 84.5t85 56.5t103.5 20.5t103.5 -21.5t84.5 -58t56.5 -85.5t20.5 -104zM472 417l-95 -55l80 139h-223l71 -175l-139 13l32 -128l130 37l-61 -117l186 2
l-66 118l123 -19z" />
    <glyph glyph-name="oslash" unicode="&#xf8;" horiz-adv-x="653" 
d="M622 271q1 -59 -21.5 -111t-62.5 -90t-95 -60.5t-118 -22.5q-50 0 -89 11t-82 39l-55 -58l-51 50l52 55q-11 12 -23 28.5t-22 38t-17 48.5t-7 61q0 61 24 112.5t65 89t95.5 58t116.5 20.5q46 0 83 -9t79 -35l49 51l51 -50l-44 -46q30 -32 50.5 -77.5t21.5 -102.5z
M402 400q-5 7 -10 15t-13.5 15t-20.5 11.5t-31 4.5q-29 0 -47.5 -14t-29 -38.5t-15 -58.5t-4.5 -73v-20t1 -20l170 178v0zM422 262v23t-2 29l-172 -180q13 -24 28 -39.5t51 -15.5q29 0 47.5 14.5t29 39t14.5 58t4 71.5z" />
    <glyph glyph-name="ugrave" unicode="&#xf9;" horiz-adv-x="727" 
d="M347 552l-213 185h141l148 -185h-76zM461 0v94l-15 -24q-22 -35 -68 -58.5t-101 -23.5q-35 0 -66 7.5t-54.5 25t-37.5 45.5t-14 69v209q0 17 -2 33t-10 25q-14 17 -38 17h-36v93h259v-316q0 -16 5 -30.5t14.5 -26t23 -18.5t29.5 -7q45 0 75 36t30 108v78q0 20 -0.5 38.5
t-7.5 27.5q-15 16 -37 16h-47v94h266v-374q0 -11 1.5 -19.5t8.5 -15.5q12 -13 31 -13h37v-90h-246z" />
    <glyph glyph-name="uacute" unicode="&#xfa;" horiz-adv-x="727" 
d="M328 552h-77l148 185h141zM461 0v94l-15 -24q-22 -35 -68 -58.5t-101 -23.5q-35 0 -66 7.5t-54.5 25t-37.5 45.5t-14 69v209q0 17 -2 33t-10 25q-14 17 -38 17h-36v93h259v-316q0 -16 5 -30.5t14.5 -26t23 -18.5t29.5 -7q45 0 75 36t30 108v78q0 20 -0.5 38.5t-7.5 27.5
q-15 16 -37 16h-47v94h266v-374q0 -11 1.5 -19.5t8.5 -15.5q12 -13 31 -13h37v-90h-246z" />
    <glyph glyph-name="ucircumflex" unicode="&#xfb;" horiz-adv-x="727" 
d="M461 0v94l-15 -24q-22 -35 -68 -58.5t-101 -23.5q-35 0 -66 7.5t-54.5 25t-37.5 45.5t-14 69v209q0 17 -2 33t-10 25q-14 17 -38 17h-36v93h259v-316q0 -16 5 -30.5t14.5 -26t23 -18.5t29.5 -7q45 0 75 36t30 108v78q0 20 -0.5 38.5t-7.5 27.5q-15 16 -37 16h-47v94h266
v-374q0 -11 1.5 -19.5t8.5 -15.5q12 -13 31 -13h37v-90h-246zM463 552l-122 92l-122 -92h-72l154 185h79l156 -185h-73z" />
    <glyph glyph-name="udieresis" unicode="&#xfc;" horiz-adv-x="727" 
d="M461 0v94l-15 -24q-22 -35 -68 -58.5t-101 -23.5q-35 0 -66 7.5t-54.5 25t-37.5 45.5t-14 69v209q0 17 -2 33t-10 25q-14 17 -38 17h-36v93h259v-316q0 -16 5 -30.5t14.5 -26t23 -18.5t29.5 -7q45 0 75 36t30 108v78q0 20 -0.5 38.5t-7.5 27.5q-15 16 -37 16h-47v94h266
v-374q0 -11 1.5 -19.5t8.5 -15.5q12 -13 31 -13h37v-90h-246zM536 656q0 -34 -23.5 -57.5t-57.5 -23.5t-57.5 23.5t-23.5 57.5t23.5 57.5t57.5 23.5t57.5 -23.5t23.5 -57.5zM291 656q0 -34 -23.5 -57.5t-57.5 -23.5q-33 0 -56.5 23.5t-23.5 57.5t23.5 57.5t56.5 23.5
q34 0 57.5 -23.5t23.5 -57.5z" />
    <glyph glyph-name="yacute" unicode="&#xfd;" horiz-adv-x="604" 
d="M596 423q-15 0 -28 -3.5t-21 -13.5q-11 -14 -15 -26.5t-10 -28.5l-132 -345q-12 -33 -32 -62.5t-46.5 -52t-57.5 -36t-64 -13.5q-37 0 -69 9t-55.5 25.5t-37 41t-13.5 56.5q0 16 6 31t16 27t24 19.5t31 7.5q26 0 46 -16.5t20 -42.5q0 -15 -6.5 -27.5t-22.5 -19.5l-9 -3
l8 -9q9 -11 20.5 -12.5t25.5 -1.5q32 0 52 22.5t31 54.5l8 21h-62l-127 325q-5 14 -8.5 25t-13.5 23q-8 10 -19.5 17.5t-26.5 7.5h-8v89h309v-89h-20q-11 0 -21.5 -1t-15.5 -10q-5 -8 -3 -16t4 -17l88 -250l77 250q3 9 4.5 17t-3.5 16t-13.5 9.5t-17.5 1.5h-15v89h231v-89
h-8zM307 561h-81l148 176h141z" />
    <glyph glyph-name="thorn" unicode="&#xfe;" horiz-adv-x="700" 
d="M669 267q0 -70 -17.5 -121.5t-48.5 -85.5t-73.5 -51t-91.5 -17q-51 0 -91.5 17t-63.5 64v-67q0 -20 2 -38.5t9 -27.5q14 -17 37 -17h68v-80h-386v80h57q18 0 30 12q7 8 9 16.5t2 19.5v702q0 11 -1.5 19.5t-8.5 16.5q-13 13 -31 13h-58v89h275v-358q26 43 64.5 62.5
t95.5 19.5q47 0 87.5 -18.5t70.5 -53.5t47 -84.5t17 -111.5zM470 261q0 24 -5 49.5t-16 46t-28 33.5t-42 14q-26 1 -44.5 -11t-30.5 -32t-17.5 -47t-5.5 -56q0 -77 25 -109.5t74 -32.5q27 0 44 12t27.5 32.5t14.5 46.5t4 54z" />
    <glyph glyph-name="ydieresis" unicode="&#xff;" horiz-adv-x="604" 
d="M596 423q-15 0 -28 -3.5t-21 -13.5q-11 -14 -15 -26.5t-10 -28.5l-132 -345q-12 -33 -32 -62.5t-46.5 -52t-57.5 -36t-64 -13.5q-37 0 -69 9t-55.5 25.5t-37 41t-13.5 56.5q0 16 6 31t16 27t24 19.5t31 7.5q26 0 46 -16.5t20 -42.5q0 -15 -6.5 -27.5t-22.5 -19.5l-9 -3
l8 -9q9 -11 20.5 -12.5t25.5 -1.5q32 0 52 22.5t31 54.5l8 21h-62l-127 325q-5 14 -8.5 25t-13.5 23q-8 10 -19.5 17.5t-26.5 7.5h-8v89h309v-89h-20q-11 0 -21.5 -1t-15.5 -10q-5 -8 -3 -16t4 -17l88 -250l77 250q3 9 4.5 17t-3.5 16t-13.5 9.5t-17.5 1.5h-15v89h231v-89
h-8zM515 656q0 -34 -23.5 -57.5t-57.5 -23.5t-57.5 23.5t-23.5 57.5t23.5 57.5t57.5 23.5t57.5 -23.5t23.5 -57.5zM270 656q0 -34 -23.5 -57.5t-57.5 -23.5q-33 0 -56.5 23.5t-23.5 57.5t23.5 57.5t56.5 23.5q34 0 57.5 -23.5t23.5 -57.5z" />
    <glyph glyph-name="OE" unicode="&#x152;" horiz-adv-x="1478" 
d="M1263 493v61q0 35 -9 61.5t-33 49.5q-23 22 -49 30t-59 8h-133q-18 0 -29 -6.5t-21 -19.5q-9 -11 -11 -25t-2 -35v-156h68q13 0 21.5 4.5t18.5 12.5q12 11 16.5 24.5t4.5 30.5v52h103v-353h-103v52q0 15 -2.5 26.5t-11.5 22.5q-10 13 -21 19t-28 6h-66v-164
q0 -20 1 -36.5t10 -27.5q10 -13 22 -17t30 -4h147q25 0 49.5 6.5t46.5 25.5q20 19 31 40.5t11 47.5v101h125v-330h-680q-35 0 -54.5 -1.5t-40.5 -4t-52.5 -4t-90.5 -1.5q-96 0 -174.5 32.5t-134.5 89t-86.5 133t-30.5 164.5t32.5 164.5t90 133.5t136.5 90t171 33q48 0 80 -3
t58 -6l52 -6t63 -3h662v-318h-128zM689 509q0 58 -12.5 97.5t-37.5 63.5t-62.5 34t-86.5 10q-48 0 -83.5 -21.5t-59 -60.5t-35 -93.5t-11.5 -121.5q0 -149 46 -232.5t147 -83.5q54 0 91.5 17t60 43.5t32.5 58.5t10 63l1 226v0z" />
    <glyph glyph-name="oe" unicode="&#x153;" horiz-adv-x="982" 
d="M954 288q0 -8 0.5 -12.5t0.5 -9t-0.5 -11.5t-1.5 -19h-348l2 -49q2 -47 27 -77.5t77 -30.5q49 0 77.5 27.5t31.5 70.5h129l-2 -20q-2 -23 -18.5 -52.5t-48.5 -55.5t-80 -43.5t-112 -17.5q-32 0 -59 6t-48.5 14.5t-38.5 18.5t-30 19l-9 6l-10 -7q-27 -22 -73.5 -39.5
t-103.5 -17.5q-62 0 -114.5 22t-90 59.5t-59 86.5t-21.5 104q0 61 23 112.5t63 89t93.5 58t113.5 20.5q31 0 58.5 -6t50 -14.5t38.5 -17.5t24 -15l13 -10l13 11q11 8 28.5 17t39.5 16.5t48.5 12.5t55.5 5q58 0 106 -17.5t82.5 -50t53.5 -79t19 -104.5zM780 344q0 22 -5.5 42
t-16 35.5t-27 24.5t-38.5 9q-42 0 -65 -31.5t-23 -78.5v-23h175v22zM410 262q0 43 -4 77t-14 58t-28 36.5t-46 12.5q-27 0 -45 -14t-28.5 -38.5t-14.5 -58.5t-4 -73q0 -86 18.5 -134.5t73.5 -48.5q28 0 46 14.5t28 39t14 58t4 71.5z" />
    <glyph glyph-name="Scaron" unicode="&#x160;" horiz-adv-x="823" 
d="M777 269q0 -74 -29.5 -127t-78 -87t-110 -49.5t-125.5 -15.5q-52 0 -91.5 9t-65.5 18l-32 12q-10 2 -18 4.5t-17 2.5q-15 0 -25.5 -11t-13.5 -25h-87v310h117v-22q0 -39 18 -72.5t49 -59t72 -40t88 -14.5q27 0 53 6t47 19t33.5 32t12.5 45q0 28 -15.5 46t-39.5 29t-53 18
t-57 13l-142 32q-44 10 -81.5 28.5t-65.5 46.5t-43.5 66t-15.5 86q0 61 25 109t69.5 81.5t104.5 51t130 17.5q43 0 74.5 -4.5t72.5 -17.5l31 -11q9 -3 17 -6t18 -1q30 3 40 34h89v-300h-117l-5 34q-10 76 -63 119.5t-139 43.5q-25 0 -49.5 -5.5t-44.5 -17t-32.5 -29.5
t-12.5 -42q0 -25 13 -40.5t33 -26t45 -16.5t49 -11l149 -33q45 -10 85 -27.5t70 -45t47 -66t17 -90.5zM436 872h-87l-170 167h80l134 -83l134 83h80z" />
    <glyph glyph-name="scaron" unicode="&#x161;" horiz-adv-x="554" 
d="M528 173q0 -45 -20 -79t-52.5 -57.5t-74 -36t-84.5 -12.5q-66 0 -116 22l-17 8q-10 4 -14.5 6.5t-12.5 0.5q-20 -5 -22 -25h-67v189h93l2 -16q2 -16 11.5 -33t26.5 -31t40 -22.5t52 -7.5q14 0 28.5 3t26 9t18.5 15.5t7 23.5t-7.5 23t-18.5 15t-25 10t-27 7l-95 21
q-32 7 -59 19t-46.5 30.5t-30.5 44.5t-11 61q0 40 15.5 72.5t43.5 55.5t66.5 36t82.5 13q32 0 55.5 -4t53.5 -15l25 -10q8 -3 14 -6t14 -1q11 2 17.5 9.5t6.5 18.5h65v-179h-96l-3 18q-2 16 -13 30.5t-28 25t-38.5 16.5t-43.5 6q-32 0 -53 -11.5t-21 -36.5q0 -12 6 -20
t15 -14t20.5 -9.5t23.5 -5.5l131 -29q29 -6 54 -19t43.5 -31.5t28.5 -43t10 -54.5zM311 562h-87l-170 167h80l134 -83l134 83h80z" />
    <glyph glyph-name="Ydieresis" unicode="&#x178;" horiz-adv-x="929" 
d="M720 910q0 -18 -7.5 -32.5t-20 -25t-28.5 -16.5t-34 -6q-17 0 -33 6t-28 16.5t-19.5 25t-7.5 32.5q0 35 26.5 57.5t61.5 22.5q18 0 34 -6t28.5 -16.5t20 -25.5t7.5 -32zM450 910q0 -35 -26.5 -57.5t-61.5 -22.5q-18 0 -34 6t-28.5 16.5t-20 25t-7.5 32.5q0 17 7.5 32
t20 25.5t28.5 16.5t34 6t34 -6t28 -16.5t19 -25.5t7 -32zM872 703q-12 0 -22 -4.5t-18 -9.5q-15 -12 -28 -36l-229 -363v-96q0 -20 2 -34.5t11 -25.5q10 -13 21 -19t29 -6h92v-109h-543v109h91q18 0 29 6t22 19q8 11 10 25.5t2 34.5v99l-228 361q-11 17 -17 22.5t-15 12.5
q-9 6 -19 10t-28 4h-25v108h451v-108h-49q-11 0 -21 -4t-15 -13q-6 -12 -3 -24t11 -23l128 -205l134 213q5 9 7.5 19t-2.5 21q-5 9 -13.5 12.5t-19.5 3.5h-41v108h344v-108h-48z" />
    <glyph glyph-name="florin" unicode="&#x192;" horiz-adv-x="544" 
d="M612 684q0 -28 -8.5 -49t-22.5 -35.5t-32 -21.5t-36 -7q-36 0 -60.5 20.5t-25.5 58.5q0 39 38 60q-3 10 -10 18q-6 7 -17 12.5t-28 5.5q-32 0 -52.5 -19.5t-20.5 -61.5v-153h129v-91h-130v-341q0 -119 -53 -177.5t-168 -58.5q-44 0 -79 10t-60 28.5t-38.5 44t-13.5 55.5
q0 27 8 47t21.5 33.5t30 20t34.5 6.5q34 0 57.5 -19.5t23.5 -55.5q0 -37 -36 -57q2 -10 9 -18q5 -7 15.5 -12t27.5 -5q26 0 37 19.5t11 58.5l-1 421h-95v91h97v68q2 126 63.5 187t182.5 61q46 0 83.5 -10.5t63.5 -30t40.5 -46t14.5 -57.5z" />
    <glyph glyph-name="circumflex" unicode="&#x2c6;" horiz-adv-x="669" 
d="M455 552l-122 92l-122 -92h-72l154 185h79l156 -185h-73z" />
    <glyph glyph-name="tilde" unicode="&#x2dc;" horiz-adv-x="669" 
d="M505 650q-17 -31 -39.5 -53t-57.5 -22q-29 0 -46.5 9.5t-39.5 24.5q-17 11 -30 19t-33 8t-32 -13.5t-21 -31.5l-10 -17l-61 34l29 50q17 32 39 53.5t58 21.5q25 0 44.5 -9.5t43.5 -24.5q14 -9 27.5 -18t33.5 -9t31.5 13.5t21.5 31.5l9 17l61 -33z" />
    <glyph glyph-name="endash" unicode="&#x2013;" horiz-adv-x="760" 
d="M118 258v117h530v-117h-530z" />
    <glyph glyph-name="emdash" unicode="&#x2014;" horiz-adv-x="976" 
d="M0 258v116h976v-116h-976z" />
    <glyph glyph-name="quoteleft" unicode="&#x2018;" horiz-adv-x="337" 
d="M272 738q-37 0 -57 -16.5t-20 -39.5q0 -9 5.5 -13.5t12.5 -9.5l15 -9q23 -14 36.5 -29t13.5 -47q0 -20 -8.5 -37.5t-22.5 -30.5t-32.5 -20t-39.5 -7q-26 0 -47.5 9.5t-37.5 27t-25 41.5t-9 53q0 46 18 83t46.5 63t65 40.5t74.5 14.5h33v-73h-21z" />
    <glyph glyph-name="quoteright" unicode="&#x2019;" horiz-adv-x="337" 
d="M281 696q0 -46 -18 -83t-46.5 -63.5t-65.5 -40.5t-74 -14h-33v74h21q35 0 56 16.5t21 39.5q0 8 -5.5 13t-12.5 10l-14 8q-23 14 -37 29t-14 47q0 21 8.5 38.5t22.5 30t33 20t39 7.5q25 0 47 -10t38 -27.5t25 -41.5t9 -53z" />
    <glyph glyph-name="quotesinglbase" unicode="&#x201a;" horiz-adv-x="337" 
d="M281 45q0 -46 -18 -83t-46.5 -63.5t-65.5 -40.5t-74 -14h-33v73h21q32 0 54.5 16.5t22.5 39.5q0 9 -5.5 13.5t-12.5 9.5l-15 9q-23 14 -36.5 29t-13.5 47q0 20 8.5 37.5t22.5 30t33 20t39 7.5q25 0 47 -9.5t38 -27t25 -41.5t9 -53z" />
    <glyph glyph-name="quotedblleft" unicode="&#x201c;" horiz-adv-x="621" 
d="M556 738q-30 0 -53.5 -16.5t-23.5 -39.5q0 -9 5.5 -13.5t12.5 -9.5l14 -9q12 -7 21 -13.5t16 -15t10.5 -20t3.5 -27.5q0 -20 -8.5 -37.5t-23 -30.5t-33 -20t-38.5 -7q-52 0 -85.5 36.5t-33.5 94.5q0 46 18 83t46.5 63t65 40.5t74.5 14.5h33v-73h-21zM272 738
q-32 0 -54.5 -16.5t-22.5 -39.5q0 -9 5.5 -13.5t12.5 -9.5l15 -9q23 -14 36.5 -29t13.5 -47q0 -20 -8.5 -37.5t-22.5 -30.5t-32.5 -20t-39.5 -7q-26 0 -47.5 9.5t-37.5 27t-25 41.5t-9 53q0 46 18 83t46.5 63t65 40.5t74.5 14.5h33v-73h-21z" />
    <glyph glyph-name="quotedblright" unicode="&#x201d;" horiz-adv-x="621" 
d="M565 696q0 -46 -18 -83t-46.5 -63.5t-65.5 -40.5t-74 -14h-33v74h21q32 0 54.5 16.5t22.5 39.5q0 8 -5.5 13t-12.5 10l-15 8q-23 14 -36.5 29t-13.5 47q0 21 8.5 38.5t22.5 30t32.5 20t39.5 7.5q25 0 47 -10t38 -27.5t25 -41.5t9 -53zM281 696q0 -46 -18 -83t-46.5 -63.5
t-65.5 -40.5t-74 -14h-33v74h21q34 0 55.5 16.5t21.5 39.5q0 8 -5.5 13t-12.5 10l-14 8q-23 14 -37 29t-14 47q0 21 8.5 38.5t22.5 30t33 20t39 7.5q25 0 47 -10t38 -27.5t25 -41.5t9 -53z" />
    <glyph glyph-name="quotedblbase" unicode="&#x201e;" horiz-adv-x="621" 
d="M565 45q0 -46 -18 -83t-46.5 -63.5t-65.5 -40.5t-74 -14h-33v73h21q15 0 28.5 4.5t24.5 12t17.5 18t6.5 21.5q0 9 -5.5 13.5t-12.5 9.5l-15 9q-23 14 -36.5 29t-13.5 47q0 20 8.5 37.5t22.5 30t32.5 20t39.5 7.5q25 0 47 -9.5t38 -27t25 -41.5t9 -53zM281 45
q0 -46 -18 -83t-46.5 -63.5t-65.5 -40.5t-74 -14h-33v73h21q31 0 54 16.5t23 39.5q0 9 -5.5 13.5t-12.5 9.5l-14 9q-23 13 -37 28.5t-14 47.5q0 20 8.5 37.5t22.5 30t33 20t39 7.5q25 0 47 -9.5t38 -27t25 -41.5t9 -53z" />
    <glyph glyph-name="dagger" unicode="&#x2020;" horiz-adv-x="655" 
d="M600 468q0 -42 -17.5 -59t-52.5 -17q-34 0 -59 13t-43 20q-23 8 -37.5 8.5t-22.5 0.5q-3 -12 -4 -20.5t-1 -21.5q0 -38 10.5 -66.5t32.5 -55.5q-11 -35 -18 -62.5t-15 -62.5q-9 -51 -14 -93t-7 -83t-2 -84v-95h-40v95t-1.5 84t-6.5 83t-14 93q-8 35 -15 62.5t-18 62.5
q22 27 32.5 55.5t10.5 66.5q0 13 -1 21.5t-4 20.5q-8 0 -22.5 -0.5t-37.5 -8.5q-18 -7 -43 -20t-59 -13q-35 0 -52.5 17t-17.5 59t17.5 58.5t52.5 16.5q34 0 59 -13t43 -20q23 -8 38 -8.5t25 -0.5q1 11 1.5 20.5t0.5 21.5q-1 23 -4.5 38.5t-10.5 37.5l-10 27q-5 13 -9 23.5
t-7.5 21t-5.5 22t-2 27.5q0 38 20.5 62t61.5 24q43 0 62 -24t19 -62q0 -16 -2 -27.5t-5.5 -22t-8 -21t-8.5 -23.5l-10 -27q-7 -22 -10.5 -37.5t-4.5 -38.5q0 -12 0.5 -21.5t1.5 -20.5q10 0 25 0.5t38 8.5q18 7 43 20t59 13q35 0 52.5 -16.5t17.5 -58.5z" />
    <glyph glyph-name="daggerdbl" unicode="&#x2021;" horiz-adv-x="655" 
d="M600 171q0 -42 -17.5 -58.5t-52.5 -16.5q-34 0 -59 13t-43 20q-23 8 -38 8.5t-25 0.5q-2 -6 -3 -13t1 -16q2 -8 10 -24.5t16 -36.5q9 -26 16 -51t7 -39q0 -15 -5 -29.5t-15 -26.5t-25.5 -19.5t-36.5 -7.5q-20 0 -35.5 7.5t-25.5 19.5t-15 26.5t-5 29.5q0 14 5 37.5
t16 48.5q8 20 15.5 38t8.5 27q1 8 2 14.5t0 14.5q-10 0 -25 -0.5t-38 -8.5q-18 -7 -43 -20t-59 -13q-35 0 -52.5 16.5t-17.5 58.5t17.5 59t52.5 17q34 0 59 -13t43 -20q23 -8 37.5 -8.5t22.5 -0.5q3 12 4 20t1 19q0 33 -12 55t-31 52q19 29 31 51t12 55q0 11 -1 19t-4 20
q-8 0 -22.5 -0.5t-37.5 -8.5q-18 -7 -43 -20t-59 -13q-35 0 -52.5 17t-17.5 59t17.5 58.5t52.5 16.5q34 0 59 -13t43 -20q23 -8 38 -8.5t25 -0.5q1 8 0 14.5t-2 14.5q-1 9 -8.5 27t-15.5 38q-11 25 -16 48.5t-5 37.5q0 15 5 29.5t15 26.5t25.5 19.5t35.5 7.5q21 0 36.5 -7.5
t25.5 -19.5t15 -26.5t5 -29.5q0 -14 -7 -39t-16 -51q-8 -20 -16 -36.5t-10 -24.5q-2 -9 -1 -16.5t3 -12.5q10 0 25 0.5t38 8.5q18 7 43 20t59 13q35 0 52.5 -16.5t17.5 -58.5t-17.5 -59t-52.5 -17q-34 0 -59 13t-43 20q-23 8 -37.5 8.5t-22.5 0.5q-3 -12 -4 -19.5t-1 -19.5
q0 -19 3 -32.5t8.5 -25.5t13.5 -23.5t18 -25.5q-10 -14 -18 -25t-13.5 -23t-8.5 -25.5t-3 -32.5q0 -12 1 -19.5t4 -19.5q8 0 22.5 0.5t37.5 8.5q18 7 43 20t59 13q35 0 52.5 -17t17.5 -59z" />
    <glyph glyph-name="bullet" unicode="&#x2022;" 
d="M610 336q0 -53 -20 -99t-54.5 -80.5t-81 -54.5t-98.5 -20q-53 0 -99 20t-80.5 54.5t-54.5 80.5t-20 99q0 52 20 98.5t54.5 81t80.5 54.5t99 20q52 0 98.5 -20t81 -54.5t54.5 -81t20 -98.5z" />
    <glyph glyph-name="ellipsis" unicode="&#x2026;" horiz-adv-x="976" 
d="M931 102q0 -24 -9 -45t-25 -36.5t-37 -24.5t-45 -9q-25 0 -47 9.5t-38.5 26t-26 38.5t-9.5 47q0 24 10 44.5t26.5 35.5t39 23.5t46.5 8.5q23 0 44 -9.5t36.5 -25.5t25 -37.5t9.5 -45.5zM608 102q0 -24 -9.5 -45t-25 -36.5t-37 -24.5t-45.5 -9q-25 0 -47 9.5t-38.5 26
t-26 38.5t-9.5 47q0 24 10 44.5t27 35.5t39 23.5t46 8.5q23 0 44 -9.5t37 -25.5t25.5 -37.5t9.5 -45.5zM284 102q0 -24 -9.5 -45t-25 -36.5t-36.5 -24.5t-45 -9q-25 0 -47 9.5t-38.5 26t-26 38.5t-9.5 47q0 24 10 44.5t26.5 35.5t39 23.5t46.5 8.5q23 0 44 -9.5t36.5 -25.5
t25 -37.5t9.5 -45.5z" />
    <glyph glyph-name="perthousand" unicode="&#x2030;" horiz-adv-x="1585" 
d="M1538 251q0 -53 -17 -100t-46.5 -81.5t-70.5 -54.5t-89 -20q-47 0 -87.5 20t-69.5 54t-45.5 78.5t-16.5 93.5q0 55 17.5 101.5t48.5 79.5t71.5 51.5t87.5 18.5t87 -20t69 -53t45 -76.5t16 -91.5zM1056 251q0 -53 -17 -100t-46.5 -81.5t-70.5 -54.5t-89 -20
q-47 0 -87.5 20t-69.5 54t-45.5 78.5t-16.5 93.5q0 55 17.5 101.5t48.5 79.5t71.5 51.5t87.5 18.5t87 -20t69 -53t45 -76.5t16 -91.5zM410 0h-96l368 811h97zM489 570q0 -54 -17 -100.5t-47 -81.5t-70.5 -55t-88.5 -20t-88 20t-69 54t-45.5 78.5t-16.5 93.5q0 55 17.5 101.5
t48 79.5t71.5 51.5t87 18.5q47 0 87 -20t69 -53t45.5 -76.5t16.5 -90.5zM1388 243q0 78 -13.5 121.5t-58.5 43.5q-21 0 -34 -12.5t-21 -34.5t-11 -52.5t-3 -65.5q0 -78 14 -121.5t55 -43.5q22 0 36.5 13t22 35t10.5 52t3 65zM906 243q0 78 -13.5 121.5t-58.5 43.5
q-21 0 -34 -12.5t-21 -34.5t-11 -52.5t-3 -65.5q0 -78 14 -121.5t55 -43.5q22 0 36.5 13t22 35t10.5 52t3 65zM338 561q0 39 -2.5 69.5t-10.5 51.5t-22 32.5t-36 11.5q-21 0 -34.5 -12.5t-21.5 -34.5t-11 -52.5t-3 -65.5q0 -78 14 -121.5t56 -43.5q22 0 36 13t22 35.5
t10.5 52.5t2.5 64z" />
    <glyph glyph-name="guilsinglleft" unicode="&#x2039;" horiz-adv-x="498" 
d="M54 264v62l398 238v-77l-221 -192l221 -192v-76z" />
    <glyph glyph-name="guilsinglright" unicode="&#x203a;" horiz-adv-x="498" 
d="M50 27v76l221 192l-221 192v77l399 -238v-62z" />
    <glyph glyph-name="trademark" unicode="&#x2122;" horiz-adv-x="1086" 
d="M837 370v46h14q16 0 24 14q6 7 6 29v281l-124 -370h-47l-124 368v-279q0 -22 5 -29q9 -14 25 -14h18v-46h-169v46h23q6 0 12.5 3.5t10.5 10.5q7 8 7 29v265q0 22 -7 30q-7 13 -23 13h-23v44h199l93 -280l90 280h186v-44h-23q-18 0 -25 -13q-6 -7 -6 -30v-265q0 -22 6 -29
q8 -14 25 -14h23v-46h-196zM390 647v57q0 12 -5 27.5t-14 23.5q-8 8 -20 11t-26 3h-21v-310q0 -22 6 -29q8 -14 24 -14h44v-46h-251v46h43q17 0 25 14q6 7 6 29v310h-20q-14 0 -27 -3t-21 -11t-13 -23.5t-5 -27.5v-57h-60v164h395v-164h-60z" />
    <glyph glyph-name="NUL" horiz-adv-x="0" 
 />
    <glyph glyph-name="Lslash" horiz-adv-x="826" 
d="M45 0v109h47q18 0 29.5 6t21.5 19q8 11 10 25.5t2 34.5v90l-109 -44v131l109 44v202q0 21 -2 35t-10 25q-10 13 -21.5 19.5t-29.5 6.5h-47v108h493v-108h-88q-17 0 -28.5 -6.5t-21.5 -19.5q-8 -11 -10 -25t-2 -35v-109l161 63v-131l-161 -64v-182q0 -20 1 -36.5t9 -27.5
q12 -15 30 -18t36 -3h83q25 0 55.5 8t48.5 24q10 8 17.5 21t13 28t8.5 30.5t3 28.5v121h126v-370h-774z" />
    <glyph glyph-name="lslash" horiz-adv-x="401" 
d="M33 0v93h45q19 0 31 13q6 7 8.5 16t2.5 20v210l-84 -32v131l84 33v189q0 11 -2 19.5t-8 16.5q-13 13 -31 13h-45v89h260v-261l83 33v-132l-83 -32v-258q0 -15 1 -28t9 -23q13 -17 36 -17h37v-93h-344z" />
    <glyph glyph-name="minus" 
d="M621 310q0 -55 -21.5 -103t-58 -84t-85.5 -56.5t-104 -20.5t-103 21.5t-84 58t-56.5 85t-20.5 103.5t21.5 103.5t58 84.5t85 56.5t103.5 20.5t103.5 -21.5t84.5 -58t56.5 -85.5t20.5 -104zM472 417l-95 -55l80 139h-223l71 -175l-139 13l32 -128l130 37l-61 -117l186 2
l-66 118l123 -19z" />
    <glyph glyph-name="notequal" horiz-adv-x="896" 
d="M998 684q0 -28 -8.5 -49t-22.5 -35.5t-32 -21.5t-36 -7q-37 0 -61.5 20.5t-25.5 58.5q0 20 10.5 35t27.5 25q-3 10 -10 18q-6 7 -17 12.5t-28 5.5q-32 0 -52 -19.5t-20 -61.5v-153h128v-91h-129v-245q0 -20 0.5 -38t7.5 -28q14 -17 38 -17h80v-93h-397v93h55q18 0 30 13
q8 8 10 16.5t2 19.5v279h-250v-245q0 -20 0.5 -38t8.5 -28q13 -17 37 -17h53v-93h-373v93h58q18 0 30 13q8 8 10 16.5t2 19.5v279h-95v91h62q9 0 16.5 3.5t11.5 7.5t6 11t2 15v31q0 125 80 186.5t225 61.5q60 0 114.5 -7t89.5 -35q62 42 159 42q46 0 84 -10.5t64 -30
t40.5 -46t14.5 -57.5zM550 562q-26 8 -42.5 29.5t-16.5 52.5q0 20 11.5 38t28.5 28q-14 20 -36 30t-57 10q-39 0 -65.5 -13t-43 -33t-23.5 -43t-7 -44v-105h216q9 0 16.5 3.5t11.5 7.5t5.5 11t1.5 15v13z" />
    <glyph glyph-name="infinity" horiz-adv-x="1250" 
d="M883 0v93h41q20 0 30 13q7 7 9.5 16t2.5 20v232q0 11 -2 19.5t-9 16.5q-11 13 -30 13l-203 -2v-245q0 -20 0.5 -38t7.5 -28q14 -17 38 -17h61v-93h-378v93h55q18 0 30 13q8 8 10 16.5t2 19.5v279h-250v-245q0 -20 0.5 -38t8.5 -28q13 -17 37 -17h53v-93h-373v93h58
q18 0 30 13q8 8 10 16.5t2 19.5v279h-95v91h62q9 0 16.5 3.5t11.5 7.5t6 11t2 15v31q0 125 80 186.5t225 61.5q60 0 114.5 -7t89.5 -35q20 10 41 18t48.5 13t64.5 8t91 3q70 0 122.5 -15.5t86.5 -39.5t51 -54.5t17 -60.5t-10 -51.5t-26.5 -36t-38.5 -21.5t-46 -7
q-48 0 -77.5 25t-30.5 64q0 45 39 69q-8 11 -20 21q-11 8 -27.5 14.5t-39.5 6.5q-31 0 -59.5 -7t-50.5 -23t-35 -42.5t-13 -65.5v-92h417v-336q0 -20 1 -38t9 -28q13 -17 36 -17h37v-93h-340zM550 562q-26 8 -42.5 29.5t-16.5 52.5q0 20 11.5 38t28.5 28q-14 20 -36 30
t-57 10q-39 0 -65.5 -13t-43 -33t-23.5 -43t-7 -44v-105h216q9 0 16.5 3.5t11.5 7.5t5.5 11t1.5 15v13z" />
    <glyph glyph-name="lessequal" 
d="M621 310q0 -55 -21.5 -103t-58 -84t-85.5 -56.5t-104 -20.5t-103 21.5t-84 58t-56.5 85t-20.5 103.5t21.5 103.5t58 84.5t85 56.5t103.5 20.5t103.5 -21.5t84.5 -58t56.5 -85.5t20.5 -104zM472 417l-95 -55l80 139h-223l71 -175l-139 13l32 -128l130 37l-61 -117l186 2
l-66 118l123 -19z" />
    <glyph glyph-name="greaterequal" 
d="M621 310q0 -55 -21.5 -103t-58 -84t-85.5 -56.5t-104 -20.5t-103 21.5t-84 58t-56.5 85t-20.5 103.5t21.5 103.5t58 84.5t85 56.5t103.5 20.5t103.5 -21.5t84.5 -58t56.5 -85.5t20.5 -104zM472 417l-95 -55l80 139h-223l71 -175l-139 13l32 -128l130 37l-61 -117l186 2
l-66 118l123 -19z" />
    <glyph glyph-name="partialdiff" 
d="M621 310q0 -55 -21.5 -103t-58 -84t-85.5 -56.5t-104 -20.5t-103 21.5t-84 58t-56.5 85t-20.5 103.5t21.5 103.5t58 84.5t85 56.5t103.5 20.5t103.5 -21.5t84.5 -58t56.5 -85.5t20.5 -104zM472 417l-95 -55l80 139h-223l71 -175l-139 13l32 -128l130 37l-61 -117l186 2
l-66 118l123 -19z" />
    <glyph glyph-name="summation" 
d="M621 310q0 -55 -21.5 -103t-58 -84t-85.5 -56.5t-104 -20.5t-103 21.5t-84 58t-56.5 85t-20.5 103.5t21.5 103.5t58 84.5t85 56.5t103.5 20.5t103.5 -21.5t84.5 -58t56.5 -85.5t20.5 -104zM472 417l-95 -55l80 139h-223l71 -175l-139 13l32 -128l130 37l-61 -117l186 2
l-66 118l123 -19z" />
    <glyph glyph-name="product" 
d="M621 310q0 -55 -21.5 -103t-58 -84t-85.5 -56.5t-104 -20.5t-103 21.5t-84 58t-56.5 85t-20.5 103.5t21.5 103.5t58 84.5t85 56.5t103.5 20.5t103.5 -21.5t84.5 -58t56.5 -85.5t20.5 -104zM472 417l-95 -55l80 139h-223l71 -175l-139 13l32 -128l130 37l-61 -117l186 2
l-66 118l123 -19z" />
    <glyph glyph-name="pi" horiz-adv-x="1051" 
d="M997 368q0 -97 -37 -182.5t-101 -149t-149.5 -100.5t-182.5 -37t-182.5 37t-149 100.5t-100.5 149t-37 182.5t37 183t100.5 149.5t149 100.5t182.5 37t182.5 -37t149.5 -100.5t101 -149.5t37 -183zM927 366q0 83 -31.5 155.5t-85.5 126.5t-127 85.5t-156 31.5
t-155.5 -31.5t-126.5 -85.5t-85 -126.5t-31 -155.5q0 -82 31 -154.5t85 -126.5t126.5 -85.5t155.5 -31.5t156 31.5t127 85.5t85.5 126.5t31.5 154.5zM801 482q0 -75 -45.5 -112t-134.5 -37h-111v-88q0 -11 1.5 -20.5t6.5 -16.5q12 -15 30 -15h34v-57h-283v57h34q11 0 18 4
t13 11q5 7 6 16.5t1 20.5v268q0 11 -1 20.5t-6 15.5q-12 15 -31 15h-34v58h293q100 0 154.5 -33.5t54.5 -106.5zM650 482q0 35 -20.5 56.5t-57.5 21.5h-25q-18 0 -29 -16q-6 -7 -7 -16t-1 -20v-112h54q43 0 64.5 22.5t21.5 63.5z" />
    <glyph glyph-name="integral" 
d="M621 310q0 -55 -21.5 -103t-58 -84t-85.5 -56.5t-104 -20.5t-103 21.5t-84 58t-56.5 85t-20.5 103.5t21.5 103.5t58 84.5t85 56.5t103.5 20.5t103.5 -21.5t84.5 -58t56.5 -85.5t20.5 -104zM472 417l-95 -55l80 139h-223l71 -175l-139 13l32 -128l130 37l-61 -117l186 2
l-66 118l123 -19z" />
    <glyph glyph-name="Omega" 
d="M621 310q0 -55 -21.5 -103t-58 -84t-85.5 -56.5t-104 -20.5t-103 21.5t-84 58t-56.5 85t-20.5 103.5t21.5 103.5t58 84.5t85 56.5t103.5 20.5t103.5 -21.5t84.5 -58t56.5 -85.5t20.5 -104zM472 417l-95 -55l80 139h-223l71 -175l-139 13l32 -128l130 37l-61 -117l186 2
l-66 118l123 -19z" />
    <glyph glyph-name="radical" 
d="M762 686q-50 -36 -90 -68.5t-74.5 -67t-67.5 -74t-69 -89.5q-44 -61 -77 -114t-58.5 -107.5t-45.5 -113.5t-38 -132h-31q-14 37 -27.5 67.5t-28 59t-31.5 57.5t-38 63q-18 28 -33.5 50.5t-31.5 43.5t-34 42t-40 46l156 136q28 -23 45.5 -44.5t34.5 -53.5q18 -35 26 -63
t10 -68q12 49 25 88.5t29.5 77t36.5 75t46 82.5q28 47 52.5 85t50 72.5t55 69t67.5 73.5l181 -193v0z" />
    <glyph glyph-name="approxequal" 
d="M621 310q0 -55 -21.5 -103t-58 -84t-85.5 -56.5t-104 -20.5t-103 21.5t-84 58t-56.5 85t-20.5 103.5t21.5 103.5t58 84.5t85 56.5t103.5 20.5t103.5 -21.5t84.5 -58t56.5 -85.5t20.5 -104zM472 417l-95 -55l80 139h-223l71 -175l-139 13l32 -128l130 37l-61 -117l186 2
l-66 118l123 -19z" />
    <glyph glyph-name="Delta" 
d="M621 310q0 -55 -21.5 -103t-58 -84t-85.5 -56.5t-104 -20.5t-103 21.5t-84 58t-56.5 85t-20.5 103.5t21.5 103.5t58 84.5t85 56.5t103.5 20.5t103.5 -21.5t84.5 -58t56.5 -85.5t20.5 -104zM472 417l-95 -55l80 139h-223l71 -175l-139 13l32 -128l130 37l-61 -117l186 2
l-66 118l123 -19z" />
    <glyph glyph-name="lozenge" 
d="M621 310q0 -55 -21.5 -103t-58 -84t-85.5 -56.5t-104 -20.5t-103 21.5t-84 58t-56.5 85t-20.5 103.5t21.5 103.5t58 84.5t85 56.5t103.5 20.5t103.5 -21.5t84.5 -58t56.5 -85.5t20.5 -104zM472 417l-95 -55l80 139h-223l71 -175l-139 13l32 -128l130 37l-61 -117l186 2
l-66 118l123 -19z" />
    <glyph glyph-name="fraction" horiz-adv-x="286" 
d="M-93 -61h-99l577 890h99z" />
    <glyph glyph-name="fi" horiz-adv-x="831" 
d="M465 0v93h41q20 0 30 13q7 7 9.5 16t2.5 20v232q0 11 -2 19.5t-9 16.5q-11 13 -30 13l-203 -1v-246q0 -20 0.5 -38t7.5 -28q14 -17 38 -17h60v-93h-386v93h58q20 0 30 13q7 7 9.5 16t2.5 20v279h-95v91l57 3q17 0 29 15q8 8 10 17.5t2 17.5v15q0 63 23 109.5t66 77
t105.5 46t141.5 15.5q70 0 122 -15.5t86.5 -39.5t51.5 -54.5t17 -60.5t-10 -51.5t-26.5 -36t-38.5 -21.5t-46 -7q-48 0 -78 25t-31 64q0 44 40 69q-8 11 -20 21q-11 8 -27.5 14.5t-39.5 6.5q-31 0 -59.5 -7t-50.5 -23t-35 -42.5t-13 -65.5v-92h417v-336q0 -20 1 -38t8 -28
q14 -17 37 -17h37v-93h-340z" />
    <glyph glyph-name="fl" horiz-adv-x="839" 
d="M451 0v93h55q20 0 30 13q7 7 9.5 16t2.5 20v419l-15 8q-21 11 -31.5 31.5t-10.5 40.5q0 44 39 69q-8 11 -20 20q-11 8 -27 14.5t-39 6.5q-30 0 -55 -8t-44 -26t-29.5 -46t-10.5 -67v-92h135v-91h-136v-245q0 -20 0.5 -38t7.5 -28q14 -17 38 -17h47v-93h-373v93h58
q20 0 30 13q7 7 9.5 16t2.5 20v279h-95v91l57 3q17 0 29 15q8 8 10 17.5t2 17.5v15q0 125 80 186.5t225 61.5q56 0 102.5 -6.5t74.5 -14.5l113 4v-635q0 -20 1 -38t8 -28q14 -17 37 -17h37v-93h-354z" />
    <glyph glyph-name="apple" horiz-adv-x="770" 
d="M493 390l-109 -200l-110 199l-225 42l157 168l-29 228l208 -97l207 97l-28 -228l157 -168zM451 562l31 111l-97 -62l-97 62l29 -111l-89 -72l114 -6l44 -107l41 107l115 7z" />
    <glyph glyph-name="dotlessi" horiz-adv-x="410" 
d="M39 0v93h45q20 0 30 13q7 7 9.5 16t2.5 20v232q0 11 -2 19.5t-9 16.5q-11 13 -30 13h-45v89h260v-357q0 -14 1 -24.5t9 -20.5q13 -17 36 -17h37v-93h-344z" />
    <glyph glyph-name="breve" horiz-adv-x="669" 
d="M543 722q0 -3 -9.5 -29t-33 -56.5t-63.5 -55.5t-102 -25q-42 0 -74 12t-55 29.5t-38.5 38.5t-24.5 39.5t-13 31.5t-4 15h74q0 -2 6.5 -15t21.5 -28t40.5 -28t64.5 -13t65 12.5t42 28t22.5 28.5t6.5 15h74v0z" />
    <glyph glyph-name="dotaccent" horiz-adv-x="669" 
d="M422 650q0 -37 -26 -63t-63 -26q-18 0 -34 7t-28.5 19t-19.5 28.5t-7 34.5t7 34t19.5 28.5t28.5 19.5t34 7t34.5 -7t28.5 -19.5t19 -28.5t7 -34z" />
    <glyph glyph-name="ring" horiz-adv-x="669" 
d="M503 705q0 -32 -12 -59.5t-33 -48.5t-49 -33t-59 -12t-59 12t-49 33t-33 48.5t-12 59.5q0 31 12 59t33 48.5t49 32.5t59 12t59 -12t49 -32.5t33 -48.5t12 -59zM427 705q0 32 -22.5 54t-54.5 22q-31 0 -53.5 -22t-22.5 -54t22.5 -54t53.5 -22q32 0 54.5 22t22.5 54z" />
    <glyph glyph-name="hungarumlaut" horiz-adv-x="669" 
d="M394 552h-76l148 185h141zM194 552h-76l148 185h141z" />
    <glyph glyph-name="ogonek" horiz-adv-x="469" 
d="M309 -171q-5 -6 -16.5 -13t-26.5 -14t-31 -11.5t-31 -4.5q-53 0 -84.5 19t-31.5 67q0 26 20 50t44 41q28 20 65 37h59q-30 -15 -54 -33q-20 -15 -37 -34.5t-17 -42.5q0 -28 16.5 -37.5t34.5 -9.5q20 0 34.5 5.5t28.5 16.5l27 -36v0z" />
    <glyph glyph-name="caron" horiz-adv-x="669" 
d="M376 554h-87l-170 167h80l134 -83l134 83h80z" />
  </font>
</defs>
</svg>
